<svg width="374" height="374" viewBox="0 0 374 374" fill="none" xmlns="http://www.w3.org/2000/svg">
<path d="M92.5054 297.907V279.505V249.665V214.851L96.9814 205.899L106.928 203.412L124.335 201.92H217.835L260.109 203.412L266.077 205.899L269.061 231.76V296.415L264.088 305.864L239.221 308.351H142.737L99.9655 307.356L92.5054 297.907Z" fill="#F8FAF7"/>
<path d="M271.434 210.375C271.434 205.348 266.737 201.26 261.028 201.26C251.186 200.578 241.363 200.019 231.568 199.585C230.038 201.332 228.507 203.071 226.971 204.808C237.067 205.225 247.141 205.773 257.179 206.448C261.686 206.448 265.353 209.431 265.357 213.178C267.676 239.408 267.676 267.711 265.353 297.367C265.353 301.032 261.686 304.015 257.179 304.015C251.407 304.015 196.531 309.354 105.133 304.015C100.627 304.015 96.9595 301.032 96.9577 297.298C94.6108 265.732 94.6108 238.217 96.9577 213.096C96.9577 209.431 100.625 206.448 105.197 206.446C114.588 205.782 124.003 205.247 133.434 204.84L121.428 200.009C114.809 200.365 108.221 200.782 101.666 201.26C95.8899 201.26 91.1887 205.35 91.1925 210.293C88.2827 242.3 88.9821 286.284 91.1887 320.501C91.1887 326.064 95.8862 330.588 101.597 330.588C124.598 332.138 147.283 333.043 169.54 333.309C169.115 336.116 168.79 338.217 168.545 339.798H155.333C151.803 339.798 148.424 340.742 145.561 342.53L135.459 348.841C133.075 350.328 134.186 356.949 137.144 356.949H233.4C236.31 356.949 237.415 350.449 235.207 348.919L226.64 342.973C223.689 340.925 219.979 339.798 216.194 339.798H202.022L200.868 333.253C221.356 332.931 241.426 332.043 260.987 330.59C266.748 330.571 271.429 326.053 271.427 320.566C273.757 286.316 274.146 242.006 271.427 210.379L271.434 210.375ZM202.5 344.957C202.985 344.512 202.805 344.213 202.356 341.664H216.2C219.607 341.664 222.94 342.674 225.58 344.506L234.146 350.453C234.893 350.969 234.356 351.831 233.406 351.831H137.15C136.179 351.831 135.646 350.93 136.454 350.423L146.556 344.112C149.121 342.511 152.158 341.664 155.337 341.664H168.261C167.797 344.71 167.868 344.613 168.158 344.916C172.842 349.802 197.235 349.808 202.5 344.957ZM169.833 343.915L171.434 333.326C175.389 333.365 193.766 333.35 198.979 333.277L200.851 343.889C195.746 347.549 174.419 347.573 169.833 343.915ZM269.564 320.499C269.564 325.03 265.705 328.718 260.957 328.718C254.93 328.718 197.416 335.166 101.668 328.718C96.9221 328.718 93.0606 325.032 93.0587 320.439C92.7259 315.276 92.4379 310.203 92.1948 305.214C93.8722 308.296 97.4738 310.433 101.608 310.433C154.226 313.601 208.172 313.941 260.987 310.433C265.177 310.422 268.796 308.258 270.458 305.178C270.209 310.25 269.914 315.357 269.564 320.499Z" fill="black"/>
<path d="M184.343 327.078C181.246 327.078 178.727 324.858 178.727 322.13C178.727 319.401 181.246 317.182 184.343 317.182C187.439 317.182 189.956 319.401 189.956 322.13C189.956 324.858 187.438 327.078 184.343 327.078ZM184.343 319.054C182.278 319.054 180.597 320.434 180.597 322.132C180.597 323.829 182.276 325.21 184.343 325.21C186.409 325.21 188.086 323.829 188.086 322.132C188.086 320.434 186.407 319.054 184.343 319.054Z" fill="black"/>
<path d="M148.572 178.264C147.345 177.732 146.075 177.113 145.208 175.955C143.283 173.376 145.316 170.094 146.606 171.398C146.969 171.766 146.965 172.357 146.599 172.72C146.092 173.221 146.245 174.218 146.705 174.833C147.298 175.624 148.321 176.114 149.316 176.548C167.475 184.456 188.423 182.951 208.361 180.146C211.463 179.708 214.024 179.286 216.37 178.15C218.977 176.89 220.83 174.798 221.33 172.555C221.442 172.052 221.939 171.733 222.446 171.847C222.951 171.959 223.267 172.458 223.157 172.963C222.523 175.8 220.346 178.306 217.186 179.835C214.39 181.187 211.19 181.638 208.621 181.999C188.457 184.839 167.171 186.365 148.572 178.264Z" fill="black"/>
<path d="M273.085 145.975C268.252 156.655 234.354 195.04 226.59 203.824C226.949 202.491 228.247 197.496 228.247 197.496C230.057 190.623 232.106 182.833 229.847 175.712C228.737 172.215 226.96 169.487 224.744 167.327C237.361 159.387 250.324 151.943 263.326 145.147C262.2 145.04 261.073 144.947 259.949 144.831C247.588 151.374 235.278 158.473 223.287 166.037C222.749 165.603 222.178 165.21 221.599 164.831C235.835 152.934 240.693 132.538 231.962 115.276C222.801 97.1534 203.378 89.5593 174.213 92.7103C162.146 94.0137 152.841 98.3483 145.77 105.959C130.113 122.812 131.676 148.472 147.465 163.045C143.616 165.33 140.66 168.771 138.799 174.371C117.941 172.969 96.0751 171.809 75.9763 173.139C72.859 173.345 69.9231 175.228 70.5383 178.308C70.9647 180.453 72.8646 181.472 74.4728 182.119L142.027 209.303C147.893 229.067 152.826 245.519 165.117 269.811C173.233 285.853 196.281 285.513 203.675 269.195C213.216 248.152 219.198 230.155 225.462 207.914C232.525 199.966 271.434 156.152 275.032 146.103C274.383 146.058 273.734 146.022 273.085 145.975ZM142.473 154.078C133.066 138.897 135.369 119.9 147.141 107.231C153.894 99.9622 162.815 95.8201 174.415 94.5691C202.71 91.5135 221.518 98.7616 230.294 116.119C237.886 131.131 234.728 148.56 223.736 160.268C216.793 167.662 207.772 171.673 195.346 172.894C195.467 174.139 195.518 174.115 195.185 172.909C177.517 174.609 154.021 172.72 142.473 154.078ZM75.1703 180.382C73.9268 179.88 72.6234 179.2 72.3728 177.939C71.9988 176.054 74.3045 175.119 76.1016 175.003C95.9535 173.687 117.591 174.822 138.264 176.208C135.813 185.889 138.541 197.299 141.355 207.016L75.1703 180.382ZM201.973 268.423C195.112 283.557 174.084 283.385 166.787 268.965C158.045 251.688 150.967 233.632 145.748 215.3C141.318 199.687 133.634 179.413 145.245 167.069C146.271 165.979 147.534 165.079 148.944 164.314C159.092 172.761 172.732 175.267 185.289 175.267C198.336 175.267 210.34 173.352 220.024 166.074C223.635 168.344 226.56 171.535 228.067 176.279C230.367 183.527 227.755 191.901 225.84 199.326C218.691 227.032 210.437 249.759 201.973 268.423Z" fill="black"/>
<path d="M169.76 138.117L171.374 130.364C171.468 129.917 171.9 129.612 172.328 129.62C173.97 129.685 172.584 131.658 175.774 143.351L177.624 136.17C177.886 135.164 179.215 135.295 179.438 136.176C179.673 137.128 179.844 138.149 180.075 138.99C180.82 139.093 181.57 139.132 182.323 139.115L183.656 123.497C183.757 122.33 185.45 122.381 185.521 123.52C185.934 130.081 186.334 136.694 187.097 143.274C188.397 136.782 189.82 130.265 191.344 123.836C191.583 122.816 193.074 122.912 193.182 123.952L194.484 136.215L195.944 131.669C196.099 131.177 196.629 130.904 197.12 131.061C197.612 131.22 197.882 131.746 197.723 132.238C197.42 133.187 198.229 138.94 198.691 142.059C199.002 141.391 199.288 140.735 199.434 140.198C199.712 139.166 200.249 138.728 201.317 138.728L229.503 138.736C230.539 125.756 220.89 115.348 208.628 115.015C193.306 114.6 178.228 114.59 163.821 114.987C153.018 115.286 142.838 123.826 142.911 137.184C150.453 137.262 161.738 138.01 169.759 138.113L169.76 138.117Z" fill="#52D0B2"/>
<path d="M201.263 140.6C200.833 142.237 199.52 144.385 199.149 145.756C198.89 146.734 197.446 146.648 197.319 145.627C197.263 145.161 196.337 138.869 196.133 137.186L194.908 140.999C194.594 141.986 193.192 141.79 193.089 140.81L191.907 129.676C190.437 136.17 189.072 142.719 187.842 149.215C187.647 150.242 186.159 150.216 186 149.182C183.995 136.11 184.81 131.888 184.115 140.08C184.075 140.535 183.715 140.896 183.26 140.933C181.904 141.045 180.53 140.98 179.185 140.739C178.888 140.684 178.637 140.494 178.508 140.224L176.736 147.104C176.504 148.002 175.221 148.06 174.937 147.149C173.777 143.441 172.844 139.645 172.149 135.813L171.434 139.246C171.344 139.68 170.957 139.993 170.516 139.991C163.034 139.963 151.407 139.172 142.982 139.058C143.829 149.625 152.435 158.107 163.191 158.663C178.968 159.474 194.347 159.465 208.888 158.754C218.71 158.272 227.559 151.314 229.279 140.606L201.263 140.598V140.6Z" fill="#52D0B2"/>
<path d="M248.519 82.2699C238.676 82.0007 228.881 81.3593 219.175 80.3139C215.46 79.9137 212.497 76.9535 212.129 73.2752C211.65 68.4806 211.323 63.6784 211.144 58.8837C224.133 58.9941 257.576 59.0876 260.087 59.082L259.917 71.5605C260.54 71.5006 261.166 71.4557 261.789 71.3978L261.957 59.0763C276.768 59.0315 292.105 58.8706 307.617 58.5079C307.419 62.1319 307.062 65.8046 306.626 69.5016C307.258 69.5035 307.892 69.5222 308.524 69.5278C310.244 54.7978 310.123 40.5895 308.111 27.2471C307.449 22.8451 303.892 19.4791 299.464 19.064C271.507 16.4385 244.443 16.3992 219.014 18.9499C214.396 19.4136 210.708 23.0788 210.246 27.666C208.728 42.7008 208.733 58.1226 210.268 73.4641C210.721 78.0176 214.381 81.6809 218.971 82.1746C228.705 83.2218 238.511 83.8707 248.353 84.1418C248.409 83.5191 248.458 82.8945 248.517 82.2718L248.519 82.2699ZM307.71 56.636C292.176 56.9988 276.816 57.1615 261.983 57.2063L262.284 35.1048C278.421 35.2376 293.824 35.6359 307.28 36.0529C307.873 42.7344 308.017 49.6104 307.71 56.636ZM212.107 27.8511C212.481 24.1447 215.465 21.1827 219.203 20.8087C245.432 18.1757 272.515 18.4076 299.29 20.9246C302.861 21.2593 305.728 23.9746 306.263 27.5257C306.594 29.7192 306.873 31.937 307.101 34.1773C279.853 33.3377 244.69 32.5766 211.579 33.9267C211.727 31.8959 211.903 29.8707 212.107 27.853V27.8511ZM211.45 35.8004C227.659 35.1347 244.373 34.9776 260.412 35.0898L260.11 57.2101C242.838 57.2512 226.307 57.1409 211.08 57.0119C210.874 49.9096 210.998 42.8242 211.45 35.8004Z" fill="black"/>
<path d="M363.644 80.5065C362.868 75.3546 358.707 71.4166 353.527 70.9285C320.312 67.8094 288.159 67.7643 257.959 70.7919C252.551 71.3342 248.237 75.6241 247.696 80.9929C245.875 99.0253 245.92 117.348 247.721 135.382C248.252 140.711 252.538 144.997 257.908 145.575C290.658 149.1 322.124 148.864 353.535 145.5C358.681 144.95 362.78 140.96 363.505 135.799C366.116 117.196 366.357 98.4996 363.644 80.5065ZM362.37 129.882C354.518 130.007 346.694 130.103 338.934 130.172L339.1 117.895C347.143 117.791 355.261 117.647 363.414 117.458C363.193 121.559 362.844 125.701 362.369 129.882H362.37ZM308.628 130.335L308.795 118.129C318.122 118.103 327.622 118.037 337.23 117.918L337.064 130.189C327.459 130.271 317.958 130.316 308.628 130.335ZM337.038 132.059L336.86 145.104C327.366 145.773 317.876 146.142 308.412 146.211L308.602 132.205C317.932 132.186 327.433 132.141 337.038 132.059ZM362.989 90.7431C363.317 94.3933 363.532 98.0903 363.633 101.832C355.478 102.023 347.36 102.167 339.313 102.272L339.48 90.1054C347.719 90.2943 355.601 90.5168 362.989 90.7431ZM363.507 115.584C355.332 115.775 347.192 115.919 339.126 116.023L339.289 104.142C347.356 104.035 355.498 103.891 363.676 103.7C363.743 107.616 363.687 111.578 363.509 115.582L363.507 115.584ZM248.244 104.145C257.314 104.222 266.769 104.295 276.526 104.34L276.364 116.218C266.696 116.171 257.325 116.1 248.336 116.023C248.218 112.057 248.186 108.095 248.242 104.143L248.244 104.145ZM278.398 104.349C284.865 104.379 304.109 104.392 307.112 104.385L306.949 116.265C297.158 116.289 287.561 116.27 278.235 116.227L278.398 104.349ZM308.982 104.379C318.309 104.351 327.809 104.285 337.417 104.166L337.254 116.048C327.644 116.167 318.145 116.233 308.819 116.259L308.982 104.379ZM337.443 102.296C327.835 102.415 318.336 102.483 309.008 102.509L309.184 89.6321C318.949 89.7069 328.488 89.864 337.612 90.0641L337.443 102.296ZM307.136 102.515C297.345 102.539 287.75 102.52 278.422 102.479L278.596 89.7069C288.255 89.576 297.883 89.5573 307.312 89.619L307.136 102.515ZM276.552 102.472C266.797 102.425 257.344 102.354 248.278 102.277C248.36 98.3446 248.529 94.4251 248.781 90.5205C258.013 90.1297 267.378 89.8789 276.726 89.7368L276.552 102.472ZM248.4 117.897C257.362 117.974 266.703 118.045 276.339 118.092L276.173 130.306L249.121 130.177C248.788 126.084 248.547 121.989 248.398 117.899L248.4 117.897ZM278.209 118.099C284.745 118.129 303.993 118.142 306.923 118.137L306.757 130.34C296.965 130.355 287.367 130.34 278.043 130.312L278.209 118.099ZM258.142 72.6546C289.566 69.5036 321.767 69.8269 353.35 72.7928C357.673 73.1985 361.146 76.4862 361.794 80.7872C362.196 83.4517 362.535 86.1464 362.81 88.8691C326.857 87.9042 289.491 86.9356 248.91 88.6447C249.09 86.1502 249.303 83.6614 249.553 81.1836C250.006 76.6956 253.617 73.1108 258.142 72.6546ZM249.576 135.199C249.471 134.148 249.374 133.097 249.28 132.047L276.147 132.176L275.969 145.266C269.991 144.872 264.035 144.356 258.107 143.718C253.611 143.234 250.023 139.651 249.576 135.199ZM277.837 145.386L278.017 132.182C284.664 132.203 303.918 132.214 306.73 132.21L306.54 146.222C296.935 146.252 287.359 145.974 277.837 145.386ZM353.333 143.644C348.467 144.163 343.597 144.607 338.73 144.969L338.906 132.044C346.601 131.975 354.359 131.881 362.146 131.756C361.991 133.014 361.826 134.275 361.649 135.539C361.045 139.851 357.624 143.183 353.333 143.644Z" fill="black"/>
<path d="M110.807 115.232C110.496 113.732 108.935 112.594 107.011 112.463C96.4452 111.741 86.2163 111.73 76.6063 112.431C74.5606 112.581 72.9785 113.798 72.756 115.395C72.1726 119.591 72.1744 123.885 72.7635 128.156C72.9804 129.743 74.5531 130.961 76.5858 131.12C86.8296 131.92 97.0548 131.877 107.016 131.103C108.933 130.953 110.476 129.798 110.764 128.294C111.645 123.735 111.659 119.342 110.805 115.234L110.807 115.232ZM108.927 127.939C108.802 128.597 107.918 129.154 106.87 129.237C96.7687 130.022 86.6239 130.028 76.7316 129.253C75.619 129.166 74.7102 128.584 74.6148 127.9C74.0501 123.799 74.0482 119.679 74.6073 115.651C74.7046 114.959 75.6209 114.378 76.741 114.295C86.5996 113.575 96.7818 113.637 106.882 114.327C107.938 114.4 108.84 114.952 108.976 115.612C109.778 119.477 109.761 123.623 108.927 127.939Z" fill="black"/>
<path d="M58.6358 115.232C58.3254 113.732 56.764 112.594 54.8397 112.463C44.2705 111.741 34.0416 111.73 24.4335 112.431C22.3878 112.581 20.8057 113.798 20.5832 115.395C19.9998 119.586 20.0035 123.879 20.5907 128.156C20.8076 129.742 22.3821 130.961 24.4148 131.12C34.6587 131.92 44.8838 131.877 54.8453 131.103C56.7583 130.953 58.3011 129.798 58.5928 128.294C59.4736 123.735 59.4885 119.342 58.634 115.234L58.6358 115.232ZM56.7565 127.937C56.6293 128.597 55.7448 129.154 54.6995 129.237C44.5977 130.022 34.453 130.028 24.5607 129.253C23.4462 129.166 22.5374 128.584 22.442 127.9C21.8791 123.791 21.8754 119.672 22.4345 115.649C22.5317 114.959 23.448 114.376 24.5682 114.293C34.4268 113.574 44.6108 113.635 54.7107 114.325C55.7673 114.398 56.6686 114.95 56.8051 115.61C57.6073 119.475 57.5905 123.623 56.7565 127.937Z" fill="black"/>
<path d="M121.563 98.1429C120.813 93.1612 116.789 89.3539 111.781 88.8827C79.763 85.8757 48.764 85.8308 19.6443 88.7517C14.4176 89.2753 10.2457 93.4249 9.7202 98.616C7.98297 115.824 7.99045 133.488 9.74451 151.055C10.2588 156.206 14.4027 160.352 19.5976 160.911C49.8748 164.171 80.8925 164.146 111.787 160.84C116.765 160.307 120.729 156.449 121.428 151.458C123.871 134.049 124.247 115.951 121.563 98.1429ZM19.8313 90.6124C50.0674 87.5811 81.1094 87.8803 111.605 90.7452C115.759 91.1341 119.093 94.2907 119.716 98.4215C120.056 100.68 120.348 102.962 120.593 105.264C89.3748 104.299 49.0295 103.424 11.0348 104.978C11.1919 102.913 11.3733 100.854 11.5809 98.8011C12.0166 94.4908 15.4873 91.05 19.8313 90.6124ZM119.577 151.195C118.996 155.337 115.712 158.536 111.59 158.978C80.827 162.269 49.9402 162.293 19.7996 159.049C15.4779 158.585 12.0353 155.142 11.6052 150.866C10.1372 136.153 9.90159 121.385 10.9002 106.855C48.9959 105.29 89.5038 106.175 120.783 107.141C122.118 121.166 121.718 135.943 119.577 151.195Z" fill="black"/>
<path d="M73.3788 140.341C72.8627 140.341 72.4438 139.924 72.4438 139.406C72.4438 138.888 72.8627 138.471 73.377 138.471C84.8176 138.458 96.4172 138.209 107.854 137.732C108.344 137.702 108.806 138.112 108.828 138.628C108.849 139.144 108.449 139.58 107.933 139.6C96.4734 140.079 84.8476 140.333 73.3826 140.341H73.3788Z" fill="black"/>
<path d="M77.4684 145.881C76.9523 145.873 76.539 145.451 76.5465 144.933C76.554 144.42 76.971 144.011 77.4815 144.011C77.4815 144.011 95.0483 144.134 103.777 144.035C104.97 143.949 105.079 145.89 103.8 145.905C95.3325 146.002 86.4949 146 77.4703 145.881H77.4684Z" fill="black"/>
<path d="M108.101 151.921L73.1656 151.841C72.6494 151.841 72.2306 151.42 72.2324 150.904C72.2324 150.388 72.6532 149.971 73.1674 149.971L108.103 150.051C108.619 150.051 109.038 150.472 109.036 150.988C109.036 151.504 108.615 151.921 108.101 151.921Z" fill="black"/>
<path d="M22.4511 140.341C21.935 140.341 21.5161 139.924 21.5161 139.406C21.5161 138.888 21.935 138.471 22.4492 138.471C33.8899 138.458 45.4895 138.209 56.9283 137.732C57.4313 137.702 57.8783 138.112 57.9026 138.628C57.9231 139.144 57.523 139.58 57.0068 139.6C45.5456 140.079 33.9198 140.333 22.4549 140.341H22.4511Z" fill="black"/>
<path d="M26.5429 145.881C26.0267 145.873 25.6135 145.451 25.6209 144.933C25.6284 144.42 26.0454 144.011 26.5559 144.011C26.5559 144.011 44.1265 144.134 52.85 144.035C53.3418 143.996 53.7906 144.443 53.7962 144.959C53.8019 145.475 53.3886 145.898 52.8725 145.905C44.2611 146.002 35.4291 145.999 26.5429 145.881Z" fill="black"/>
<path d="M57.175 151.921L22.2378 151.841C21.7217 151.841 21.3028 151.42 21.3047 150.904C21.3047 150.388 21.7254 149.971 22.2397 149.971L57.1769 150.051C57.693 150.051 58.1119 150.472 58.11 150.988C58.11 151.504 57.6893 151.921 57.175 151.921Z" fill="black"/>
</svg>
