<svg width="80" height="80" viewBox="0 0 80 80" fill="none" xmlns="http://www.w3.org/2000/svg">
<rect width="80" height="80" rx="5" fill="#2D2D43"/>
<path d="M60.9034 28.9325C59.5716 28.0831 58.215 27.1183 56.4281 27.5213V26.9993C56.4281 24.0765 56.3996 21.1537 56.443 18.2309C56.4591 17.1681 56.1329 16.4105 55.1285 16H19.3145C18.3088 16.4105 17.9951 17.1681 18.0001 18.2296C18.0286 25.1107 18.0149 31.993 18.0149 38.8753C18.0149 39.0142 18.0063 39.1543 18.0187 39.2932C18.0534 39.6925 18.3361 39.9616 18.7143 39.9516C19.1161 39.9405 19.3356 39.7123 19.3976 39.3291C19.4199 39.1927 19.4063 39.0514 19.4063 38.9125C19.4063 34.2883 19.41 29.6642 19.4001 25.0412C19.4001 24.7225 19.4385 24.5973 19.8118 24.5985C31.4249 24.6109 43.038 24.6097 54.6511 24.6035C54.9301 24.6035 55.0529 24.6407 55.0454 24.9693C55.0219 26.0978 55.033 27.2274 55.0392 28.3559C55.0392 28.5493 54.9847 28.7118 54.9028 28.8817C53.9505 30.8695 53.0043 32.8598 52.0606 34.8513C51.8275 35.3424 51.9329 35.7466 52.3161 35.9239C52.7067 36.1037 53.0775 35.9301 53.3131 35.444C53.6888 34.6665 54.0633 33.889 54.4229 33.1053C54.5358 32.861 54.6188 32.7482 54.9227 32.8995C56.1515 33.5083 57.3928 34.0911 58.6366 34.6678C58.9007 34.7905 58.9045 34.9021 58.7879 35.1464C56.3252 40.3063 53.8698 45.4686 51.422 50.6359C51.2955 50.9038 51.1975 50.9571 50.9185 50.8195C49.7293 50.2354 48.5314 49.6687 47.3248 49.1218C46.9814 48.9656 46.9355 48.8366 47.1054 48.4832C48.6715 45.2355 50.2129 41.9754 51.7618 38.7178C52.0284 38.1585 51.9564 37.7493 51.5621 37.5521C51.1479 37.3438 50.7772 37.5435 50.4981 38.1288C50.0604 39.0464 49.6115 39.9603 49.1961 40.8879C49.0572 41.1979 48.8898 41.3045 48.5426 41.3033C42.0013 41.2909 35.46 41.2934 28.92 41.2946C28.7352 41.2946 28.5467 41.2884 28.3657 41.3182C28.0098 41.3765 27.825 41.6158 27.8138 41.9618C27.8014 42.3077 27.9701 42.5632 28.3198 42.6426C28.5132 42.686 28.7178 42.6847 28.9187 42.6847C35.1971 42.6872 41.4755 42.686 47.7527 42.686C47.9188 42.686 48.085 42.686 48.2574 42.686C48.2797 42.8794 48.1854 42.9922 48.1284 43.1138C47.7018 44.0203 47.2542 44.9168 46.8511 45.8332C46.7023 46.1717 46.5089 46.2548 46.1555 46.2548C38.8106 46.2437 31.4658 46.2461 24.1197 46.2461C23.3968 46.2461 23.0669 46.452 23.0496 46.9133C23.031 47.3944 23.3893 47.6375 24.1185 47.6375C31.2165 47.6375 38.3134 47.6375 45.4114 47.6375C45.5789 47.6375 45.7463 47.6375 46.0166 47.6375C45.3643 48.5899 45.1696 49.6067 45.2068 50.6682C45.2217 51.0972 45.0679 51.1927 44.655 51.1915C37.867 51.1778 31.0777 51.1816 24.2896 51.1828C24.1048 51.1828 23.9126 51.1754 23.739 51.2225C23.3819 51.318 23.186 51.5759 23.2232 51.9454C23.2591 52.3075 23.4774 52.5345 23.8556 52.5679C24.0094 52.5816 24.1644 52.5741 24.3194 52.5741C31.0305 52.5741 37.7417 52.5741 44.4529 52.5741C44.5608 52.5741 44.6699 52.5828 44.7778 52.5717C44.9985 52.5481 45.0779 52.6237 45.0543 52.8581C45.0109 53.2884 44.9973 53.7224 44.9712 54.154C44.9179 55.0183 44.8621 55.8826 44.8137 56.7469C44.7877 57.2008 44.9377 57.5728 45.3742 57.7712C45.8058 57.9671 46.1852 57.8469 46.525 57.5468C46.5945 57.4848 46.6639 57.424 46.7321 57.3607C48.4322 55.7834 50.1298 54.2023 51.8324 52.6287C52.0519 52.4253 52.2218 52.1996 52.3495 51.9293C53.1506 50.2292 53.9591 48.5316 54.7676 46.8339C54.8346 46.6938 54.914 46.5586 55.0405 46.3218V46.7707C55.0405 51.6726 55.0405 56.5758 55.0405 61.4777C55.0405 62.0953 55.0132 62.1226 54.3733 62.1226C42.9462 62.1226 31.5191 62.1226 20.0908 62.1226C19.4274 62.1226 19.41 62.1052 19.41 61.4442C19.41 55.2589 19.41 49.0722 19.41 42.8868C19.41 42.748 19.4187 42.6078 19.4063 42.4689C19.3716 42.0684 19.0925 41.7993 18.7193 41.7968C18.3436 41.7944 18.0583 42.061 18.0224 42.4578C18.0112 42.5805 18.0187 42.7046 18.0187 42.8286C18.0187 49.0611 18.0187 55.2936 18.0187 61.5248C18.0187 62.8542 18.6784 63.5127 20.0114 63.5127C31.4856 63.5127 42.9586 63.5127 54.4328 63.5127C55.7696 63.5127 56.4318 62.8554 56.4318 61.5298C56.4318 55.6383 56.4343 49.7456 56.4268 43.8541C56.4268 43.5044 56.4913 43.1931 56.6426 42.8782C58.3316 39.3465 60.0156 35.8136 61.6946 32.2769C62.2762 31.0518 62.0344 29.653 60.9072 28.935L60.9034 28.9325ZM54.5891 23.2233C48.7931 23.2109 42.9971 23.2146 37.201 23.2146C31.405 23.2146 25.671 23.2109 19.906 23.2233C19.5142 23.2233 19.3852 23.1551 19.3939 22.7285C19.4249 21.1375 19.4162 19.5441 19.4001 17.9531C19.3964 17.529 19.5489 17.3851 19.9705 17.3851C31.4695 17.3926 42.9685 17.3926 54.4676 17.3851C54.9289 17.3851 55.0479 17.5662 55.0442 17.994C55.0268 19.5862 55.0256 21.1785 55.0467 22.7695C55.0516 23.1365 54.9512 23.2233 54.5903 23.2233H54.5891ZM46.8549 55.3395C46.6788 55.5031 46.5027 55.6656 46.2621 55.8888C46.2919 55.3171 46.3229 54.8472 46.339 54.3772C46.3464 54.1428 46.4258 54.1453 46.6217 54.2222C47.6299 54.6227 47.6324 54.6177 46.8561 55.3395H46.8549ZM50.2018 52.2368C49.7256 52.6746 49.2519 53.116 48.7819 53.56C48.6604 53.6753 48.5562 53.6046 48.4471 53.5538C47.8643 53.2785 47.2827 52.9982 46.6974 52.7279C46.5399 52.6547 46.4655 52.5679 46.4804 52.3795C46.5325 51.7086 46.5659 51.0377 46.6106 50.3086C47.8134 50.8802 48.9741 51.4321 50.136 51.9802C50.2737 52.0446 50.3493 52.0992 50.2005 52.2368H50.2018ZM60.3913 31.7722C60.1482 32.2869 59.8928 32.7978 59.6621 33.3173C59.5716 33.5195 59.486 33.548 59.2852 33.45C58.0104 32.8325 56.7331 32.2211 55.4472 31.6259C55.2029 31.5131 55.2227 31.4064 55.3219 31.2093C55.5985 30.6587 55.8639 30.1031 56.1218 29.5439C56.3574 29.033 56.779 28.837 57.1895 28.811C57.5615 28.8036 57.7983 28.8767 58.0228 28.9821C58.5945 29.25 59.1698 29.5104 59.7291 29.8018C60.5637 30.2371 60.7869 30.9327 60.39 31.771L60.3913 31.7722Z" fill="white"/>
<path d="M24.8986 35.1334C24.906 35.8539 25.2743 36.2272 25.9787 36.2346C26.6892 36.242 27.401 36.2408 28.1115 36.2346C28.987 36.2259 29.643 35.8229 29.9654 35.0193C30.304 34.1761 30.2407 33.3254 29.5649 32.657C29.2859 32.3818 29.276 32.1759 29.3615 31.8361C29.7162 30.4212 28.7725 29.2184 27.3167 29.1961C26.8839 29.1899 26.4511 29.1899 26.0183 29.1961C25.2855 29.2085 24.906 29.583 24.8986 30.3121C24.8911 31.1157 24.8973 31.9192 24.8961 32.7228C24.8948 33.5263 24.8899 34.3299 24.8986 35.1334ZM26.2874 31.3054C26.2874 30.8036 26.6214 30.5634 27.2894 30.5849C27.8412 30.6035 28.1004 30.9036 28.0309 31.448C27.9888 31.7816 27.7941 31.9874 27.468 32.0197C27.148 32.0507 26.8244 32.0259 26.502 32.0333C26.3432 32.037 26.2812 31.9663 26.2862 31.8126C26.2924 31.6439 26.2874 31.4753 26.2862 31.3066L26.2874 31.3054ZM27.3378 33.4222C27.5684 33.4222 27.8003 33.4172 28.0309 33.4234C28.5257 33.437 28.7452 33.6553 28.7489 34.124C28.7527 34.589 28.5208 34.8333 28.0471 34.842C27.5548 34.8507 27.0612 34.8346 26.5689 34.8482C26.3457 34.8544 26.2552 34.7788 26.2887 34.5593C26.2911 34.5444 26.2887 34.5283 26.2887 34.5134C26.268 33.7859 26.6181 33.4222 27.339 33.4222H27.3378Z" fill="#52D0B2"/>
<path d="M43.9309 34.3125C43.9743 35.4931 44.7345 36.2247 45.9113 36.2346C46.3899 36.2383 46.8686 36.242 47.3473 36.2284C48.6816 36.1887 49.3871 35.3256 49.3599 33.7793C49.3375 32.5492 48.601 31.8634 47.3039 31.8671C46.7161 31.8696 46.4048 32.1077 46.4023 32.5591C46.3999 33.0105 46.7049 33.2498 47.2952 33.2585C47.8619 33.2672 47.9536 33.3453 47.9673 33.8314C47.9896 34.5915 47.842 34.816 47.2753 34.8358C46.8128 34.8519 46.349 34.8333 45.8852 34.8445C45.4835 34.8544 45.3235 34.6312 45.321 34.2716C45.3136 33.2833 45.3074 32.2937 45.3235 31.3054C45.3322 30.7746 45.5405 30.5899 46.0712 30.5849C46.7359 30.5787 47.3993 30.5899 48.064 30.5812C48.5588 30.575 48.8291 30.3344 48.839 29.9153C48.849 29.4838 48.5613 29.2035 48.0578 29.1948C47.3324 29.1837 46.6057 29.175 45.8803 29.1985C44.8684 29.2308 44.1454 29.8855 43.9756 30.8863C43.8689 31.5162 43.9582 32.1511 43.9272 32.6583C43.9272 33.292 43.9123 33.8029 43.9309 34.3113V34.3125Z" fill="#52D0B2"/>
<path d="M37.475 33.9604C37.5804 35.3716 38.6679 36.2657 40.2143 36.2347C41.5796 36.2074 42.6386 35.2042 42.6832 33.8625C42.7093 33.0912 42.713 32.3174 42.6808 31.5473C42.625 30.1969 41.5449 29.2135 40.1374 29.1937C38.6692 29.1738 37.5817 30.0915 37.4763 31.4617C37.444 31.8759 37.4713 32.295 37.4713 32.7117C37.4713 33.1284 37.444 33.5475 37.475 33.9617V33.9604ZM38.8626 31.618C38.8924 30.9496 39.3587 30.5813 40.0866 30.5863C40.7946 30.5912 41.2584 30.9905 41.2931 31.649C41.3117 32.0024 41.2969 32.3571 41.2969 32.7117H41.2981C41.2981 33.0502 41.308 33.39 41.2956 33.7286C41.2721 34.4168 40.843 34.8297 40.1473 34.8434C39.345 34.8595 38.8862 34.5061 38.8589 33.7893C38.8304 33.0664 38.8304 32.3409 38.8614 31.618H38.8626Z" fill="#52D0B2"/>
<path d="M31.6567 35.439C31.6604 35.9747 31.9146 36.2301 32.4553 36.2339C33.5056 36.2413 34.5572 36.2413 35.6087 36.2339C36.1147 36.2301 36.4073 35.961 36.4024 35.532C36.3974 35.1067 36.101 34.85 35.5901 34.845C34.8635 34.8388 34.1368 34.8252 33.4114 34.8512C33.0914 34.8624 33.0381 34.7495 33.0406 34.4618C33.0542 32.9787 33.0505 31.4944 33.0443 30.01C33.0431 29.5165 32.7579 29.1941 32.3474 29.1953C31.9382 29.1953 31.6579 29.5177 31.6554 30.0113C31.6505 30.9227 31.6542 31.8354 31.6542 32.7468C31.6542 33.6434 31.6492 34.5399 31.6567 35.4365V35.439Z" fill="#52D0B2"/>
<path d="M39.3117 19.7889C39.1753 19.769 39.0339 19.774 38.895 19.774C34.0415 19.774 29.1891 19.774 24.3356 19.774C24.1967 19.774 24.0566 19.7715 23.9189 19.7901C23.5407 19.8422 23.3386 20.0877 23.3249 20.4473C23.3113 20.7884 23.4961 21.0388 23.8408 21.1219C24.0032 21.1604 24.1768 21.1628 24.3455 21.1628C26.7723 21.1653 29.1991 21.1641 31.6258 21.1641C34.0365 21.1641 36.4484 21.1641 38.8591 21.1641C39.0277 21.1641 39.2026 21.1678 39.365 21.1331C39.7296 21.0537 39.9268 20.8119 39.9106 20.4374C39.8945 20.0642 39.6825 19.8422 39.3117 19.7889Z" fill="#CECEF0"/>
<path d="M50.6332 19.7913C50.2624 19.8012 49.9623 20.1013 49.9561 20.4684C49.9499 20.8454 50.2773 21.1827 50.6518 21.1851C51.0325 21.1876 51.3425 20.8665 51.3388 20.4721C51.3351 20.0716 51.0325 19.7802 50.632 19.7913H50.6332Z" fill="#CECEF0"/>
<path d="M43.513 19.754C43.1323 19.749 42.8037 20.0739 42.8049 20.4534C42.8049 20.8154 43.1075 21.1304 43.4708 21.1465C43.8615 21.1639 44.1789 20.8663 44.1901 20.472C44.2 20.0751 43.9024 19.7589 43.513 19.754Z" fill="#CECEF0"/>
<path d="M47.0917 19.7716C46.7097 19.7654 46.4109 20.0456 46.3948 20.4251C46.3774 20.8269 46.6725 21.148 47.0656 21.1542C47.4476 21.1604 47.7824 20.8281 47.7762 20.4487C47.7712 20.0841 47.46 19.7778 47.0904 19.7716H47.0917Z" fill="#CECEF0"/>
</svg>
