<svg width="80" height="80" viewBox="0 0 80 80" fill="none" xmlns="http://www.w3.org/2000/svg">
<rect width="80" height="80" rx="5" fill="#2D2D43"/>
<path d="M68.9861 41.6556C68.9679 39.258 67.9178 37.4523 65.8101 36.2899C65.5582 36.1503 65.4762 36.0016 65.4611 35.7254C65.3822 34.1746 65.1667 32.6419 64.801 31.1306C61.3063 16.7148 46.1272 8.49475 32.147 13.4462C22.6932 16.7952 16.0878 25.6116 15.5506 35.6177C15.5309 35.9849 15.4156 36.1639 15.0908 36.346C13.411 37.2929 12.3776 38.7193 12.0984 40.645C11.8996 42.0183 12.0726 43.4037 12.0195 44.4568C12.0195 45.9181 11.9967 47.0547 12.024 48.1897C12.0832 50.6753 13.6325 52.7982 15.9558 53.6222C19.3761 54.8362 21.8495 52.5843 21.7206 49.601C21.5794 46.3142 21.6917 43.0167 21.6872 39.7239C21.6841 37.5585 20.6932 36.2671 18.5961 35.7072C18.3624 35.645 18.2501 35.5919 18.282 35.3035C18.3928 34.2884 18.5051 33.2732 18.7312 32.2777C21.408 20.5069 32.4778 13.0805 44.3715 15.0744C54.2866 16.736 62.0058 25.2565 62.716 35.3051C62.7357 35.5888 62.6371 35.648 62.4034 35.7102C60.3063 36.2732 59.3199 37.5585 59.3184 39.7299C59.3154 43.0987 59.3154 46.4674 59.3184 49.8362C59.3199 52.0243 60.3412 53.3506 62.4489 53.8787C62.7008 53.9424 62.7873 54.0092 62.7812 54.2732C62.76 55.1624 62.7888 56.0532 62.7585 56.9409C62.675 59.5069 60.6447 61.7603 58.1045 62.1063C56.5992 62.3111 55.0817 62.1457 53.5703 62.2079C53.2274 62.2216 53.1014 62.085 52.9588 61.7922C52.2759 60.3946 51.153 59.563 49.5901 59.4659C47.9664 59.3658 46.3351 59.3612 44.7115 59.4659C42.5036 59.6085 40.8526 61.4553 40.9102 63.6298C40.9694 65.8802 42.716 67.6283 44.9755 67.6662C46.3746 67.689 47.7752 67.6844 49.1758 67.6708C50.93 67.6541 52.2046 66.8362 52.974 65.2702C53.1227 64.9682 53.2866 64.9181 53.5734 64.9211C54.8602 64.9302 56.147 64.9469 57.4322 64.9166C61.408 64.8225 64.7509 61.9029 65.3867 57.9879C65.6067 56.6343 65.4641 55.2686 65.4899 53.909C65.496 53.5919 65.5749 53.4143 65.8708 53.2474C67.9284 52.0941 68.9603 50.3096 68.9846 47.9606C69.0074 45.8604 69.0028 43.7588 68.9846 41.6586L68.9861 41.6556ZM18.9603 39.5767C18.9694 41.3157 18.9634 43.0532 18.9634 44.7922C18.9634 46.4932 18.9664 48.1928 18.9634 49.8938C18.9603 50.912 18.5354 51.2914 17.5203 51.2034C16.0362 51.0744 14.7767 49.7406 14.7539 48.1791C14.7206 45.912 14.7175 43.6434 14.7539 41.3764C14.7813 39.7679 16.1075 38.4295 17.6447 38.3536C18.5263 38.3111 18.9558 38.6966 18.9603 39.5752V39.5767ZM49.2319 64.9409C48.5339 64.956 47.8359 64.9439 47.1363 64.9439C46.4383 64.9439 45.7388 64.956 45.0407 64.9409C44.2183 64.9227 43.6371 64.3339 43.6371 63.5494C43.6371 62.7876 44.1834 62.1912 44.9907 62.1746C46.4247 62.1457 47.8602 62.1457 49.2942 62.1746C50.1181 62.1912 50.6629 62.8149 50.6371 63.6131C50.6128 64.3673 50.0362 64.9242 49.2319 64.9409ZM66.2517 48.1943C66.2228 49.8073 64.9026 51.1336 63.3579 51.2125C62.4732 51.258 62.0498 50.8756 62.0438 49.9925C62.0347 48.2535 62.0407 46.516 62.0407 44.777C62.0407 43.0957 62.0377 41.4128 62.0407 39.7315C62.0423 38.6116 62.5992 38.167 63.7114 38.39C65.1439 38.6768 66.2289 39.9105 66.2517 41.3916C66.285 43.6586 66.2911 45.9272 66.2501 48.1943H66.2517Z" fill="white"/>
<path d="M42.238 48.5529C44.4899 48.5741 46.7418 48.562 48.9922 48.565C49.5233 48.565 50.0529 48.5331 50.5688 48.4102C53.3185 47.7607 55.0787 45.5255 55.0954 42.5938C55.1166 38.7896 55.1045 34.9853 55.0954 31.1826C55.0954 30.7319 55.059 30.2706 54.9619 29.8306C54.3503 27.0475 52.0817 25.257 49.147 25.2433C46.2714 25.2296 43.3943 25.2403 40.5188 25.2403C37.6811 25.2403 34.842 25.2403 32.0044 25.2403C31.493 25.2403 30.9831 25.257 30.4808 25.3708C27.6887 26.0051 25.9148 28.2736 25.9057 31.263C25.8936 35.0096 25.9012 38.7577 25.9057 42.5043C25.9057 42.996 25.9285 43.4876 26.0393 43.9702C26.6235 46.5438 28.5931 48.2645 31.3018 48.5271C31.6842 48.5635 31.8086 48.6576 31.7904 49.0521C31.7555 49.826 31.7813 50.6029 31.7798 51.3799C31.7783 52.697 32.3154 53.7107 33.5537 54.216C34.7661 54.7107 35.8359 54.3875 36.754 53.4588C38.2456 51.9535 39.7646 50.4755 41.2547 48.9671C41.5415 48.6773 41.8207 48.5468 42.238 48.5498V48.5529ZM39.8723 46.5013C38.2532 48.1447 36.6083 49.7638 34.9664 51.3859C34.8587 51.4937 34.7737 51.7258 34.5734 51.6257C34.4201 51.5483 34.5112 51.3495 34.5097 51.2084C34.5021 49.9216 34.5097 48.6363 34.5036 47.3495C34.4975 46.3601 33.9877 45.8624 33.0028 45.8366C32.3807 45.8214 31.757 45.8867 31.1364 45.7699C29.8132 45.518 28.7282 44.4937 28.6902 43.1598C28.5719 38.9823 28.5673 34.8002 28.6933 30.6227C28.7343 29.2509 29.9012 28.1826 31.2623 28.0111C31.5233 27.9777 31.7904 27.9686 32.0544 27.9686C34.8921 27.9656 37.7282 27.9671 40.5658 27.9671C43.4034 27.9671 46.2016 27.9671 49.0195 27.9671C51.1288 27.9671 52.3761 29.2023 52.3792 31.3055C52.3852 35.0324 52.3852 38.7592 52.3792 42.4861C52.3761 44.5847 51.1182 45.8351 49.0226 45.8381C46.5066 45.8412 43.9922 45.8548 41.4763 45.829C40.8192 45.823 40.3306 46.0384 39.8739 46.5028L39.8723 46.5013Z" fill="#CECEF0"/>
<path d="M33.8969 35.0997C32.821 35.0891 31.9029 35.9783 31.8756 37.0587C31.8483 38.1665 32.7345 39.1012 33.8422 39.1301C34.9424 39.1589 35.8726 38.2545 35.8862 37.1422C35.8999 36.0238 35.0107 35.1103 33.8984 35.0997H33.8969Z" fill="#52D0B2"/>
<path d="M42.5185 37.094C42.5033 35.9954 41.558 35.0758 40.4669 35.1001C39.3835 35.1244 38.4897 36.0288 38.4851 37.1061C38.4806 38.2002 39.4138 39.135 40.5079 39.1304C41.605 39.1259 42.5337 38.1851 42.5185 37.094Z" fill="#52D0B2"/>
<path d="M47.1152 39.1304C48.2108 39.1365 49.1349 38.2093 49.1303 37.1062C49.1273 36.0242 48.2396 35.1228 47.1546 35.1001C46.0514 35.0758 45.1288 35.9787 45.1197 37.094C45.1091 38.2109 46.0044 39.1244 47.1137 39.1304H47.1152Z" fill="#52D0B2"/>
</svg>
