<svg width="88" height="85" viewBox="0 0 88 85" fill="none" xmlns="http://www.w3.org/2000/svg">
<g clip-path="url(#clip0_4180_23662)">
<path d="M87.8715 4.74558C87.1768 1.81447 84.8191 0.00393288 81.6191 0.00393288C69.0976 -0.000825419 56.5785 0.00155373 44.0571 0.00155373C31.5071 0.00155373 18.957 -0.00320457 6.40703 0.00393288C2.52188 0.00631203 0.00473536 2.52107 0.00235621 6.39671C-2.29382e-05 24.9374 -2.29383e-05 43.4781 0.00473536 62.0212C0.00473536 62.5518 0.00949366 63.0966 0.121314 63.6129C0.766063 66.5963 3.12618 68.3974 6.39989 68.3997C14.2321 68.4092 22.0642 68.414 29.8988 68.3878C30.7386 68.3855 30.7576 68.5829 30.4103 69.2491C29.2873 71.3975 28.2 73.5649 27.1318 75.7442C26.9082 76.201 26.6607 76.3865 26.1349 76.3746C24.5338 76.3366 22.9302 76.3509 21.3291 76.3651C20.306 76.3746 19.8659 76.8029 19.854 77.8307C19.8349 79.4913 19.8349 81.1544 19.854 82.815C19.8659 83.8951 20.3013 84.3305 21.3743 84.3305C36.4462 84.3353 51.5181 84.3353 66.59 84.3305C67.7177 84.3305 68.1388 83.9046 68.1484 82.7603C68.1626 81.1282 68.165 79.4961 68.1484 77.8664C68.1365 76.791 67.7011 76.3746 66.6162 76.3651C65.103 76.3556 63.5899 76.3294 62.0768 76.3794C61.4344 76.4008 61.087 76.2319 60.7968 75.6228C59.7785 73.4864 58.6865 71.3879 57.623 69.2729C57.19 68.4093 57.1924 68.4069 58.1631 68.4069C65.9952 68.4069 73.8274 68.4164 81.6619 68.4021C85.5185 68.395 88 65.904 88.0024 62.0545C88.0071 43.4829 88.0047 24.9113 88.0024 6.33961C88.0024 5.80668 88.0024 5.27613 87.8763 4.74796L87.8715 4.74558ZM2.39102 6.52756C2.39102 4.44581 3.31413 3.08969 5.03426 2.58055C5.44347 2.45922 5.85507 2.46159 6.26666 2.46159C31.4238 2.46159 56.5809 2.45684 81.7381 2.46159C84.1339 2.46159 85.6042 3.93905 85.6042 6.35864C85.6113 22.2585 85.5994 38.1584 85.6327 54.0582C85.6327 54.9219 85.2188 54.841 84.6668 54.841C71.108 54.8362 57.5516 54.8386 43.9928 54.8386C30.4341 54.8386 16.9371 54.8291 3.4093 54.8624C2.52426 54.8624 2.36485 54.6173 2.36723 53.787C2.3934 38.0346 2.38626 22.2823 2.38864 6.53232L2.39102 6.52756ZM64.7842 78.8014C65.5812 78.8014 65.8192 78.9988 65.7288 79.7697C65.6502 80.4406 65.9405 81.3423 65.5979 81.742C65.1935 82.2155 64.268 81.8919 63.5709 81.8943C57.0449 81.9085 50.5212 81.9014 43.9952 81.9014C37.0552 81.9014 30.1129 81.8871 23.1729 81.9204C22.4187 81.9252 22.1832 81.7277 22.276 80.9973C22.3664 80.3002 21.9809 79.3391 22.4258 78.9608C22.8446 78.6039 23.7724 78.8228 24.4767 78.8228C37.9141 78.818 51.3492 78.8275 64.7866 78.799L64.7842 78.8014ZM58.3867 76.1915C58.3962 76.2129 58.3748 76.2485 58.3581 76.3223H29.5466C30.8361 73.7552 32.1018 71.2571 33.3438 68.7495C33.5626 68.3093 33.9243 68.4235 34.2597 68.4235C39.9816 68.4188 45.7058 68.4116 51.4277 68.4283C52.4531 68.4307 53.6784 68.0333 54.4492 68.602C55.1725 69.1396 55.4389 70.3007 55.891 71.1976C56.7284 72.8583 57.5564 74.526 58.3867 76.1915ZM85.647 58.2265C85.5709 59.5564 85.6422 60.8959 85.6208 62.2306C85.5875 64.4956 84.0625 66.0039 81.788 66.0039C56.6047 66.0087 31.419 66.0087 6.23573 66.0039C3.94699 66.0039 2.43147 64.5122 2.39578 62.2401C2.37199 60.8174 2.41719 59.3923 2.37675 57.9695C2.36247 57.42 2.51712 57.2582 3.06908 57.2725C4.57984 57.3081 6.09536 57.2843 7.60612 57.2843H44.0928C57.6182 57.2843 71.1461 57.2915 84.6716 57.2653C85.4424 57.2653 85.6898 57.4247 85.6446 58.2265H85.647Z" fill="#414141"/>
<path d="M22.088 37.4438C30.4056 37.4962 37.3289 30.6966 37.4026 22.4005C37.4788 13.9117 30.6554 7.00261 22.1309 6.93599C13.8181 6.87176 6.94 13.7261 6.88528 22.1316C6.83056 30.5443 13.6302 37.3915 22.088 37.4438ZM24.4077 9.56258C29.6585 10.4 34.3216 15.2368 34.8902 20.4686C34.9307 20.8326 34.9045 20.9968 34.4668 20.9944C31.0289 20.9777 27.5934 20.9754 24.1555 20.9944C23.6369 20.9968 23.6821 20.7137 23.6845 20.3782C23.6892 18.6604 23.6845 16.9403 23.6845 15.2226C23.6845 13.5334 23.7082 11.8442 23.6726 10.1574C23.6583 9.5483 23.8129 9.46503 24.4077 9.5602V9.56258ZM22.4711 23.8827C22.8327 23.5163 23.2015 23.364 23.7154 23.3735C25.4355 23.4021 27.1556 23.3854 28.8734 23.3854C30.6815 23.3854 32.4921 23.4021 34.3002 23.3759C34.8117 23.3688 34.9616 23.4901 34.8879 24.023C33.6103 33.316 22.8018 38.1219 15.0101 32.8449C13.918 32.105 14.0893 32.2906 14.8697 31.5055C17.3987 28.9598 19.9468 26.4355 22.4687 23.8851L22.4711 23.8827ZM19.6304 9.60302C20.7042 9.40476 21.2411 9.83459 21.2411 10.8925C21.2411 12.4628 21.2411 14.033 21.2411 15.6032C21.2411 17.4114 21.2244 19.2172 21.2506 21.0253C21.2577 21.5083 21.1126 21.8509 20.77 22.1887C18.1601 24.7725 15.5501 27.361 12.983 29.9876C12.4787 30.5039 12.2812 30.4087 11.8839 29.8995C6.17391 22.5408 10.4564 11.3017 19.628 9.60302H19.6304Z" fill="#414141"/>
<path d="M62.4313 50.3755C64.4179 50.3827 66.4045 50.3803 68.3934 50.3755C69.5283 50.3731 69.9613 49.9615 69.9613 48.8338C69.966 38.4536 69.966 28.0734 69.9613 17.6931C69.9613 16.6178 69.5211 16.1919 68.4434 16.1871C66.4853 16.1776 64.5273 16.1824 62.5716 16.1871C61.2584 16.1871 60.892 16.5511 60.892 17.8716C60.892 23.0034 60.892 28.1328 60.892 33.2647C60.892 38.4536 60.892 43.6449 60.892 48.8338C60.892 49.9925 61.2774 50.3731 62.4313 50.3779V50.3755ZM64.2109 18.6044C65.0364 18.6686 65.8739 18.6614 66.6995 18.6044C67.3442 18.5591 67.5441 18.7209 67.5369 19.4133C67.5012 24.0669 67.5179 28.7205 67.5179 33.3741C67.5179 38.0277 67.506 42.5624 67.5322 47.1565C67.5346 47.7585 67.418 47.9892 66.7685 47.9464C65.8525 47.8845 64.9294 47.8893 64.0134 47.9464C63.3877 47.9845 63.283 47.7347 63.2878 47.1827C63.3092 44.0398 63.2973 40.8994 63.2973 37.7565C63.2973 31.6802 63.3116 25.6038 63.2806 19.5275C63.2759 18.7875 63.4757 18.5473 64.2109 18.6044Z" fill="#2EAB8D"/>
<path d="M40.21 50.3769C42.1371 50.3817 44.0666 50.3793 45.9937 50.3769C47.3855 50.3769 47.7376 50.0319 47.7376 48.671C47.7376 45.8541 47.7376 43.0348 47.7376 40.2179C47.7376 37.3106 47.7424 34.4033 47.7352 31.496C47.7329 30.4587 47.3165 30.0375 46.2863 30.0304C44.2403 30.0185 42.1918 30.0185 40.1458 30.0304C39.0704 30.0352 38.6659 30.4539 38.6659 31.5578C38.6612 37.313 38.6612 43.0681 38.6659 48.8209C38.6659 49.9653 39.0751 50.3721 40.21 50.3769ZM41.1046 32.9734C41.1046 32.4738 41.2949 32.3881 41.7303 32.4C42.7057 32.4262 43.6859 32.4476 44.6614 32.3953C45.2562 32.3644 45.3323 32.6118 45.3275 33.1185C45.3061 35.4882 45.318 37.8554 45.318 40.2251C45.318 42.5638 45.3037 44.9049 45.3299 47.2436C45.3371 47.7741 45.2157 47.974 44.6495 47.9478C43.674 47.9002 42.6962 47.9145 41.7184 47.943C41.2759 47.9549 41.1022 47.8574 41.1046 47.3673C41.1236 42.5709 41.1236 37.7722 41.1046 32.9758V32.9734Z" fill="#2EAB8D"/>
<path d="M73.4681 50.3754C75.4856 50.3825 77.5031 50.3825 79.5183 50.3754C80.665 50.3706 81.0481 49.9852 81.0505 48.8218C81.0552 45.9454 81.0505 43.069 81.0505 40.1902C81.0505 37.3138 81.0552 34.4374 81.0505 31.5587C81.0481 30.4333 80.6698 30.0336 79.5849 30.0265C77.5388 30.0146 75.4904 30.0146 73.4443 30.0265C72.4118 30.0336 71.9835 30.4524 71.9811 31.4873C71.9716 37.2996 71.9716 43.1142 71.9811 48.9265C71.9811 49.9447 72.4356 50.3659 73.4657 50.3682L73.4681 50.3754ZM74.4103 32.9671C74.4103 32.4604 74.6077 32.389 75.0383 32.4009C76.0162 32.4271 76.9964 32.4437 77.9718 32.3961C78.55 32.3676 78.6594 32.5865 78.6547 33.1099C78.6309 35.4795 78.6451 37.8515 78.6451 40.2212C78.6451 42.5908 78.6285 44.9033 78.657 47.2444C78.6642 47.7892 78.5143 47.97 77.9599 47.9463C76.9845 47.9034 76.0043 47.9153 75.0265 47.9439C74.5887 47.9558 74.4102 47.8654 74.4126 47.3705C74.4317 42.5694 74.4317 37.7706 74.4126 32.9695L74.4103 32.9671Z" fill="#2EAB8D"/>
<path d="M51.2136 50.366C53.2573 50.3778 55.3034 50.3755 57.3471 50.366C58.4248 50.3612 58.8222 49.9591 58.8293 48.8504C58.8412 47.3682 58.8317 45.8884 58.8317 44.4062C58.8317 42.8359 58.846 41.2657 58.8269 39.6955C58.815 38.7224 58.382 38.2941 57.3994 38.287C55.3557 38.2704 53.3097 38.2727 51.266 38.287C50.2334 38.2941 49.7743 38.72 49.7695 39.7312C49.7528 42.8122 49.7505 45.8931 49.7695 48.9765C49.7766 49.952 50.2263 50.3636 51.2113 50.3683L51.2136 50.366ZM52.8005 40.7161C53.8045 40.7589 54.8133 40.7566 55.8197 40.7161C56.336 40.6971 56.4597 40.8755 56.4525 41.368C56.4264 43.3498 56.4311 45.3341 56.4525 47.3159C56.4573 47.756 56.3645 47.9535 55.8744 47.9392C54.8395 47.9059 53.8022 47.9035 52.7672 47.9392C52.2747 47.9559 52.1796 47.7703 52.1915 47.3254C52.22 46.2905 52.201 45.2532 52.201 44.2182C52.201 43.2713 52.2224 42.3244 52.1915 41.3775C52.1772 40.9088 52.2652 40.69 52.8053 40.7137L52.8005 40.7161Z" fill="#2EAB8D"/>
<path d="M31.569 43.1124C31.4215 43.1005 31.2716 43.1076 31.1241 43.1076C23.625 43.1076 16.1259 43.1076 8.62445 43.1124C8.30326 43.1124 7.96304 43.129 7.66327 43.2313C6.94715 43.4787 6.66403 44.3662 7.078 44.9895C7.41346 45.4963 7.92974 45.5557 8.48884 45.5557C12.2527 45.5462 16.0188 45.551 19.7827 45.551C20.7605 45.551 21.7383 45.551 22.7162 45.551C25.6496 45.551 28.5855 45.5581 31.519 45.5462C32.347 45.5415 32.8918 45.0466 32.9108 44.3566C32.9298 43.6691 32.3993 43.1742 31.5666 43.1124H31.569Z" fill="#414141"/>
<path d="M22.0666 47.935C17.5296 47.9279 12.9902 47.9279 8.45312 47.935C7.45149 47.935 6.90905 48.3728 6.89239 49.1318C6.87574 49.9264 7.43008 50.3618 8.48642 50.3642C10.7395 50.3689 12.9949 50.3642 15.248 50.3642C17.501 50.3642 19.7565 50.3642 22.0095 50.3642C23.0587 50.3642 23.6487 49.9407 23.6725 49.1793C23.6987 48.4109 23.1087 47.935 22.0642 47.9327L22.0666 47.935Z" fill="#414141"/>
<path d="M43.9381 60.29C43.1982 60.3162 42.5987 60.9372 42.6106 61.6652C42.6225 62.4265 43.2863 63.0451 44.0595 63.0118C44.7923 62.9832 45.3966 62.3551 45.3871 61.6319C45.3775 60.8682 44.7233 60.2615 43.9381 60.29Z" fill="#414141"/>
</g>
<defs>
<clipPath id="clip0_4180_23662">
<rect width="88" height="84.3313" fill="white"/>
</clipPath>
</defs>
</svg>
