<svg width="35" height="78" viewBox="0 0 35 78" fill="none" xmlns="http://www.w3.org/2000/svg">
<g clip-path="url(#clip0_4156_26220)">
<path d="M22.421 77.0486C26.8809 68.8643 31.288 60.6168 34.9186 52.0156C35.3404 51.0145 34.0285 50.1935 33.4389 51.1622C30.4954 55.9909 27.6686 60.8959 24.8115 65.7815C26.9911 56.5166 26.9064 46.8883 24.9074 37.4515C23.6786 31.6524 21.6571 26.001 19.0045 20.718C16.3056 15.3424 12.8316 9.54171 8.22793 5.62808C6.71786 4.34464 3.82876 6.07754 5.21738 7.95647C8.55871 12.4721 12.1413 16.608 14.8578 21.5812C17.6782 26.7425 19.7556 32.2658 21.1506 37.9934C23.5491 47.8456 23.6913 58.3209 21.793 68.3062C21.3967 65.762 20.8981 63.234 20.3213 60.732C19.3145 56.3738 18.4453 50.1805 15.4091 46.778C14.5558 45.8223 12.9914 46.5979 12.9755 47.8018C12.9451 50.0426 13.9166 52.0838 14.575 54.1931C15.2973 56.5085 15.9397 58.8515 16.4989 61.2123C17.6655 66.1287 18.3845 71.1003 18.9598 76.1205C19.1595 77.8566 21.4462 78.8399 22.4226 77.0486H22.421Z" fill="#2EAB8D"/>
<path d="M3.38325 3.42953C4.11831 2.68314 4.17584 1.31208 3.38325 0.577054C2.58747 -0.161214 1.36184 -0.222871 0.574046 0.577054C-0.161013 1.32343 -0.218539 2.6945 0.574046 3.42953C1.36983 4.16779 2.59546 4.22945 3.38325 3.42953Z" fill="#2EAB8D"/>
</g>
<defs>
<clipPath id="clip0_4156_26220">
<rect width="35" height="78" fill="white"/>
</clipPath>
</defs>
</svg>
