<svg width="88" height="88" viewBox="0 0 88 88" fill="none" xmlns="http://www.w3.org/2000/svg">
<g clip-path="url(#clip0_4180_23645)">
<path d="M86.9009 53.2396C83.0923 49.3816 79.2541 45.5557 75.4035 41.7397C74.2007 40.5468 72.6446 40.3269 71.1602 41.1272C70.6959 41.3767 70.4884 41.2828 70.1723 40.9568C69.167 39.9169 68.147 38.887 67.0997 37.8892C66.6996 37.5088 66.628 37.247 66.9639 36.7431C70.2439 31.8478 71.4986 26.4634 70.8144 20.6073C69.5202 9.48286 60.0062 0.593697 48.7632 0.0305604C35.3689 -0.638782 24.1605 9.76937 23.8987 23.1488C23.8839 23.8626 23.6814 24.0009 23.012 23.996C17.4992 23.9688 11.9864 23.9762 6.4736 23.9812C2.44273 23.9886 0 26.4535 0 30.4992C0 47.4995 0 64.4998 0 81.5001C0 85.4545 2.50448 87.9688 6.44643 87.9688C12.4508 87.9713 18.4576 87.9688 24.4619 87.9688C30.4662 87.9688 36.4112 87.9688 42.3859 87.9663C42.8774 87.9663 43.3764 87.9688 43.858 87.8848C46.9799 87.3266 48.9386 84.9086 48.941 81.594C48.9484 70.3831 48.9484 59.1747 48.9287 47.9639C48.9287 47.3266 49.0448 47.0698 49.7437 47.008C53.7771 46.6524 57.4572 45.284 60.7891 42.9944C61.1374 42.7549 61.3276 42.7672 61.6215 43.0735C62.691 44.1825 63.7777 45.2742 64.8867 46.3387C65.2152 46.6548 65.2226 46.8672 65.0151 47.2674C64.2099 48.8209 64.4446 50.3449 65.6746 51.5798C69.4535 55.3785 73.2424 59.1698 77.0411 62.9463C78.5798 64.4776 80.6743 64.5097 82.2377 63.0105C83.816 61.4989 85.3597 59.9478 86.8787 58.3745C88.3507 56.8481 88.3779 54.7413 86.896 53.2396H86.9009ZM26.0624 33.4433C27.6061 36.8271 29.8709 39.6576 32.941 42.1547H20.3297C16.8818 42.1547 13.4313 42.125 9.9858 42.1769C9.18555 42.1893 9.03983 41.9472 9.05465 41.2062C9.10404 38.7437 9.09169 36.2813 9.05959 33.8163C9.05218 33.226 9.19296 33.0432 9.81044 33.0457C14.9528 33.0704 20.0951 33.0605 25.2349 33.058C25.5733 33.058 25.8747 33.0259 26.0648 33.4409L26.0624 33.4433ZM45.9846 81.6829C45.9846 83.7601 44.715 85.0123 42.6403 85.0123C30.5403 85.0173 18.4378 85.0148 6.33776 85.0123C4.18895 85.0123 2.95894 83.7823 2.95894 81.6385C2.95894 64.5196 2.95894 47.3983 2.95894 30.2794C2.95894 28.1652 4.15684 26.945 6.26613 26.9426C11.9617 26.9327 17.6598 26.95 23.3554 26.9253C23.9802 26.9228 24.1976 27.0957 24.2593 27.7255C24.3334 28.4813 24.5705 29.2223 24.7681 30.104C21.0361 30.104 17.3757 30.104 13.7129 30.104C11.774 30.104 9.83266 30.0966 7.89379 30.1065C6.63415 30.1114 6.12041 30.6326 6.11794 31.9169C6.11053 35.6737 6.113 39.4304 6.11794 43.1871C6.11794 44.6246 6.60945 45.1111 8.06916 45.1111C17.7067 45.1136 27.3442 45.1161 36.9818 45.1062C37.577 45.1062 38.1179 45.2149 38.6737 45.4421C40.7607 46.2992 42.9342 46.8401 45.1843 47.0204C45.7623 47.0673 46.0093 47.213 46.0068 47.8774C45.9821 59.1476 45.9944 70.4152 45.987 81.6854L45.9846 81.6829ZM47.7357 44.1775C36.2211 44.264 26.9194 35.15 26.8256 23.6971C26.7342 12.422 35.9617 3.03396 47.2047 2.95986C58.7589 2.88329 67.9543 11.9898 68.0358 23.586C68.1149 34.7672 58.9194 44.096 47.7332 44.1775H47.7357ZM67.0157 44.3183C66.0377 43.2982 65.0127 42.3202 64.0272 41.305C63.8642 41.1371 63.4566 41.016 63.6839 40.6727C63.9333 40.2924 64.2569 39.9614 64.5705 39.581C64.8274 39.8083 64.941 39.8997 65.0448 40.0034C66.0895 41.0457 67.1145 42.1102 68.1865 43.1229C68.6854 43.5946 68.2655 43.807 67.9938 44.0244C67.7271 44.2368 67.5715 44.8987 67.0133 44.3158L67.0157 44.3183ZM84.6212 56.4776C83.1936 57.878 81.7833 59.2933 80.3828 60.7184C79.8913 61.2198 79.4789 61.2223 78.9799 60.7209C75.3121 57.0383 71.6369 53.3606 67.9543 49.6953C67.4677 49.2112 67.4011 48.7962 67.9173 48.2899C69.3424 46.887 70.7478 45.4668 72.1605 44.0516C72.3581 43.854 72.5607 43.6662 72.8496 43.6391C73.1609 43.6588 73.3535 43.8589 73.5511 44.054C77.2263 47.7292 80.899 51.4069 84.5841 55.0747C85.0682 55.5563 85.1448 55.9639 84.6236 56.4751L84.6212 56.4776Z" fill="white"/>
<path d="M40.9756 60.5193C39.222 60.502 37.4684 60.5069 35.7172 60.5168C34.2007 60.5242 33.7364 60.9885 33.7339 62.5051C33.7265 65.3973 33.7339 68.2871 33.7339 71.1793C33.7339 74.1012 33.7265 77.0231 33.7364 79.945C33.7413 81.3405 34.2501 81.8493 35.6135 81.8542C37.3967 81.8616 39.1825 81.8616 40.9657 81.8542C42.2822 81.8468 42.8206 81.3257 42.8231 80.0043C42.833 74.1309 42.8305 68.255 42.8231 62.3816C42.8231 61.0552 42.302 60.5316 40.9806 60.5193H40.9756ZM39.1183 78.9076C38.3353 78.8187 37.3226 79.2337 36.8213 78.7348C36.3594 78.2729 36.6928 77.2701 36.6904 76.5069C36.678 72.4489 36.7002 68.3908 36.6681 64.3353C36.6632 63.6634 36.8064 63.4411 37.5202 63.4486C39.8642 63.4733 39.8642 63.4436 39.8642 65.7801V71.2213C39.8642 73.5257 39.8469 75.8326 39.8765 78.137C39.8839 78.7273 39.7431 78.9793 39.1158 78.9076H39.1183Z" fill="white"/>
<path d="M15.1825 62.1574C15.1627 61.1028 14.6613 60.5495 13.6067 60.5297C11.6406 60.4927 9.67459 60.4927 7.70855 60.5297C6.66132 60.5495 6.13029 61.12 6.12041 62.1623C6.10065 64.0987 6.10065 66.0327 6.12041 67.9691C6.13029 68.9644 6.66379 69.5745 7.62211 69.5943C9.64989 69.6362 11.6777 69.6338 13.7055 69.5943C14.644 69.5745 15.1553 68.9965 15.18 68.0555C15.2047 67.0725 15.1849 66.0895 15.1874 65.1065C15.1874 64.1234 15.2022 63.1404 15.1849 62.1574H15.1825ZM10.6329 66.6576C9.59062 66.6576 9.06947 66.1208 9.06947 65.0472C9.06947 63.9736 9.60214 63.4475 10.6675 63.4689C11.7328 63.4903 12.254 64.0271 12.2309 65.0793C12.2079 66.1315 11.6752 66.6576 10.6329 66.6576Z" fill="white"/>
<path d="M19.9395 67.8389C19.9519 69.064 20.4508 69.5925 21.6635 69.6073C23.5382 69.6271 25.4128 69.6271 27.2875 69.6073C28.4385 69.595 28.9967 69.0368 29.0065 67.913C29.0238 66.0087 29.0238 64.1019 29.0065 62.1976C28.9967 61.1405 28.4879 60.5576 27.453 60.5354C25.4573 60.4934 23.4591 60.4934 21.461 60.5354C20.4533 60.5576 19.9642 61.1183 19.9445 62.1235C19.9247 63.0769 19.9395 64.0278 19.9395 64.9812C19.9395 65.9346 19.9321 66.8855 19.9395 67.8389ZM24.494 63.4696C25.5347 63.4696 26.055 63.999 26.055 65.0578C26.055 66.1165 25.5083 66.65 24.415 66.6583C23.4023 66.6583 22.896 66.1133 22.896 65.0232C22.896 63.9875 23.4295 63.4696 24.4965 63.4696H24.494Z" fill="white"/>
<path d="M13.6758 72.7908C12.6928 72.7637 11.7098 72.7859 10.7268 72.7859C9.71166 72.7859 8.699 72.7661 7.68634 72.7908C6.69591 72.8155 6.13771 73.349 6.12536 74.3395C6.0982 76.3352 6.09573 78.3333 6.12783 80.3314C6.14265 81.2428 6.73543 81.8331 7.64682 81.8455C9.67461 81.8751 11.7024 81.8776 13.7302 81.843C14.6095 81.8282 15.1627 81.2502 15.1751 80.371C15.2022 78.3432 15.2022 76.3154 15.18 74.2876C15.1701 73.3466 14.6243 72.818 13.6783 72.7908H13.6758ZM10.6552 78.9014C9.59804 78.9014 9.06948 78.3522 9.06948 77.254C9.06948 76.2446 9.58075 75.7399 10.6033 75.7399C11.6884 75.7399 12.231 76.2726 12.231 77.3379C12.231 78.4033 11.7065 78.9253 10.6576 78.9038L10.6552 78.9014Z" fill="white"/>
<path d="M7.63692 57.3289C9.6326 57.3536 11.6307 57.3512 13.6289 57.3314C14.6391 57.3215 15.1553 56.7954 15.18 55.7951C15.2047 54.8121 15.1849 53.8291 15.1849 52.8461C15.1849 51.8631 15.2022 50.88 15.18 49.897C15.1578 48.8498 14.6317 48.294 13.5918 48.2792C11.6258 48.2545 9.65977 48.2521 7.69373 48.2792C6.72553 48.2916 6.13769 48.8769 6.12288 49.8377C6.09571 51.8334 6.09324 53.8316 6.12288 55.8297C6.13769 56.7683 6.7033 57.3166 7.63445 57.3289H7.63692ZM10.749 51.2258C11.737 51.2258 12.2309 51.7256 12.2309 52.725C12.2309 53.8299 11.6727 54.3823 10.5563 54.3823C9.56674 54.3823 9.07193 53.8875 9.07193 52.8979C9.07193 51.7848 9.63178 51.2283 10.7515 51.2283L10.749 51.2258Z" fill="white"/>
<path d="M27.4455 72.7908C26.4625 72.7661 25.4795 72.7859 24.4965 72.7859C23.4813 72.7859 22.4687 72.7637 21.4535 72.7908C20.5076 72.8155 19.9593 73.3466 19.9494 74.2851C19.9247 76.2833 19.9271 78.279 19.9494 80.2771C19.9593 81.2577 20.5125 81.8331 21.4906 81.848C23.4566 81.8751 25.4251 81.8727 27.3912 81.848C28.4112 81.8356 28.9941 81.2552 29.0065 80.2401C29.0287 78.274 29.0312 76.3055 29.0065 74.3395C28.9941 73.354 28.4359 72.8131 27.448 72.7884L27.4455 72.7908ZM24.3828 78.9014C23.3916 78.9014 22.896 78.4115 22.896 77.4318V77.3404C22.896 76.2734 23.4377 75.7399 24.5212 75.7399C25.5437 75.7399 26.055 76.2429 26.055 77.249C26.055 78.3506 25.4976 78.9014 24.3828 78.9014Z" fill="white"/>
<path d="M27.5146 48.2837C25.4868 48.2492 23.459 48.2492 21.4313 48.2837C20.505 48.2986 19.9715 48.8839 19.9493 49.8151C19.9246 50.7981 19.9444 51.7811 19.9444 52.7641C19.9444 53.7793 19.9246 54.7919 19.9493 55.8071C19.9715 56.7604 20.4902 57.3186 21.4238 57.3285C23.4516 57.3557 25.4794 57.3532 27.5072 57.3285C28.4359 57.3162 28.9941 56.7604 29.0064 55.8169C29.0336 53.8213 29.0311 51.8231 29.0064 49.825C28.9941 48.9037 28.426 48.2986 27.5196 48.2813L27.5146 48.2837ZM24.5334 54.3819C23.4417 54.3819 22.8959 53.8468 22.8959 52.7765C22.8959 51.7441 23.4039 51.2279 24.4198 51.2279C25.5099 51.2279 26.0549 51.7671 26.0549 52.8456C26.0549 53.8698 25.5477 54.3819 24.5334 54.3819Z" fill="white"/>
<path d="M41.2818 48.281C39.2862 48.2489 37.288 48.2513 35.2923 48.281C34.3365 48.2933 33.7709 48.8169 33.7511 49.758C33.7091 51.7833 33.7091 53.8135 33.7437 55.8389C33.761 56.8244 34.3291 57.3159 35.3467 57.3356C36.2976 57.3554 37.251 57.3406 38.2043 57.3406C39.217 57.3406 40.2321 57.3579 41.2448 57.3356C42.208 57.3134 42.7786 56.8293 42.8008 55.8809C42.8477 53.8555 42.8453 51.8253 42.8033 49.8C42.7835 48.8639 42.2056 48.3007 41.2818 48.2859V48.281ZM38.2933 54.3816C37.218 54.3816 36.6804 53.8325 36.6804 52.7342C36.6804 51.7281 37.2345 51.2251 38.3427 51.2251C39.3586 51.2251 39.8666 51.7446 39.8666 52.7836C39.8666 53.849 39.3421 54.3816 38.2933 54.3816Z" fill="white"/>
<path d="M47.5135 4.99857C37.3696 4.92201 28.9497 13.2258 28.8707 23.3845C28.7916 33.5827 37.0609 42.0668 47.1529 42.1384C57.6104 42.2101 65.9414 34.0223 66.0007 23.6117C66.0599 13.3962 57.7981 5.07761 47.5159 4.99857H47.5135ZM47.2195 39.182C38.6885 39.1227 31.7382 31.9699 31.8296 23.3425C31.9185 14.8559 39.0022 7.9007 47.4962 7.95504C56.1853 8.01185 63.101 15.019 63.0442 23.7056C62.9874 32.3601 55.9506 39.2412 47.222 39.1795L47.2195 39.182Z" fill="#1F725E"/>
<path d="M48.158 17.203C49.5708 17.4475 50.4155 18.2922 50.623 19.6754C50.7663 20.6238 51.3763 21.1548 52.2359 21.0733C53.0262 20.9968 53.5671 20.3472 53.5696 19.4704C53.5745 17.4969 52.1148 15.4593 49.9438 14.6911C49.1263 14.4021 48.8842 14.0514 48.9237 13.2215C48.9953 11.7272 48.4742 10.9986 47.4862 10.9714C46.4588 10.9443 45.9426 11.6605 46.0068 13.2413C46.0389 14.0317 45.8388 14.3799 45.0361 14.6541C42.7761 15.4247 41.3708 17.4031 41.3584 19.5667C41.3461 21.802 42.7416 23.6964 45.0287 24.5954C45.9351 24.9511 46.8836 25.0128 47.8345 25.0844C48.7014 25.1487 49.4473 25.4673 50.0278 26.1193C50.8083 26.9986 50.8107 28.1027 50.008 28.9523C49.0151 29.9995 47.7579 30.1971 46.4365 29.8513C45.2238 29.5327 44.3939 28.8165 44.2729 27.4259C44.1939 26.4923 43.4455 25.9588 42.6181 26.0675C41.8277 26.1712 41.3288 26.801 41.3658 27.7223C41.4424 29.7649 42.4773 31.3012 44.2655 32.099C45.5696 32.6794 46.2661 33.2722 46.0315 34.7961C45.9055 35.6013 46.5724 36.1002 47.3603 36.157C48.1605 36.2138 48.7162 35.7643 48.8842 34.969C48.9731 34.554 48.9756 34.107 48.9336 33.6822C48.8669 33.0326 49.0941 32.7535 49.7388 32.5287C52.5866 31.5408 54.0833 28.9078 53.3967 26.2453C52.8434 24.099 50.6675 22.3848 48.2149 22.1551C47.3306 22.0736 46.4267 22.1008 45.619 21.6291C44.4458 20.9449 43.9864 19.705 44.5421 18.6652C45.1324 17.5587 46.6539 16.9437 48.1605 17.203H48.158Z" fill="#1F725E"/>
</g>
<defs>
<clipPath id="clip0_4180_23645">
<rect width="88" height="87.9704" fill="white"/>
</clipPath>
</defs>
</svg>
