<svg width="32" height="32" viewBox="0 0 32 32" fill="none" xmlns="http://www.w3.org/2000/svg">
<rect width="32" height="32" rx="16" fill="#2EAB8D"/>
<path d="M13.2679 27C13.2645 26.9218 13.2576 26.8437 13.2576 26.7655C13.2576 23.5791 13.2559 20.3926 13.2611 17.2079C13.2611 17.0107 13.2149 16.9592 13.0252 16.961C12.0818 16.9716 11.1383 16.961 10.1949 16.9699C10.0479 16.9699 9.99833 16.9432 10 16.7745C10.0086 15.6004 10.0086 14.4263 10 13.2523C10 13.0924 10.0342 13.048 10.1915 13.0498C11.1417 13.0587 12.092 13.0498 13.0423 13.0587C13.2098 13.0587 13.2628 13.0214 13.2611 12.8384C13.2559 11.8082 13.2371 10.7763 13.2747 9.74609C13.3192 8.50631 13.6661 7.36955 14.5036 6.4406C15.1428 5.73367 15.941 5.33403 16.8451 5.13332C17.5869 4.96814 18.3372 4.99123 19.0875 5.02142C19.6652 5.04451 20.2411 5.10135 20.8188 5.13332C20.9607 5.14043 21 5.18838 21 5.33581C20.9932 6.38909 20.9932 7.44059 21 8.49387C21 8.63064 20.9624 8.65551 20.8393 8.65728C20.0822 8.66616 19.3251 8.62176 18.5679 8.68748C17.6655 8.76563 17.175 9.28428 17.1562 10.2274C17.1391 11.1155 17.151 12.0036 17.1391 12.8899C17.1374 13.0498 17.2023 13.0551 17.3202 13.0551C18.4295 13.0516 19.5387 13.0569 20.6479 13.048C20.824 13.048 20.8633 13.0853 20.8393 13.27C20.6889 14.4317 20.5454 15.5951 20.4086 16.7603C20.3881 16.9326 20.3249 16.9716 20.1625 16.9699C19.2191 16.961 18.2756 16.9681 17.3322 16.9627C17.2006 16.9627 17.1391 16.977 17.1391 17.1421C17.1442 20.3926 17.1425 23.643 17.1425 26.8934C17.1425 26.929 17.1493 26.9645 17.1527 27H13.2679Z" fill="white"/>
</svg>
