<svg width="80" height="80" viewBox="0 0 80 80" fill="none" xmlns="http://www.w3.org/2000/svg">
<rect width="80" height="80" rx="5" fill="#2D2D43"/>
<path d="M67.2687 14.8415C66.2028 13.2076 64.7776 12.1416 62.7698 12H23.8732C23.0978 12.1168 22.3458 12.292 21.6741 12.7301C19.7408 13.9859 18.7114 15.7556 18.6953 18.0627C18.6705 21.5584 18.6895 25.0541 18.6895 28.5484C18.6895 28.7309 18.6866 28.912 18.6851 29.0945C18.6822 29.3836 18.5479 29.5326 18.2544 29.5355C18.1083 29.5355 17.9638 29.5399 17.8178 29.5442C14.7645 29.6464 11.9638 32.2894 12.0004 35.5354C12.0675 41.4872 12.0179 47.4418 12.0223 53.395C12.0223 53.9382 12.0281 54.4873 12.2048 55.0129C12.9378 57.2062 14.4228 58.5919 16.6628 59.1774C17.3782 59.3643 18.1025 59.3643 18.8311 59.3629C19.5291 59.3629 19.5598 59.395 19.5612 60.1105C19.5642 61.9678 19.5612 63.8238 19.5612 65.6811C19.5612 65.8636 19.5583 66.0447 19.5642 66.2272C19.6065 67.3808 20.2534 67.9882 21.3996 67.9999C22.0567 68.0058 22.5371 67.705 22.9781 67.2625C25.3553 64.8766 27.7529 62.511 30.1097 60.1061C30.6354 59.5702 31.1712 59.3424 31.9276 59.3453C38.9366 59.3702 45.9455 59.3629 52.9544 59.3585C55.7507 59.357 58.0636 57.6647 58.9237 55.0086C59.1267 54.3792 59.2143 53.7353 59.2143 53.0738C59.2114 49.5051 59.2114 45.9378 59.2143 42.3691C59.2143 41.6974 59.2508 41.6653 59.9283 41.6609C60.5109 41.6565 61.095 41.6346 61.6762 41.6638C64.7338 41.8215 67.7389 39.5115 68.0134 36.4743V17.1355C67.9214 16.3207 67.7228 15.5395 67.2687 14.8415ZM55.7755 53.0227C55.7741 54.7705 54.6234 55.9197 52.8624 55.9212C45.3979 55.9256 37.9319 55.9285 30.4674 55.9139C29.7403 55.9124 29.1825 56.1402 28.6758 56.6542C26.8257 58.5335 24.9537 60.3894 22.9985 62.346C22.9985 60.7238 23.0015 59.2344 22.9985 57.745C22.9956 56.5841 22.3327 55.9256 21.1718 55.9226C20.1701 55.9212 19.1684 55.9314 18.1682 55.9197C16.5197 55.9022 15.3559 54.7355 15.3544 53.0884C15.35 47.3528 15.3515 41.6186 15.3544 35.8829C15.3544 34.0168 16.7139 32.8107 18.5829 32.9669C18.9202 32.9947 18.8414 33.1816 18.8487 33.367C18.8866 34.4023 18.7771 35.439 18.9407 36.4729C19.3787 39.2385 21.7822 41.3966 24.5872 41.4857C25.8065 41.5237 27.0272 41.512 28.2465 41.4915C28.6057 41.4857 28.6948 41.585 28.6918 41.9398C28.6743 44.0878 28.6933 46.2372 28.6772 48.3851C28.6714 49.1736 28.9503 49.7708 29.6775 50.1067C30.3506 50.4177 31.0004 50.2425 31.6458 49.5985C34.2362 47.0125 36.8251 44.428 39.4053 41.8318C39.6404 41.5952 39.8682 41.4915 40.2084 41.493C45.2329 41.5047 50.2589 41.5061 55.2834 41.4915C55.685 41.4915 55.7916 41.5762 55.7901 41.9909C55.7711 45.6692 55.7814 49.3459 55.7784 53.0242L55.7755 53.0227ZM61.8105 38.2222C54.365 38.2236 46.9194 38.2295 39.4739 38.2119C38.7044 38.2105 38.1232 38.4573 37.5903 38.999C35.7577 40.8666 33.8989 42.7079 31.9583 44.6529C31.9583 43.0189 31.9612 41.5295 31.9583 40.0387C31.9554 38.8836 31.2895 38.2251 30.1214 38.2236C28.41 38.2207 26.6987 38.2265 24.9873 38.2222C23.2993 38.2178 22.1283 37.0599 22.1268 35.385C22.1224 29.6318 22.1224 23.8801 22.1268 18.127C22.1268 16.4448 23.292 15.2796 24.9756 15.2796C37.2822 15.2767 49.5872 15.2767 61.8937 15.2796C63.573 15.2796 64.7338 16.4478 64.7353 18.1343C64.7396 23.8685 64.7382 29.6026 64.7353 35.3368C64.7353 37.0788 63.5744 38.2207 61.8105 38.2207V38.2222Z" fill="white"/>
<path d="M60.4731 31.2221C60.1723 30.9724 60.1533 30.7723 60.3606 30.4175C63.1993 25.5171 59.6481 19.3857 53.9825 19.3828C48.9288 19.3799 45.3688 24.3577 47.0101 29.1325C48.536 33.5759 53.746 35.4873 57.7673 33.0575C58.1412 32.8312 58.3237 32.8911 58.5719 33.1714C58.7749 33.4021 58.9983 33.6241 59.2451 33.8066C59.7897 34.2111 60.5183 34.1468 60.9915 33.681C61.4719 33.2079 61.5361 32.434 61.1141 31.8894C60.9257 31.6455 60.7096 31.4163 60.4731 31.2206V31.2221ZM58.0784 28.9237C57.7644 28.5704 57.5279 28.271 57.2577 28.0038C56.6167 27.3701 55.7917 27.3394 55.2251 27.9089C54.6542 28.4813 54.698 29.2756 55.3376 29.9429C55.5391 30.1532 55.7391 30.3664 55.9567 30.5577C56.1947 30.7679 56.1626 30.8804 55.8735 30.9943C54.076 31.7025 52.4055 31.4951 50.9322 30.2335C49.1113 28.674 48.8149 26.0063 50.1948 24.0759C51.598 22.1119 54.2308 21.5337 56.3013 22.7325C58.4142 23.9561 59.1896 26.5056 58.0784 28.9252V28.9237Z" fill="#52D0B2"/>
<path d="M45.2779 31.0551C43.9667 27.5754 42.654 24.0973 41.3442 20.6176C41.0697 19.889 40.598 19.4188 39.7847 19.3881C39.0561 19.3604 38.4749 19.7415 38.1916 20.4804C36.692 24.3922 35.1997 28.307 33.7176 32.2262C33.4255 32.9971 33.7701 33.755 34.4769 34.028C35.1924 34.304 35.9298 33.974 36.2525 33.2074C36.4847 32.6555 36.6891 32.0933 36.8906 31.5296C36.9797 31.2814 37.0979 31.1573 37.3958 31.1617C38.9436 31.1792 40.49 31.1792 42.0378 31.1617C42.3313 31.1588 42.4539 31.2712 42.5445 31.5253C42.7503 32.1064 42.9694 32.6832 43.1986 33.2556C43.4264 33.8222 43.8659 34.0952 44.4004 34.1142C45.3758 34.1054 46.0124 33.2658 45.754 32.3882C45.6211 31.937 45.4415 31.499 45.2765 31.0565L45.2779 31.0551ZM38.3362 28.437C38.1726 28.437 38.1011 28.3917 38.1697 28.2121C38.6779 26.8819 39.1816 25.5502 39.7321 24.0973C40.2943 25.5896 40.7995 26.9271 41.3018 28.2661C41.3135 28.2982 41.3077 28.3362 41.315 28.4355C40.3191 28.4355 39.3277 28.4355 38.3362 28.4355V28.437Z" fill="#52D0B2"/>
<path d="M29.1956 22.1062C30.1242 22.1267 31.0529 22.115 31.9816 22.1121C32.3116 22.1121 32.6372 22.0858 32.9322 21.9135C33.4418 21.6156 33.7119 20.9731 33.5659 20.4095C33.4097 19.8064 32.9205 19.3976 32.2444 19.3888C30.7156 19.3698 29.1853 19.3786 27.6565 19.3815C26.4854 19.3844 26.0094 19.8619 26.0065 21.0476C26.0021 22.9415 26.0065 24.8354 26.0065 26.7292C26.0065 27.858 26.0065 28.9867 26.0065 30.1154C26.0065 31.0076 25.9817 31.9012 26.024 32.792C26.0678 33.7221 26.8505 34.2828 27.7251 34.0696C28.3603 33.9148 28.7298 33.3877 28.7356 32.5729C28.7458 31.1887 28.7487 29.8044 28.7312 28.4216C28.7268 28.0843 28.8203 27.9821 29.1591 27.9923C29.9592 28.0157 30.7609 28.0011 31.5625 27.9996C31.8356 27.9996 32.1101 27.9996 32.3686 27.8959C32.9453 27.6637 33.2783 27.0782 33.1936 26.4474C33.1074 25.8005 32.6387 25.3231 31.9451 25.2909C31.0179 25.2486 30.0877 25.2573 29.1605 25.2763C28.8218 25.2836 28.721 25.1829 28.7312 24.847C28.7546 24.0834 28.7575 23.3167 28.7312 22.5531C28.7181 22.1807 28.8553 22.0989 29.1985 22.1062H29.1956Z" fill="#52D0B2"/>
</svg>
