<svg width="32" height="32" viewBox="0 0 32 32" fill="none" xmlns="http://www.w3.org/2000/svg">
<rect width="32" height="32" rx="16" fill="#2EAB8D"/>
<path d="M25.3763 12.6072C25.3763 12.3024 25.3604 11.9934 25.3135 11.693C24.8709 8.85643 22.4755 6.80558 19.6057 6.80197C17.2565 6.79836 14.908 6.80197 12.5588 6.7998C12.252 6.7998 11.9451 6.81858 11.6448 6.87274C8.73896 7.39556 6.80414 9.71504 6.80197 12.6743C6.7998 14.9512 6.80269 17.2288 6.7998 19.5064C6.7998 19.8408 6.81424 20.1737 6.86767 20.5022C7.32827 23.3481 9.70709 25.3752 12.5862 25.3795C13.7471 25.3817 14.908 25.3795 16.0689 25.3795C17.2298 25.3795 18.4268 25.3795 19.6057 25.3795C20.0302 25.3795 20.4504 25.3383 20.8634 25.2423C23.5577 24.6198 25.3705 22.3465 25.377 19.5736C25.3828 17.2512 25.3806 14.9288 25.3756 12.6065L25.3763 12.6072ZM23.3057 19.6422C23.287 21.7277 21.6734 23.2976 19.574 23.3113C18.4037 23.3185 17.2334 23.3128 16.0631 23.3128V23.2933C14.7939 23.2933 13.5212 23.359 12.257 23.2781C10.3236 23.1546 8.8949 21.6035 8.87613 19.6689C8.85303 17.283 8.85158 14.897 8.87613 12.5111C8.89707 10.4762 10.4817 8.89615 12.5256 8.87448C14.9015 8.84921 17.2789 8.84921 19.6548 8.87448C21.7102 8.89687 23.287 10.4834 23.305 12.5386C23.3259 14.9064 23.3267 17.2743 23.305 19.6422H23.3057Z" fill="white"/>
<path d="M16.1057 11.3298C13.4788 11.3255 11.3318 13.462 11.3289 16.0821C11.326 18.7072 13.4651 20.851 16.0876 20.8517C18.7116 20.8524 20.8529 18.7101 20.8514 16.0857C20.85 13.4743 18.713 11.3334 16.1057 11.3291V11.3298ZM16.0811 18.9771C14.4811 18.9706 13.1988 17.6801 13.2046 16.0828C13.2104 14.4825 14.4992 13.2015 16.0985 13.2058C17.6985 13.2102 18.983 14.5021 18.9757 16.0994C18.9685 17.6997 17.6768 18.9844 16.0818 18.9779L16.0811 18.9771Z" fill="white"/>
<path d="M21.091 10.2833C20.6598 10.2767 20.2782 10.653 20.2709 11.0932C20.2636 11.5233 20.6423 11.9031 21.0837 11.909C21.5237 11.9141 21.8929 11.548 21.8965 11.1012C21.9002 10.6581 21.5375 10.2898 21.091 10.2833Z" fill="white"/>
</svg>
