<svg width="148" height="34" viewBox="0 0 148 34" fill="none" xmlns="http://www.w3.org/2000/svg">
<g clip-path="url(#clip0_1014_30127)">
<path d="M30.7616 11.417C30.7764 9.14765 29.8003 7.52107 27.7984 6.45316C26.302 5.65223 26.3119 5.62751 26.3119 7.31342C26.3119 9.51845 26.3119 11.7185 26.3119 13.9236C26.3119 16.3264 26.3119 18.7341 26.3119 21.1369C26.3119 22.5954 25.6776 23.688 24.4289 24.4098C21.4558 26.1353 18.4679 27.841 15.4898 29.5566C14.147 30.3278 12.8042 31.109 11.4465 31.8654C11.0005 32.1176 10.9906 32.2708 11.4514 32.5131C12.0708 32.8344 12.6357 33.2646 13.2699 33.5414C14.7813 34.1891 16.3124 34.1842 17.7593 33.3634C21.2031 31.4155 24.6271 29.433 28.0511 27.4603C29.8102 26.4468 30.7467 24.929 30.7467 22.8821C30.7467 19.0604 30.7318 15.2387 30.7566 11.417H30.7616Z" fill="#52D0B2"/>
<path d="M23.6407 20.6173C23.7348 20.0635 23.7447 19.4999 23.7398 18.9363C23.7348 16.934 23.7398 14.9366 23.7398 12.9343H23.7447C23.7447 10.8429 23.7348 8.75163 23.7447 6.66525C23.7546 4.91013 23.0312 3.60491 21.4852 2.74465C20.286 2.07721 19.1166 1.35538 17.9125 0.697824C16.2476 -0.211875 14.5529 -0.251427 12.888 0.69288C9.39465 2.68038 5.89136 4.66293 2.43268 6.71964C0.886677 7.63428 0.0244834 9.07299 0.0145731 10.9023C-0.0102026 14.9069 -0.000292308 18.9066 0.00961796 22.9113C0.00961796 24.9087 0.946139 26.382 2.65071 27.3757C3.93409 28.1223 5.21747 28.8688 6.52067 29.5659C7.7545 30.2284 9.03292 30.2383 10.2568 29.5363C14.2953 27.2225 18.3139 24.884 22.3474 22.5603C23.1105 22.1202 23.492 21.4528 23.6407 20.6173ZM18.299 19.8411C15.425 21.4578 12.5362 23.0596 9.71673 24.7752C8.67615 25.408 7.89324 25.4179 6.85762 24.7505C6.59004 24.5824 6.36706 24.4489 6.12921 24.2907C5.04899 23.5688 4.40978 22.5899 4.40978 21.2699C4.39987 18.4864 4.40978 15.698 4.39987 12.9145C4.39987 11.456 5.03908 10.3683 6.28282 9.64155C8.7257 8.21767 11.1735 6.79874 13.6462 5.41442C14.7858 4.77664 15.9701 4.8063 17.1247 5.43914C17.6152 5.71106 18.081 6.03736 18.5864 6.26973C19.0819 6.5021 19.2554 6.82346 19.2455 7.37225C19.2108 9.16692 19.2306 10.9665 19.2306 12.7612H19.2603C19.2603 14.5559 19.2455 16.3555 19.2653 18.1502C19.2752 18.9264 18.9828 19.4505 18.2941 19.8411H18.299Z" fill="#52D0B2"/>
<path d="M16.6095 7.41773C16.6194 6.88872 16.4856 6.77007 15.995 7.06176C13.4927 8.52519 10.9755 9.96885 8.46321 11.4224C7.52669 11.9613 7.04604 12.7672 7.04604 13.8548C7.04604 16.7768 7.051 19.6987 7.03613 22.6206C7.03613 23.1694 7.18974 23.1793 7.60597 22.9271C8.72583 22.2597 9.85065 21.6021 10.9953 20.9742C11.3421 20.7814 11.4611 20.5441 11.4512 20.1684C11.4313 19.4267 11.4462 18.6851 11.4462 17.9435C11.4462 17.2909 11.4809 16.6383 11.4363 15.9907C11.3768 15.1353 11.7732 14.5964 12.4818 14.196C13.676 13.5236 14.8504 12.8117 16.0495 12.1541C16.4608 11.9316 16.6243 11.6696 16.6144 11.1999C16.5847 9.94412 16.5946 8.6834 16.6144 7.42268L16.6095 7.41773Z" fill="#52D0B2"/>
<path d="M48.0993 1.9375H44.3582V7.21771H41.3604V10.1446H44.3582V18.851C44.3582 20.5319 44.6208 21.8668 45.151 22.8507C45.6763 23.8395 46.4592 24.5317 47.4948 24.9371C48.5255 25.3425 49.7989 25.5402 51.3004 25.5402H54.0306V22.1091H50.9981C50.0764 22.1091 49.3629 21.8569 48.8575 21.3526C48.352 20.8484 48.0993 20.1265 48.0993 19.1822V10.1446H54.0306V7.21771H48.0993V1.9375Z" fill="#252657"/>
<path d="M68.0438 7.68746C66.8297 7.21778 65.3036 6.98047 63.4603 6.98047C62.8755 6.98047 62.2661 6.99036 61.6219 7.01508C60.9827 7.0398 60.3633 7.06452 59.7687 7.09913C59.1741 7.13373 58.629 7.17329 58.1335 7.21778V10.6143C58.6934 10.5698 59.3425 10.5303 60.0709 10.4957C60.7993 10.4611 61.5476 10.4363 62.3107 10.4116C63.0737 10.3918 63.7724 10.377 64.4017 10.377C65.5464 10.377 66.4135 10.6687 66.9982 11.2521C67.5829 11.8355 67.8753 12.6859 67.8753 13.8082V14.1443H63.7328C62.1372 14.1443 60.7696 14.3569 59.62 14.7821C58.4754 15.2073 57.5934 15.8451 56.974 16.7004C56.3546 17.5508 56.0474 18.6286 56.0474 19.9288C56.0474 21.2291 56.3149 22.2229 56.855 23.1079C57.3952 23.9928 58.1583 24.6652 59.1443 25.125C60.1304 25.5848 61.2899 25.8122 62.6129 25.8122C63.9359 25.8122 64.9765 25.5799 65.8635 25.125C66.7505 24.6652 67.4491 24.0027 67.9546 23.1425C68.1825 22.7568 68.3609 22.3218 68.5095 21.8471V25.3425H71.6412V14.0059C71.6412 12.3052 71.3439 10.9406 70.7493 9.92216C70.1546 8.90369 69.2478 8.15714 68.0388 7.68746H68.0438ZM65.6157 22.4651C64.9864 22.7222 64.3224 22.8508 63.6287 22.8508C62.4395 22.8508 61.5277 22.5788 60.8984 22.0251C60.2691 21.4763 59.957 20.7446 59.957 19.825C59.957 18.9054 60.2691 18.1589 60.8984 17.5903C61.5277 17.0168 62.4345 16.735 63.6287 16.735H67.8753V18.6187C67.8307 19.7163 67.5978 20.5666 67.1865 21.1747C66.7703 21.7779 66.25 22.213 65.6207 22.4701L65.6157 22.4651Z" fill="#252657"/>
<path d="M89.9109 7.2168H85.8675L82.0966 13.8072H81.5912L77.5776 7.2168H73.2666L78.9055 16.21L72.999 25.3366H77.0424L81.5219 18.242H81.9926L86.7099 25.3366H91.0258L84.6684 15.9133L89.9109 7.2168Z" fill="#252657"/>
<path d="M102.715 7.68746C101.501 7.21778 99.9745 6.98047 98.1311 6.98047C97.5464 6.98047 96.937 6.99036 96.2928 7.01508C95.6536 7.0398 95.0342 7.06452 94.4396 7.09913C93.8449 7.13373 93.2999 7.17329 92.8044 7.21778V10.6143C93.3643 10.5698 94.0134 10.5303 94.7418 10.4957C95.4702 10.4611 96.2185 10.4363 96.9816 10.4116C97.7446 10.3918 98.4433 10.377 99.0726 10.377C100.217 10.377 101.084 10.6687 101.669 11.2521C102.254 11.8355 102.546 12.6859 102.546 13.8082V14.1443H98.4037C96.8081 14.1443 95.4405 14.3569 94.2909 14.7821C93.1463 15.2073 92.2643 15.8451 91.6449 16.7004C91.0255 17.5508 90.7183 18.6286 90.7183 19.9288C90.7183 21.2291 90.9858 22.2229 91.526 23.1079C92.0661 23.9928 92.8291 24.6652 93.8152 25.125C94.8013 25.5848 95.9608 25.8122 97.2838 25.8122C98.6068 25.8122 99.6474 25.5799 100.534 25.125C101.421 24.6652 102.12 24.0027 102.625 23.1425C102.853 22.7568 103.032 22.3218 103.18 21.8471V25.3425H106.312V14.0059C106.312 12.3052 106.015 10.9406 105.42 9.92216C104.826 8.90369 103.919 8.15714 102.71 7.68746H102.715ZM100.287 22.4651C99.6573 22.7222 98.9933 22.8508 98.2996 22.8508C97.1104 22.8508 96.1986 22.5788 95.5693 22.0251C94.94 21.4763 94.6279 20.7446 94.6279 19.825C94.6279 18.9054 94.94 18.1589 95.5693 17.5903C96.1986 17.0168 97.1054 16.735 98.2996 16.735H102.546V18.6187C102.502 19.7163 102.269 20.5666 101.857 21.1747C101.441 21.7779 100.921 22.213 100.292 22.4701L100.287 22.4651Z" fill="#252657"/>
<path d="M124.988 9.36868C124.225 8.51831 123.313 7.85087 122.258 7.36636C121.202 6.88679 120.023 6.64453 118.72 6.64453C117.347 6.64453 116.094 6.94612 114.944 7.55423C113.799 8.1574 112.878 9.07699 112.179 10.313C111.941 10.7332 111.743 11.193 111.575 11.6924V7.21804H108.443V32.0617H112.387V22.7769C113.091 23.82 113.953 24.5963 114.984 25.1005C116.128 25.6592 117.362 25.941 118.69 25.941C120.018 25.941 121.173 25.6938 122.228 25.1994C123.283 24.705 124.195 24.0326 124.958 23.1823C125.721 22.3319 126.306 21.3381 126.712 20.206C127.119 19.0738 127.317 17.8674 127.317 16.5919V15.9541C127.317 14.6538 127.119 13.4426 126.727 12.3252C126.336 11.2029 125.756 10.2191 124.993 9.36868H124.988ZM122.679 19.5385C122.218 20.4927 121.574 21.2294 120.742 21.7584C119.909 22.2874 118.943 22.5494 117.843 22.5494C116.877 22.5494 115.965 22.3368 115.112 21.9117C114.26 21.4865 113.566 20.8635 113.041 20.0478C112.511 19.232 112.248 18.2481 112.248 17.1061V15.6624C112.248 14.4759 112.506 13.4623 113.021 12.6218C113.537 11.7814 114.221 11.1386 115.078 10.6887C115.93 10.2388 116.852 10.0164 117.843 10.0164C118.968 10.0164 119.939 10.2784 120.756 10.8074C121.574 11.3364 122.218 12.0681 122.679 13.0075C123.14 13.9468 123.368 15.0345 123.368 16.2705C123.368 17.5065 123.14 18.5942 122.679 19.5484V19.5385Z" fill="#252657"/>
<path d="M147.41 12.3252C147.019 11.2029 146.439 10.2191 145.676 9.36868C144.913 8.51831 144.001 7.85087 142.946 7.36636C141.89 6.88679 140.711 6.64453 139.408 6.64453C138.035 6.64453 136.782 6.94612 135.632 7.55423C134.487 8.1574 133.566 9.07699 132.867 10.313C132.629 10.7332 132.431 11.193 132.263 11.6924V7.21804H129.131V32.0617H133.075V22.7818C133.779 23.825 134.641 24.6012 135.672 25.1055C136.816 25.6642 138.05 25.946 139.378 25.946C140.706 25.946 141.861 25.6988 142.916 25.2044C143.971 24.71 144.883 24.0376 145.646 23.1872C146.409 22.3368 146.994 21.3431 147.4 20.2109C147.802 19.0787 148.005 17.8724 148.005 16.5968V15.9591C148.005 14.6588 147.807 13.4475 147.415 12.3302L147.41 12.3252ZM143.367 19.5385C142.906 20.4927 142.262 21.2294 141.43 21.7584C140.597 22.2874 139.631 22.5494 138.531 22.5494C137.565 22.5494 136.653 22.3368 135.8 21.9117C134.948 21.4865 134.254 20.8635 133.729 20.0478C133.199 19.232 132.936 18.2481 132.936 17.1061V15.6624C132.936 14.4759 133.194 13.4623 133.709 12.6218C134.225 11.7814 134.913 11.1386 135.766 10.6887C136.618 10.2388 137.54 10.0164 138.531 10.0164C139.656 10.0164 140.627 10.2784 141.444 10.8074C142.262 11.3364 142.906 12.0681 143.367 13.0075C143.828 13.9468 144.056 15.0345 144.056 16.2705C144.056 17.5065 143.828 18.5942 143.367 19.5484V19.5385Z" fill="#252657"/>
</g>
<defs>
<clipPath id="clip0_1014_30127">
<rect width="148" height="34" fill="white"/>
</clipPath>
</defs>
</svg>
