<svg width="88" height="92" viewBox="0 0 88 92" fill="none" xmlns="http://www.w3.org/2000/svg">
<g clip-path="url(#clip0_4180_23687)">
<path d="M43.9885 91.0316C43.175 91.0265 42.4933 90.3473 42.4831 89.5338C42.473 88.6823 43.2029 87.9701 44.0519 88.0031C44.8654 88.0335 45.5294 88.7355 45.5117 89.549C45.4939 90.3625 44.8021 91.0367 43.9885 91.0316Z" fill="white"/>
<path d="M87.9899 50.021C87.9925 49.319 87.7314 48.7994 87.0446 48.5435C85.894 48.1152 84.9614 48.8324 84.9588 50.1705C84.9538 57.1856 84.9512 64.2032 84.9588 71.2183C84.9588 72.303 84.8296 73.3598 84.452 74.3786C83.4332 77.1334 80.6074 78.8948 77.1125 78.8948C55.0206 78.9024 32.9288 78.8973 10.8369 78.8973C10.7431 78.8973 10.6468 78.9024 10.5531 78.8948C6.34605 78.5197 2.99565 76.4745 3.01592 71.2132C3.06661 56.8637 3.03873 42.5168 3.01592 28.1674C3.01592 27.4501 3.19586 27.3006 3.8928 27.3006C30.6301 27.3209 57.3675 27.3209 84.1073 27.3006C84.8271 27.3006 84.9791 27.4831 84.9741 28.18C84.9386 32.4453 84.9512 36.7132 84.9614 40.981C84.9614 42.0277 85.5671 42.6461 86.5023 42.6258C87.3994 42.608 87.9849 42.0074 87.9849 41.019C87.9874 33.6872 88.0381 26.3528 87.9544 19.0234C87.9038 14.5782 85.3872 11.314 81.1852 9.83899C80.136 9.46897 79.0589 9.22314 77.9565 9.15725C77.4293 9.12684 77.3482 8.92916 77.3634 8.47804C77.3913 7.65692 77.3888 6.83326 77.3685 6.01213C77.2823 2.74789 75.1129 0.327597 72.0337 0.0386815C68.5642 -0.285714 66.0755 1.55422 65.3709 4.94517C65.1225 6.13885 65.267 7.34012 65.2467 8.53633C65.2391 8.97478 65.1453 9.12937 64.674 9.12684C59.9956 9.1091 55.3197 9.11163 50.6413 9.12684C50.1978 9.12684 50.0331 9.02293 50.0533 8.55408C50.0888 7.70254 50.0812 6.84846 50.0584 5.99439C49.9773 2.74536 47.7902 0.317459 44.7084 0.0386815C41.2389 -0.275577 38.7552 1.57449 38.0608 4.96545C37.8226 6.12871 37.962 7.29704 37.9341 8.46284C37.924 8.88607 37.9214 9.13951 37.3487 9.13444C32.6703 9.10656 27.9944 9.11163 23.316 9.12937C22.8446 9.12937 22.7306 8.97984 22.7458 8.53887C22.7762 7.65438 22.7813 6.76736 22.7458 5.88541C22.6241 2.68454 20.4294 0.304788 17.3806 0.0386815C13.944 -0.260371 11.4604 1.57449 10.7634 4.88941C10.5201 6.05268 10.6316 7.22101 10.6291 8.38427C10.6291 8.91902 10.5455 9.12177 9.93468 9.16739C8.12516 9.30424 6.3942 9.80604 4.82291 10.7336C1.38634 12.7636 0.00258804 15.9163 5.37012e-05 19.7863C5.37012e-05 39.9825 5.37012e-05 60.1787 5.37012e-05 80.3723C5.37012e-05 80.6561 -0.00754933 80.9425 0.0127254 81.2264C0.319381 85.4917 2.32912 88.5481 6.36632 90.1523C7.81597 90.7276 9.3239 91.0368 10.8901 91.0368C20.2444 91.0368 29.6012 91.0368 38.9554 91.0368C39.2089 91.0368 39.4674 91.0622 39.7107 91.0115C40.5394 90.8417 40.9702 90.3095 40.95 89.4706C40.9297 88.6748 40.4938 88.173 39.7081 88.0285C39.4015 87.9728 39.0771 88.0032 38.7628 88.0032C29.4719 88.0032 20.1785 88.0133 10.8876 87.9981C5.57814 87.988 2.46597 84.4222 3.1249 79.0823C5.83158 81.4317 9.03245 81.9613 12.469 81.9537C33.4863 81.9132 54.5036 81.9132 75.521 81.9537C78.9575 81.9613 82.1559 81.4342 84.9512 79.0164C84.9512 79.7184 84.9614 80.276 84.9512 80.831C84.8803 84.2321 83.0429 86.6473 79.7888 87.5926C78.8485 87.8663 77.883 88.0083 76.8946 88.0083C67.5403 87.9981 58.1835 88.0007 48.8292 88.0057C47.6711 88.0057 47.0476 88.5329 47.0299 89.4883C47.0121 90.4489 47.6457 91.0343 48.7659 91.0343C58.3432 91.0394 67.9179 91.0571 77.4952 91.0191C79.7432 91.0089 81.8543 90.3247 83.7373 89.0702C86.8393 87.0021 87.9823 83.9483 87.9874 80.3622C87.9975 71.7023 87.9899 63.0425 87.9899 54.3826C87.9899 52.9279 87.9849 51.4757 87.9899 50.021ZM68.2879 6.00959C68.3234 4.13165 69.4791 3.05708 71.2683 3.04948C73.1159 3.03934 74.2158 4.11137 74.3323 6.0324C74.3349 6.09576 74.3374 6.15912 74.3374 6.22248C74.3374 7.70507 74.3374 9.18513 74.3374 10.6677C74.3374 12.1503 74.3678 13.6329 74.3298 15.113C74.2665 17.5028 72.4443 18.7751 70.1811 18.0477C69.066 17.6904 68.3082 16.6842 68.2879 15.2777C68.2449 12.1883 68.2322 9.09896 68.2879 6.00959ZM40.9855 6.00959C41.026 4.08603 42.207 3.0216 44.0571 3.04695C45.8742 3.06976 46.9792 4.18994 47.0223 6.12364C47.0577 7.63664 47.0299 9.14965 47.0299 10.6626C47.0299 12.1452 47.0577 13.6278 47.0248 15.1079C46.969 17.4902 45.1418 18.7725 42.8786 18.0477C41.7635 17.6904 41.0057 16.6969 40.9855 15.2777C40.9373 12.1883 40.9246 9.09896 40.9855 6.00959ZM13.683 5.98172C13.7261 4.06068 14.9223 3.01147 16.7799 3.04695C18.559 3.07989 19.659 4.1722 19.7147 6.05521C19.7603 7.59863 19.7248 9.14458 19.7248 10.6905C19.7248 12.1731 19.7578 13.6557 19.7172 15.1358C19.6539 17.5104 17.8038 18.7827 15.5457 18.0401C14.4433 17.6777 13.6956 16.6665 13.6754 15.2498C13.6323 12.1604 13.612 9.06855 13.683 5.98172ZM3.01339 23.342C3.09195 22.052 3.02099 20.7519 3.03873 19.4568C3.08688 15.6274 5.2943 13.0323 9.07554 12.3429C10.1062 12.1554 10.6215 12.5803 10.6215 13.6177C10.6215 14.7227 10.5708 15.8276 10.8851 16.9098C11.7619 19.9257 14.2735 21.5755 17.4617 21.2182C20.5054 20.8761 22.6241 18.5546 22.7483 15.3968C22.7838 14.5123 22.7762 13.6278 22.7483 12.7433C22.7356 12.3176 22.8193 12.1402 23.3059 12.1402C27.9817 12.1579 32.6601 12.163 37.336 12.1376C37.8885 12.1351 37.9265 12.3556 37.9341 12.7991C37.9569 13.9953 37.8226 15.1941 38.076 16.3877C38.7654 19.6621 41.2262 21.4995 44.607 21.2309C47.7116 20.985 49.9393 18.6002 50.0533 15.3664C50.0837 14.4819 50.0863 13.5949 50.0508 12.7129C50.0305 12.2415 50.2003 12.1427 50.6413 12.1427C55.3172 12.1579 59.9956 12.1579 64.6714 12.1427C65.1453 12.1427 65.2341 12.2998 65.2417 12.7357C65.2619 13.932 65.1175 15.1332 65.3658 16.3269C66.0628 19.6773 68.5236 21.5198 71.9399 21.2309C75.0774 20.9648 77.2773 18.5394 77.3609 15.2422C77.3812 14.4211 77.3862 13.5974 77.3558 12.7788C77.3381 12.3074 77.4268 12.125 77.9691 12.1807C82.4169 12.6344 84.9386 15.3816 84.9512 19.8344C84.9538 21.0991 84.9259 22.3637 84.9639 23.6258C84.9817 24.1631 84.822 24.3152 84.2847 24.3025C82.5791 24.2695 80.8709 24.2898 79.1653 24.2898H43.9988C30.6631 24.2898 17.3274 24.2822 3.99164 24.3101C3.21614 24.3101 2.96524 24.153 3.01339 23.347V23.342Z" fill="white"/>
<path d="M28.2301 59.2201C25.9416 59.5191 24.4868 61.0853 24.2942 63.3789C24.2435 63.9745 24.2638 64.5802 24.2765 65.1783C24.3246 67.9635 26.1544 69.7756 28.9498 69.7933C31.2257 69.8086 33.5015 69.8212 35.7748 69.7807C36.3831 69.7705 36.6264 69.9327 36.7962 70.5359C37.483 72.9663 38.9478 74.7378 41.4264 75.4855C44.9922 76.56 49.8556 75.6249 51.2419 70.3585C51.3585 69.9175 51.5587 69.7731 52.0174 69.7857C53.2491 69.8212 54.4833 69.7984 55.715 69.7984V69.7933C56.9163 69.7933 58.1176 69.8162 59.3189 69.7883C61.6606 69.7325 63.2826 68.2499 63.6729 65.8448C64.1823 62.7073 63.0519 60.2034 60.7736 59.4304C60.6545 59.3899 60.5303 59.3468 60.4061 59.3468C59.3695 59.3417 59.253 58.7639 59.2479 57.849C59.2276 54.6633 59.5013 51.465 59.0122 48.2894C57.9529 41.4112 53.6166 35.7064 45.9781 35.088C45.5194 35.05 45.4965 34.8118 45.5016 34.4646C45.5118 33.6105 45.5244 32.7565 45.4991 31.9049C45.4687 30.9089 44.8934 30.3412 43.9785 30.3438C43.0636 30.3488 42.501 30.9216 42.4781 31.9201C42.4579 32.7412 42.4427 33.5649 42.4858 34.3835C42.5136 34.9182 42.3286 35.0627 41.804 35.1083C39.6752 35.2908 37.6376 35.8407 35.7976 36.9457C31.0483 39.8019 29.1247 44.2649 28.8814 49.5667C28.7445 52.5319 28.8459 55.5072 28.8662 58.4775C28.8687 58.9692 28.7775 59.144 28.2275 59.2175L28.2301 59.2201ZM44.4195 72.8143C41.9662 72.9486 40.4507 72.0033 39.7968 69.8694H48.1424C47.8281 71.5953 46.4292 72.7028 44.4195 72.8143ZM32.0164 48.5631C32.8198 41.5836 37.3765 37.7821 44.3789 38.0101C50.7249 38.218 54.7748 41.7483 55.9152 48.1425C56.5412 51.6525 56.1205 55.2031 56.2244 58.7335C56.2447 59.4101 55.7252 59.1643 55.4134 59.1668C51.6221 59.182 47.8307 59.177 44.0418 59.177C40.253 59.177 36.4591 59.1795 32.6702 59.1719C32.3408 59.1719 31.8795 59.3645 31.8922 58.6955C31.9581 55.3172 31.6286 51.9186 32.0138 48.5631H32.0164ZM29.9458 62.2106C34.6521 62.2106 39.3558 62.2106 44.0621 62.2106C48.9255 62.2106 53.7889 62.2106 58.6523 62.2106C60.3275 62.2106 60.6798 62.573 60.6849 64.2913C60.6849 64.5118 60.6874 64.7323 60.6849 64.9553C60.6595 66.3238 60.2287 66.7623 58.8525 66.7623C50.2307 66.7648 41.6114 66.7623 32.9896 66.7623C31.6312 66.7623 30.2728 66.7749 28.9169 66.7572C27.8347 66.7445 27.3861 66.2934 27.3152 65.2036C27.3101 65.1099 27.3152 65.0136 27.3126 64.9198C27.2746 62.3956 27.452 62.2106 29.9484 62.2106H29.9458Z" fill="#93E2CF"/>
<path d="M86.4794 44.0084C85.6659 44.0059 84.9766 44.68 84.9588 45.4935C84.9411 46.3451 85.6659 47.0623 86.5149 47.0369C87.3284 47.0141 87.9975 46.3172 87.9874 45.5037C87.9772 44.6901 87.2929 44.0109 86.4794 44.0059V44.0084Z" fill="white"/>
</g>
<defs>
<clipPath id="clip0_4180_23687">
<rect width="88" height="91.0412" fill="white"/>
</clipPath>
</defs>
</svg>
