<svg width="88" height="88" viewBox="0 0 88 88" fill="none" xmlns="http://www.w3.org/2000/svg">
<g clip-path="url(#clip0_4180_23677)">
<path d="M87.0249 40.2127C85.3433 39.0243 83.6066 37.9231 81.8676 36.8196C80.7274 36.0969 80.7091 36.1038 81.0394 34.8351C81.7667 32.0408 82.5467 29.2603 83.2808 26.4683C84.3339 22.4603 85.4855 18.4753 86.4537 14.4445C87.0433 11.9966 86.6441 11.4207 84.2398 10.744C78.626 9.16557 72.9708 7.73171 67.3386 6.21985C66.2902 5.93767 66.2672 5.91932 66.2603 4.8227C66.2535 3.87979 66.2879 2.93459 66.2466 1.99169C66.1938 0.805597 65.7648 0.287113 64.6544 -0.00195312H23.4556C22.3223 0.298584 21.9047 0.791832 21.8428 1.98251C21.7923 2.92542 21.8336 3.87062 21.8244 4.81352C21.8153 5.89408 21.7923 5.92161 20.7324 6.20609C14.9603 7.75466 9.18813 9.31011 3.4091 10.8403C1.71141 11.29 1.16539 12.1709 1.48199 13.8847C1.52787 14.1371 1.59899 14.3848 1.66552 14.6349C3.48022 21.3729 5.26967 28.1178 7.09584 34.8512C7.39867 35.9707 7.36655 36.0373 6.40759 36.6819C4.69842 37.8313 2.94109 38.905 1.24569 40.075C0.435845 40.6348 0.00683428 41.3093 0.00912845 42.3554C0.0343644 55.228 0.0641887 68.0984 -4.82505e-05 80.9687C-0.0184017 84.566 3.38845 87.9981 7.00178 87.9912C31.6596 87.9476 56.3151 87.9705 80.9729 87.9613C81.9709 87.9613 82.9665 87.8856 83.8888 87.3993C86.0797 86.2407 87.5824 84.5637 88.0023 82.0516V41.3689C87.8164 40.8665 87.4562 40.5155 87.0272 40.2127H87.0249ZM82.8105 42.1168C81.1954 43.1676 79.6583 44.1655 77.9606 45.2713C78.4287 43.491 78.8485 41.8989 79.266 40.3067C79.3349 40.0429 79.4381 39.8892 79.7363 40.0888C80.7297 40.7518 81.73 41.4056 82.8082 42.1168H82.8105ZM66.0126 12.8753C66.0676 11.9117 66.0263 10.9459 66.0263 9.90659C68.5316 10.5742 70.9542 11.2166 73.3746 11.8635C76.1849 12.6137 78.993 13.38 81.8103 14.1072C82.3655 14.2518 82.4802 14.4605 82.3288 15.018C79.3922 25.8649 76.474 36.7186 73.5604 47.5724C73.4274 48.0679 73.1933 48.4166 72.7483 48.7011C70.539 50.1189 68.3526 51.5688 66.0562 53.0761V17.4911C67.334 17.8399 68.566 18.1863 69.8071 18.5029C70.1283 18.5855 70.2751 18.7025 70.3279 19.0535C70.5275 20.3726 71.1469 21.4853 72.1656 22.3433C72.5349 22.6553 72.5716 22.9192 72.4477 23.3688C71.6953 26.0897 70.9795 28.8221 70.2568 31.5521C69.9196 32.8254 70.3692 33.8096 71.4199 34.1193C72.4913 34.4359 73.4342 33.8073 73.7898 32.4996C74.6891 29.196 75.5816 25.8924 76.4625 22.5842C76.8273 21.2192 76.4442 20.485 75.1434 19.9505C74.1431 19.5398 73.7784 18.9434 73.8816 17.8857C74.033 16.3326 73.6407 15.743 72.1449 15.3346C70.3554 14.846 68.5706 14.3481 66.7674 13.9099C66.1548 13.7608 65.9736 13.4832 66.008 12.873L66.0126 12.8753ZM26.6078 3.63202C38.2209 3.65496 49.8317 3.65496 61.4449 3.63202C62.1721 3.63202 62.4038 3.76508 62.4015 4.55428C62.3671 12.9051 62.3809 21.2559 62.3809 29.6067C62.3809 37.9575 62.374 46.2509 62.3947 54.5742C62.3947 55.1776 62.2478 55.5423 61.7179 55.8865C56.0146 59.5778 50.3273 63.2967 44.6515 67.0293C44.1881 67.3344 43.8875 67.2931 43.4448 67.0018C37.7414 63.2577 32.0289 59.5273 26.305 55.8176C25.8622 55.5309 25.72 55.228 25.72 54.7164C25.7337 37.985 25.736 21.2559 25.7154 4.52446C25.7154 3.81097 25.8966 3.62973 26.6101 3.62973L26.6078 3.63202ZM6.29058 16.8579C6.06805 16.0343 5.47156 14.9928 5.76751 14.4376C6.04969 13.9122 7.27249 13.8755 8.09151 13.6553C12.5537 12.4577 17.0204 11.2808 21.4757 10.0626C22.0034 9.91806 22.1089 10.0075 22.0906 10.5214C22.0585 11.3772 22.0332 12.2421 22.0997 13.0932C22.1433 13.6369 21.8841 13.7723 21.4597 13.887C19.5876 14.3917 17.7202 14.9125 15.8504 15.4241C14.3776 15.8279 13.9921 16.3876 14.1619 17.8903C14.272 18.8676 13.9027 19.5123 12.9827 19.9413C11.6567 20.5607 11.3676 21.171 11.7415 22.6094C12.6064 25.9498 13.4645 29.2924 14.3523 32.6281C14.763 34.1744 16.4148 34.686 17.4586 33.6215C18.0459 33.0227 18.0666 32.3184 17.8578 31.5521C17.1191 28.8267 16.4171 26.092 15.6577 23.3734C15.5201 22.8779 15.6072 22.6072 15.9881 22.2837C16.9539 21.4601 17.5458 20.3864 17.7592 19.1407C17.828 18.7346 17.9633 18.5625 18.3579 18.4662C19.5739 18.1702 20.7806 17.833 22.0401 17.498V53.0646C19.6679 51.5069 17.3898 49.9973 15.091 48.5153C14.7194 48.2767 14.6551 47.9303 14.5634 47.5861C11.8012 37.3449 9.04359 27.1014 6.28829 16.8579H6.29058ZM8.35993 40.1071C8.64211 39.919 8.7637 40.0039 8.83941 40.2907C9.25695 41.8828 9.67679 43.475 10.1494 45.2644C8.43105 44.1449 6.90772 43.1561 5.2995 42.1099C6.36629 41.4148 7.36884 40.7701 8.35993 40.1071ZM3.83811 81.5009V45.6774C4.10423 45.5971 4.25335 45.815 4.43001 45.9297C11.3263 50.4011 18.2157 54.877 25.112 59.3484C25.4837 59.5893 25.8461 59.6925 25.307 60.2248C18.2754 67.1807 11.2667 74.1619 4.25335 81.1385C4.17535 81.2165 4.08817 81.283 3.83811 81.5032V81.5009ZM6.72418 84.1117C6.62324 83.7997 6.90313 83.7102 7.03848 83.5749C14.1275 76.4675 21.228 69.3693 28.3101 62.2528C28.6932 61.8697 28.9364 61.872 29.3608 62.1542C33.4559 64.8636 37.5648 67.5546 41.6691 70.2503C41.7402 70.2962 41.8159 70.3398 41.8824 70.3925C43.3415 71.5373 44.6354 71.5396 46.2574 70.4017C50.3227 67.5524 54.5463 64.9278 58.6941 62.1955C59.1255 61.911 59.387 61.8284 59.8206 62.2643C66.8981 69.3854 73.9986 76.4813 81.0945 83.5841C81.2253 83.7148 81.3491 83.8548 81.6038 84.1278C56.5262 84.3388 31.6275 84.2356 6.72189 84.1117H6.72418ZM84.3729 81.2761C83.992 81.3954 83.8911 81.0811 83.7351 80.9228C76.8158 74.0495 69.9058 67.1669 62.9866 60.2913C62.6401 59.9472 62.4245 59.7636 63.0118 59.3851C70.0411 54.8518 77.0521 50.291 84.0677 45.7393C84.1343 45.6957 84.2146 45.6751 84.3729 45.6086V81.2761Z" fill="#414141"/>
<path d="M43.9083 25.6213C35.8672 25.6603 29.3747 32.3088 29.4274 40.4508C29.4779 48.446 36.0737 54.9661 44.0712 54.9271C52.1948 54.8881 58.7241 48.3244 58.6782 40.2398C58.6323 32.0794 52.0664 25.5823 43.906 25.6213H43.9083ZM44.0253 51.2702C37.9159 51.2472 33.0339 46.2757 33.0706 40.1205C33.105 34.1625 38.088 29.2713 44.0826 29.3126C50.2012 29.3539 55.074 34.2634 55.0396 40.3522C55.0052 46.3836 50.0521 51.2931 44.0253 51.2702Z" fill="#2EAB8D"/>
<path d="M30.5676 25.4954C31.7995 26.0025 33.0522 25.0917 33.0613 23.6624C33.0797 20.774 33.0751 17.888 33.0613 14.9996C33.0613 14.566 33.121 14.293 33.589 14.0911C34.7866 13.5749 35.6606 12.6779 36.1883 11.4849C36.3695 11.0743 36.599 10.9756 37.0211 10.9756C41.7104 10.9917 46.3997 10.9917 51.089 10.9756C51.5088 10.9756 51.7405 11.0674 51.9218 11.4826C52.4288 12.6504 53.2868 13.5336 54.4454 14.0498C54.9638 14.2815 55.0579 14.5729 55.0533 15.0822C55.0304 17.8834 55.0372 20.6869 55.0441 23.488C55.0464 24.8026 55.7484 25.6079 56.868 25.6079C58.0036 25.6079 58.6827 24.837 58.6873 23.4926C58.6965 20.033 58.6965 16.5734 58.6873 13.1138C58.685 11.7258 58.1619 11.1568 56.7831 10.9779C55.7829 10.8471 55.1818 10.2552 55.0487 9.26874C54.8583 7.84406 54.2962 7.33934 52.8486 7.33704C49.9327 7.33016 47.0145 7.33704 44.0986 7.33704C41.0955 7.33704 38.0948 7.33016 35.0917 7.34163C33.9102 7.34622 33.2242 7.93812 33.0751 9.01179C32.8847 10.3998 32.4855 10.7944 31.0723 10.9963C30.0973 11.1339 29.4411 11.7877 29.4342 12.7719C29.4113 16.461 29.4228 20.1477 29.4274 23.8368C29.4274 24.6374 29.8426 25.1995 30.5653 25.4954H30.5676Z" fill="#2EAB8D"/>
<path d="M45.8904 18.3176C45.8904 17.3082 45.0209 16.4616 44.0114 16.4869C43.0364 16.5098 42.222 17.338 42.2151 18.3153C42.2105 19.3294 43.0571 20.1484 44.0917 20.1277C45.0851 20.1094 45.8904 19.2972 45.8881 18.3176H45.8904Z" fill="#2EAB8D"/>
</g>
<defs>
<clipPath id="clip0_4180_23677">
<rect width="88" height="87.9908" fill="white"/>
</clipPath>
</defs>
</svg>
