<svg width="334" height="334" viewBox="0 0 334 334" fill="none" xmlns="http://www.w3.org/2000/svg">
<path d="M158.67 58.3979C162.24 62.6765 163.104 63.7002 165.29 65.7543C166.198 66.6093 167.523 66.4757 167.528 65.3034C165.236 58.9657 123.593 16.3557 158.67 58.3979Z" fill="black"/>
<path d="M148.076 89.6483C145.769 88.202 126.082 82.6142 119.614 80.814C115.918 79.7853 117.214 81.497 118.545 82.1249C125.225 85.2712 144.61 91.5838 147.591 91.4352C148.981 91.365 149.001 90.2278 148.076 89.6483Z" fill="black"/>
<path d="M187.74 26.9541C187.282 27.557 187.446 26.9124 187.224 30.6114C188.521 60.1888 192.748 56.5331 192 50.8769C191.958 50.5629 188.702 27.7373 187.74 26.9541Z" fill="black"/>
<path d="M307.497 172.2C302.596 170.21 286.819 159.658 276.871 156.161C267.681 155.977 302.561 171.554 302.599 171.571C307.277 173.476 310.117 173.264 307.497 172.2Z" fill="black"/>
<path d="M280.769 128.672C280.42 129.175 280.715 129.947 281.291 130.157C282.879 130.736 312.273 123.49 311.869 121.849C311.782 121.493 283.028 125.409 280.769 128.672Z" fill="black"/>
<path d="M258.529 180.605C258.242 180.326 257.659 180.239 257.392 180.468C255.083 182.447 274.099 201.089 276.271 203.147C292.804 218.803 262.048 184.018 258.529 180.605Z" fill="black"/>
<path d="M222.613 160.386C221.245 161.782 219.689 162.964 218.177 164.028C217.292 164.649 215.839 164.232 214.881 163.954C213.348 163.512 213.287 163.744 212.731 164.212C212.073 171.196 204.052 187.079 201.861 188.236C201.736 187.854 201.771 187.266 201.791 186.718C201.856 185.047 201.788 185.128 201.273 183.537C200.054 184.641 200.277 184.364 199.585 185.382C192.668 195.548 187.242 198.377 176.709 205.043C175.941 205.529 175.454 205.593 175.273 205.499C174.776 205.245 175.19 202.687 175.298 202.137C175.422 201.519 175.549 200.882 174.934 200.542C174.285 200.185 173.825 200.619 172.818 201.573C159.443 214.247 165.525 207.229 153.161 221.573C143.849 232.376 143.894 231.83 144.587 232.68C145.091 233.3 145.693 232.959 146.778 232.341C148.047 231.62 150.407 230.277 153.032 229.617C159.59 227.972 163.572 230.936 162.246 237.815L162.008 239.044C163.438 238.749 163.146 238.826 163.503 238.687C164.452 238.184 169.36 235.774 172.83 237.727C174.777 238.822 174.422 240.561 175.574 240.87C175.799 240.931 176.155 240.945 176.556 240.666C181.097 237.508 183.869 236.416 188.311 238.279C188.89 238.523 190.45 239.133 191.734 242.194C192.426 243.841 192.992 242.952 195.901 242.837C199.027 242.707 199.368 246.526 201.858 246.526C206.84 246.526 209.822 249.881 206.793 251.601C199.325 255.833 179.124 257.287 169.861 258.178C62.5266 268.476 58.7791 267.486 56.8302 259.52C56.1588 256.786 59.1982 254.392 62.0356 254.128C63.42 253.999 63.7089 253.147 63.2029 252.307C61.9454 250.2 61.6197 248.451 62.2393 247.109C62.9457 245.576 65.0048 244.415 67.8906 243.924L68.9711 243.563C68.5586 242.535 68.5937 242.516 68.0609 241.863C67.6267 241.331 66.9721 240.526 66.1271 238.378C65.4708 236.711 66.279 233.433 69.0863 231.877C71.4945 230.546 73.1711 231.449 73.6638 230.312C73.8993 229.767 73.6204 229.283 73.1962 228.55C66.6548 217.256 77.3762 205.738 87.7753 208.328C94.3634 209.97 94.2849 213.203 95.7829 212.622C96.3775 212.391 96.3875 211.743 96.3908 211.531C96.4927 204.881 103.001 199.931 110.644 203.624C116.311 206.361 117.483 212.076 117.869 213.953C118.096 215.07 118.29 215.163 119.555 215.249C121.154 215.354 124.128 215.551 125.147 218.759C126.847 224.111 122.874 224.97 125.198 226.296C127.211 227.435 127.648 228.659 127.733 230.571C127.758 231.124 127.79 231.81 128.465 232.009C129.231 232.232 129.405 231.985 131.553 228.961C136.015 222.67 144.253 211.93 148.987 203.809C154.113 195.018 154.306 192.702 155.93 186.945C161.406 167.498 161.985 168.54 161.556 167.54L160.901 166.204C159.572 168.183 160.121 167.5 159.397 168.109C159.285 168.205 159.283 168.206 159.233 168.226C159.041 168.306 158.921 168.332 158.884 168.358C158.002 166.072 167.446 148.393 178.792 141.936C179.094 141.764 179.29 141.491 179.343 141.172C179.62 139.509 175.208 138.041 177.356 133.626C177.64 133.039 177.935 132.219 178.196 131.496C178.388 130.965 178.648 130.239 178.74 130.094C180.297 128.123 177.546 127.178 176.76 123.502C176.671 123.09 176.469 122.802 176.16 122.649C175.647 122.395 175.195 122.605 174.447 122.954C171.95 124.118 170.425 124.496 167.974 125.152C163.142 126.445 160.718 127.094 158.403 126.329C153.944 124.86 155.019 121.473 156.514 117.022C110.517 117.674 51.6398 119.693 48.3984 120.102C33.4635 121.989 32.4365 120.346 32.4365 136.627C32.2578 136.627 34.9565 201.511 42.0874 244.789C46.2457 270.021 46.7117 268.228 56.3592 269.184C82.4396 271.776 169.405 265.055 195.53 263.016C237.958 259.704 231.632 259.984 230.54 234.52C229.919 220.058 226.414 186.585 222.614 160.386H222.613ZM69.2316 193.437C66.2724 193.205 64.9931 193.27 63.9327 192.426C58.6689 188.236 81.9036 188.109 92.6316 187.211C93.8457 187.109 95.0064 187.241 96.152 187.615C96.7215 187.802 96.6964 187.829 96.7699 188.407C97.1056 191.052 92.7869 192.291 69.2316 193.437ZM92.8454 170.267C87.2793 170.823 66.1321 172.941 60.6795 172.375C58.5753 172.156 58.1328 170.352 59.4654 169.546C62.8021 167.528 101.042 163.502 101.526 167.244C101.775 169.158 100.335 169.519 92.8437 170.269L92.8454 170.267ZM111.888 189.996C110.571 189.913 109.143 189.871 107.727 189.714C104.432 189.348 102.672 187.266 106.367 185.935C110.663 184.389 124.849 183.863 128.797 184.213C130.821 184.392 135.741 188.699 111.888 189.996ZM146.695 164.168C143.647 165.476 112.845 169.412 110.025 167.161C107.067 164.801 118.588 163.592 122.917 162.996C153.131 158.839 148.031 163.595 146.695 164.168ZM139.62 147.251C138.61 150.401 75.763 153.315 75.7262 153.315C62.8288 154.277 68.1444 154.13 61.1655 154.452C60.0082 154.506 58.577 153.108 59.4204 151.787C61.4244 148.649 88.814 148.527 118.772 145.446C138.709 143.393 140.656 144.025 139.62 147.251ZM133.814 129.426C135.081 129.554 137.67 132.682 128.218 133.068C120.643 133.377 109.644 135.944 109.899 132.542C110.178 128.838 130.088 129.048 133.814 129.426ZM59.0229 133.874C61.3292 132.423 94.6273 130.381 102.648 131.152C104.752 131.354 105.419 134.182 99.9295 134.608C99.8911 134.611 61.7968 138.069 59.5523 137.413C57.914 136.934 57.4999 134.833 59.0229 133.874ZM41.553 135.611C41.7367 129.541 49.5306 128.297 51.6248 133.92C52.3229 135.795 51.2173 139.17 48.3683 140.468C45.0133 141.996 41.4512 138.981 41.553 135.611ZM49.1014 149.696C52.9808 150.286 54.5356 155.442 51.2123 158.798C48.4668 161.57 42.8506 159.527 43.0761 154.846C43.0159 151.617 45.9702 149.22 49.1014 149.696ZM51.3008 168.919C54.5156 169.641 55.556 174.561 52.7905 177.563C49.3987 181.242 43.7457 178.457 43.8459 173.809C43.9411 169.365 47.4481 168.056 51.3008 168.919ZM54.4588 195.579C51.6031 199.095 46.2324 197.924 45.2087 193.285C44.4171 189.701 47.0139 186.97 49.3135 186.87C56.3542 186.563 57.1542 192.261 54.4588 195.579Z" fill="black"/>
<path d="M127.884 114.125C127.994 115.945 126.032 116.39 124.998 115.411C122.391 112.948 127.884 109.932 127.884 114.125Z" fill="black"/>
<path d="M121.192 113.267C120.422 112.804 119.312 113.287 119.307 114.452C119.303 115.115 119.689 115.717 120.442 115.717C121.832 115.717 122.182 113.863 121.192 113.267Z" fill="black"/>
<path d="M224.983 284.366C224.588 284.087 224.139 283.484 224.365 282.995C224.629 282.422 224.353 282.582 239.403 281.326C247.359 280.662 246.469 279.949 253.533 283.663C263.08 288.684 243.626 289.631 238.149 290.311C233.246 290.919 233.548 290.42 224.983 284.366Z" fill="black"/>
<path d="M155.489 294.918C149.61 287.532 150.182 289.172 163.097 287.889C168.984 287.305 170.145 287.352 172.207 289.34C181.103 297.918 181.783 296.567 167.107 297.946C157.772 298.823 158.981 299.305 155.489 294.918Z" fill="black"/>
<path d="M199.918 286.556C197.169 284.131 203.269 284.534 211.237 283.825C213.47 283.627 216.613 282.722 219.388 284.662C226.203 289.427 226.314 288.984 227.092 290.243C227.641 291.133 226.79 291.943 225.976 292.042C204.58 294.627 210.093 295.534 199.918 286.556Z" fill="black"/>
<path d="M201.89 292.466C204.902 295.093 201.706 294.511 189.502 295.883C183.966 296.506 184.642 296.336 177.037 288.759C175.143 286.874 177.049 286.636 179.916 286.533C194.577 286.009 190.562 282.587 201.89 292.466Z" fill="black"/>
<path d="M116.907 302.442C114.621 302.682 113.792 301.445 108.599 296.406C105.549 293.447 109.217 293.951 118.273 293.013C125.275 292.286 123.821 291.612 131.372 299.507C134.454 302.729 128.689 301.203 116.907 302.442Z" fill="black"/>
<path d="M143.879 289.938C146.177 289.719 147.077 291.362 150.953 296.261C152.434 298.131 153.301 299.293 151.102 299.49C144.848 300.053 144.749 300.075 143.366 300.113C137.174 300.285 139.257 302.03 133.772 296.109C128.537 290.456 126.758 291.566 143.877 289.94L143.879 289.938Z" fill="black"/>
<path d="M218.019 278.727C208.877 272.759 207.611 273.29 217.888 272.574C230.098 271.722 232.499 272.832 241.452 276.789C241.936 277.002 242.117 277.836 241.247 278.101C240.669 278.278 228.969 279 224.238 279.446C224.067 279.462 220.333 280.239 218.019 278.727Z" fill="black"/>
<path d="M120.552 287.966C121.274 288.684 120.992 289.302 120.43 289.429C118.956 289.761 107.443 291.059 106.962 291.105C105.947 291.204 104.181 291.591 102.937 290.414C95.0465 282.952 95.4473 284.379 105.033 283.176C115.871 281.817 114.779 282.226 120.552 287.967V287.966Z" fill="black"/>
<path d="M150.205 285.942C148.457 286.088 147.723 284.832 144.422 280.875C142.703 278.818 144.445 278.982 153.253 278.153C161.267 277.4 159.642 276.655 165.86 282.677C167.845 284.601 166.935 284.554 150.205 285.942Z" fill="black"/>
<path d="M174.176 283.864C171.706 283.478 172.047 283.403 167.094 278.672C166.17 277.79 166.817 276.924 167.762 276.808C167.8 276.803 176.367 275.873 176.409 275.873C179.956 275.648 182.338 275.105 184.362 276.839C193.395 284.577 190.726 281.292 174.176 283.864Z" fill="black"/>
<path d="M84.2083 293.651C82.2961 293.54 81.6281 292.707 78.0309 289.501C73.0076 285.022 75.3205 285.718 82.6852 285.075C91.3943 284.315 89.5606 283.906 95.8532 289.976C99.118 293.126 94.265 291.782 84.2083 293.649V293.651Z" fill="black"/>
<path d="M189.929 277.161C189.283 276.588 188.65 275.796 189.345 275.287C190.649 274.33 189.931 275.001 202.974 273.583C204.019 273.47 203.705 273.41 210.721 278.107C211.831 278.852 212.107 279.226 211.97 279.928C211.806 280.768 210.557 280.569 205.484 281.012C194.293 281.989 196.477 282.964 189.929 277.159V277.161Z" fill="black"/>
<path d="M135.439 279.988C138.081 280.271 137.909 280.048 139.864 282.244C144.821 287.814 143.807 286.695 134.492 287.7C128.986 288.295 127.371 288.983 125.103 286.551C119.561 280.606 117.338 281.531 135.439 279.988Z" fill="black"/>
<path d="M86.3124 297.909C84.7743 296.366 87.8438 296.169 89.6992 295.95C98.9727 294.863 99.9079 294.466 101.775 296.049C103.138 297.206 106.656 300.15 107.703 301.6C108.211 302.303 106.635 302.918 105.481 302.948C89.7175 303.367 92.3244 303.941 86.3107 297.908L86.3124 297.909Z" fill="black"/>
<path d="M301.006 297.931C301.041 287.725 297.031 286.79 284.949 281.102C234.324 257.268 233.553 268.724 238.139 262.428C240.876 258.671 240.362 254.357 239.391 236.009C238.411 217.473 237.001 197.51 234.757 177.991C233.327 177.38 232.559 175.949 232.13 174.454C234.336 192.398 236.33 213.893 237.639 238.36C238.825 260.523 240.181 263.195 224.831 265.867C209.937 268.462 122.364 274.861 122.326 274.861C39.6459 276.441 39.5306 281.408 36.2608 265.038C32.7621 247.522 28.7708 208.916 28.7658 208.883C27.9575 201.779 23.9061 138.494 24.5123 126.395C24.9449 117.766 26.7468 115.092 37.6953 113.927C66.7333 110.832 143.613 109.688 159.382 109.725C159.746 108.898 160.128 108.055 160.525 107.205C116.912 107.26 62.398 109.227 42.8055 111.083C30.531 112.245 23.0644 112.235 22.3948 124.623C20.5828 158.209 28.1546 266.399 37.6619 275.439C39.5941 277.276 41.0487 277.505 42.4531 278.395C40.4107 279.173 37.9675 279.475 38.1245 282.705C38.6238 292.982 39.888 297.182 50.1084 305.616C90.621 339.048 74.0913 324.909 285.497 307.705C303.23 306.262 300.984 304.422 301.006 297.931ZM149.919 306.934C132.057 309.086 123.112 310.163 123.087 310.167C118.562 311.012 89.9596 311.603 89.9596 311.514C77.9406 311.514 73.9711 310.113 66.4794 304.978C48.2414 292.475 44.5089 287.132 41.4545 283.65C34.9632 276.254 52.9658 284.599 207.27 270.132C233.079 267.712 232.098 261.722 265.507 275.549C323.84 299.694 311.392 287.471 149.919 306.934Z" fill="black"/>
<path d="M294.555 11.5448C293.601 7.28292 287.127 8.41685 282.918 9.57917C272.908 12.3413 252.838 19.7411 234.963 32.9592C227.651 38.3649 214.193 53.4417 210.624 58.076C198.567 73.7355 199.335 76.2172 197.83 75.9399C193.86 75.2068 182.403 77.1089 174.141 84.5839C164.913 92.9339 153.944 118.051 154.398 122.972C154.615 125.324 156.165 126.474 158.139 127.125C160.91 128.041 163.602 127.179 169.52 125.606C175.083 124.128 175.743 122.75 175.941 123.682C176.77 127.546 179.149 128.229 178.084 129.58C177.783 129.963 177.152 132.134 176.603 133.264C174.123 138.365 179.443 140.607 178.378 141.214C165.482 148.555 153.75 171.447 159.555 168.999C159.899 168.853 159.861 168.735 160.693 168.185C160.696 167.968 160.674 168.048 160.784 167.873C161.002 168.377 160.329 168.236 155.123 186.722C153.52 192.415 153.358 194.652 148.263 203.391C145.788 207.636 140.447 215.405 136.923 220.139C126.347 234.349 129.28 232.019 128.306 228.695C127.588 226.24 125.359 225.557 125.282 225.349C125.16 225.017 127.316 222.844 125.938 218.508C124.457 213.847 119.387 214.618 118.817 214.312C118.599 214.194 118.093 206.298 111.002 202.875C102.63 198.832 95.6578 204.471 95.5509 211.522C95.5292 212.985 94.6274 209.177 87.9725 207.521C78.577 205.181 67.9141 213.912 70.8767 225.289C71.7016 228.457 73.4268 229.924 72.7554 230.081C71.8386 230.294 70.4491 230.169 68.6773 231.149C65.4208 232.951 64.554 236.677 65.344 238.686C66.6532 242.011 67.5767 242.347 67.8707 243.08C67.6953 243.145 57.4499 244.321 62.4799 252.739C62.6553 253.033 62.7321 253.228 61.9539 253.3C58.5721 253.613 55.2187 256.477 56.0137 259.721C58.1613 268.491 62.2478 269.524 169.938 259.012C180.375 257.993 199.649 256.61 207.199 252.33C210.776 250.303 208.271 245.69 201.85 245.695C199.986 245.695 199.433 241.867 195.863 242.008C192.266 242.148 192.99 242.978 192.351 241.527C191.571 239.76 190.445 238.277 188.628 237.514C183.643 235.42 180.429 236.958 176.075 239.984C175.262 240.548 175.597 238.33 173.234 237.003C168.984 234.613 163.097 237.968 163.061 237.976C164.539 230.318 159.781 227.065 152.825 228.81C145.147 230.737 140.192 237.968 153.555 222.392C166.162 207.698 159.959 214.907 173.388 202.18C175.572 200.111 174.011 201.779 174.22 205.012C174.3 206.25 175.258 206.948 177.152 205.749C186.476 199.847 188.809 198.461 191.923 195.582C197.872 190.084 200.429 185.423 200.873 185.022C201.125 185.801 200.796 187.424 201.01 188.306C202.309 193.658 212.867 171.569 213.521 164.682C213.583 164.032 216.724 166.068 218.653 164.712C220.55 163.379 222.387 161.978 223.922 160.227C225.205 158.76 226.928 160.794 229.482 159.665C230.325 159.291 229.241 162.984 230.203 169.064C230.477 170.797 231.065 174.566 231.848 176.131C238.115 188.646 261.778 159.114 267.289 139.545C269.171 132.864 268.18 125.262 266.243 120.365C265.652 118.872 290.3 91.5144 294.483 55.4056C295.984 42.4514 297.754 25.8683 294.551 11.5464L294.555 11.5448ZM175.504 121.651C171.135 122.859 155.626 128.879 156.725 121.743C157.591 116.108 163.999 101.429 172.927 89.9212C182.473 77.6183 195.33 78.4182 195.33 78.2646C198.102 78.2646 197.732 76.5662 188.595 93.9025C186.549 97.7852 178.557 114.798 176.377 120.848C176.209 121.317 176.003 121.511 175.502 121.65L175.504 121.651ZM202.942 185.485C202.778 184.915 203.334 180.652 203.224 178.782C203.194 178.274 202.586 176.804 202.033 177.529C201.06 178.805 195.17 195.156 176.481 204.414C176.214 204.017 177.301 196.889 175.098 198.493C160.724 208.957 139.444 236.136 140.592 237.16C141.89 238.317 143.368 234.646 149.248 232.036C165.531 224.807 159.911 239.596 162.306 239.767C163.104 239.823 164.455 238.512 166.548 237.961C169.221 237.257 172.823 237.492 173.874 240.137C175.821 245.044 176.736 239.975 182.857 238.504C185.968 237.756 189.169 239.059 190.652 242.764C191.03 243.708 191.222 244.904 192.757 244.433C194.719 243.831 196.583 242.707 198.293 244.585C199.846 246.291 199.542 247.467 201.294 247.405C206.902 247.208 220.019 252.621 177.302 256.575C111.342 262.681 68.031 267.145 60.9652 263.684C58.6356 262.544 57.201 259.282 59.0597 256.907C61.1322 254.261 65.6696 255.144 64.9766 253.731C63.6573 251.036 62.8406 250.136 62.9575 247.681C63.0193 246.375 66.4812 244.942 68.0894 244.763C68.5437 244.713 68.9595 244.793 70.7397 244.905C71.8386 244.974 72.0223 244.184 71.3008 243.581C68.36 241.128 65.1886 235.715 68.7157 233.372C72.3496 230.959 75.9351 232.871 76.4044 232.081C76.6866 231.607 76.4996 231.619 73.9795 227.282C68.4635 217.789 77.9808 207.399 87.3846 209.646C95.2687 211.532 94.5656 215.331 96.2005 215.542C97.1441 215.663 97.1808 215.259 97.2927 212.671C97.7386 202.362 109.068 200.73 114.652 208.604C116.538 211.263 116.386 212.713 116.977 215.289C117.196 216.24 122.837 215.545 124.021 218.79C125.748 223.524 120.666 225.725 123.552 226.727C125.003 227.23 126.167 227.873 126.342 229.354C126.464 230.381 126.817 231.203 126.628 231.854C125.599 235.425 125.419 235.281 125.693 235.585C127.306 237.367 138.742 219.864 143.792 213.422C149.893 205.642 153.622 197.895 156.658 188.484C159.101 180.912 163.356 164.6 163.361 164.181C163.366 163.792 162.999 163.573 162.646 163.762C161.967 164.124 161.314 165.101 160.746 165.427C160.651 164.343 164.637 157.738 165.938 155.943C171.559 148.194 178.56 143.223 179.4 142.451C180.526 141.417 191.065 155.206 211.127 163.373C213.638 164.395 205.317 183.424 202.942 185.485ZM218.697 162.386C210.238 164.432 182.884 144.103 178.645 138.099C177.152 135.985 178.009 134.023 179.158 131.87C180.025 130.243 179.846 130.22 180.268 130.611C193.939 143.209 203.473 150.208 222.299 158.809C222.954 159.108 220.273 162.003 218.697 162.386ZM220.549 155.694C199.166 145.5 183.339 130.888 180.175 126.968C176.669 122.628 178.183 121.015 181.314 114.51C187.134 102.426 185.597 103.824 187.476 105.952C200.487 120.681 227.725 136.903 240.407 142.95C243.423 144.388 243.977 142.337 236.524 150.494C229.595 158.077 229.732 160.071 220.549 155.694ZM255.761 158.911C250.587 165.94 245.697 172.464 238.03 176.487C230.624 180.375 231.888 158.142 232.301 157.735C264.749 125.586 261.935 123.837 264.734 121.997C265.367 123.027 266.085 130.327 266.131 130.332C264.906 141.523 263.707 148.119 255.762 158.912L255.761 158.911ZM291.098 60.8164C285.062 91.3641 265.781 119.148 244.52 141.902C241.82 144.791 185.945 105.258 187.603 101.665C200.126 74.5188 221.143 42.2878 247.097 28.2414C252.235 30.5326 263.775 31.1288 286.783 55.2253C290.989 59.6307 291.325 59.6574 291.096 60.8148L291.098 60.8164ZM291.499 57.782C289.934 55.8048 282.065 41.9103 259.029 30.9435C252.878 28.0143 249.542 27.4615 248.939 27.206C250.599 25.0751 277.21 12.5584 287.758 10.5494C292.347 9.67603 292.031 10.5912 292.659 14.489C294.987 28.9194 293.17 52.5967 291.499 57.782Z" fill="black"/>
<path d="M182.379 151.496C181.314 150.517 181.294 150.193 178.408 154.256C171.85 163.49 167.783 173.413 170.696 171.619C173.258 170.043 172.299 169.138 166.908 183.565C163.583 192.464 163.649 192.346 164.305 192.735C165.011 193.154 165.347 192.361 167.523 190.176C167.526 189.74 167.667 189.856 167.641 190.088C167.638 190.126 164.089 197.628 163.809 198.364C161.488 204.443 183.401 182.902 188.052 178.794C188.147 180.363 187.681 183.516 188.755 182.367C191.925 178.971 196.404 171.574 198.693 167.306C201.78 161.552 197.957 165.801 182.379 151.492V151.496Z" fill="black"/>
<path d="M223.341 63.9879C215.863 73.6205 216.421 87.7019 225.365 96.6264C235.424 106.661 252.254 107.405 262.376 95.1986C271.753 83.891 269.74 68.6556 259.814 59.9265C248.548 50.0184 231.589 53.3651 223.343 63.9879H223.341ZM223.528 91.5062C218.672 83.4351 218.916 74.0731 223.356 66.9238C230.577 55.2972 246.25 52.5167 256.399 59.5557C266.674 66.6816 270.772 81.6298 261.926 93.3198C251.851 106.636 231.97 105.536 223.528 91.5062Z" fill="black"/>
<path d="M255.104 63.9915C242.688 54.4424 224.161 63.1364 224.233 79.4457C223.889 84.2519 227.454 92.4115 235.118 96.2792C254.226 105.923 273.518 78.1514 255.104 63.9915ZM231.741 72.4116C233.441 70.4276 245.345 66.62 246.726 66.9591C247.03 67.0342 247.168 67.3548 246.766 67.6872C246.659 67.7757 234.867 73.7593 231.965 73.761C231.268 73.761 230.954 73.3301 231.741 72.4116ZM255.976 83.1998C255.463 83.9546 238.232 91.3244 237.105 91.2475C236.938 91.2041 236.121 91.2692 235.893 90.6179C235.756 90.2355 235.943 89.8197 236.187 89.6226C239.613 86.8521 257.312 81.1975 255.976 83.1998ZM254.749 74.0148C230.731 83.3251 230.068 83.6574 229.775 83.5088C223.979 80.6113 254.653 72.0459 257.02 72.2212C257.335 72.2363 257.426 72.3799 257.446 72.5001C257.484 72.7373 257.517 72.9427 254.747 74.0165L254.749 74.0148Z" fill="#52D0B2"/>
</svg>
