<svg width="88" height="88" viewBox="0 0 88 88" fill="none" xmlns="http://www.w3.org/2000/svg">
<g clip-path="url(#clip0_4180_23609)">
<path d="M67.0184 11.8245C66.5251 11.9407 66.2926 11.9288 66.1076 11.3168C63.7904 3.64504 56.9191 -0.809993 48.9142 0.119918C42.2778 0.890891 36.4596 6.73368 35.6485 13.3593C35.3805 15.5346 35.5441 17.6578 36.0825 19.8355H35.0531C25.8551 19.8355 16.6595 19.8331 7.46153 19.8355C3.03093 19.8402 0.00446476 22.8648 0.00209292 27.2985C-0.00265076 40.3125 -0.00265076 53.3265 0.00209292 66.3405C0.00209292 70.7624 3.04042 73.7917 7.47102 73.7941C13.2678 73.7988 19.0646 73.7941 24.859 73.7941C27.0055 73.7941 26.977 73.7941 26.9936 75.9386C26.9984 76.5458 26.8015 76.6502 26.2512 76.6478C23.0896 76.6289 19.9232 76.5506 16.7757 76.9871C13.9509 77.3785 11.1924 77.9739 8.78264 79.6131C7.20537 80.6877 6.13804 82.1111 5.78227 84.0302C5.3245 86.4973 6.54363 87.9942 9.04829 87.9942C25.2551 87.9942 41.4595 87.9942 57.6663 87.9942C61.1268 87.9942 64.5873 88.0061 68.0454 87.9894C69.8291 87.9823 71.0458 86.7132 70.9794 84.9269C70.8988 82.735 69.8552 81.0531 68.119 79.7721C66.5464 78.6144 64.7486 77.9668 62.8725 77.5185C59.189 76.6407 55.4367 76.6004 51.6774 76.6289C49.6874 76.6455 49.7277 76.6289 49.6732 74.6196C49.6542 73.8913 49.8961 73.7727 50.5531 73.7775C56.6748 73.8012 62.7966 73.7917 68.9183 73.7917C73.7592 73.7917 76.6694 70.8644 76.6694 65.9966C76.6694 59.1646 76.6861 52.3326 76.6481 45.5005C76.6434 44.675 76.8876 44.3144 77.6443 43.9705C83.9486 41.1048 87.5586 36.1801 87.9713 29.2817C88.6567 17.8333 78.1898 9.20791 67.0208 11.8221L67.0184 11.8245ZM41.5283 7.17966C44.9081 3.36038 49.2439 1.97262 54.1891 3.20855C58.9352 4.39466 62.0115 7.49991 63.437 12.2135C63.6101 12.7852 63.5437 13.0817 62.965 13.383C60.3678 14.7304 58.2735 16.6638 56.7175 19.138C56.3167 19.7762 55.8921 19.9849 55.1616 19.7548C55.5601 18.4501 55.4178 17.1952 54.6469 16.0589C53.812 14.8277 52.6261 14.1991 51.1318 14.154C50.4298 14.1326 49.953 13.7673 49.7514 13.1078C49.5688 12.51 49.7752 11.9929 50.2661 11.6157C50.7618 11.2338 51.305 11.2101 51.841 11.5303C52.0118 11.6323 52.128 11.8268 52.2893 11.9502C52.5573 12.1566 52.313 12.7283 52.8396 12.733C53.6365 12.7378 54.4382 12.771 55.2304 12.6974C55.5221 12.6714 55.3608 12.2918 55.3229 12.0902C55.0525 10.7095 54.3409 9.62779 53.0602 8.99678C52.6617 8.79988 52.4553 8.58401 52.5312 8.13329C52.555 7.98858 52.536 7.83913 52.536 7.68968C52.536 5.46216 52.3344 5.30085 50.0598 5.63059C49.8131 5.66618 49.6732 5.71125 49.6945 5.98643C49.7064 6.1335 49.6874 6.28295 49.6969 6.43003C49.7799 7.72052 49.7609 8.77142 48.3521 9.64439C46.8317 10.5838 46.4996 12.3464 47.0879 14.0805C47.669 15.8027 48.9498 16.7563 50.7571 16.9864C50.9919 17.0173 51.241 16.9817 51.4592 17.0481C52.1162 17.2521 52.517 17.7028 52.5241 18.4074C52.5289 19.1143 52.1375 19.5911 51.4781 19.7785C50.8022 19.9707 50.1428 19.7382 49.9222 19.1001C49.6921 18.4287 49.3198 18.3481 48.7529 18.4145C48.5774 18.4359 48.3995 18.4169 48.2216 18.4169C47.3029 18.4169 46.9068 18.8905 47.0333 19.8378C44.5168 19.8378 42.005 19.8236 39.498 19.8497C38.9596 19.8544 38.9643 19.4844 38.8789 19.1736C37.6456 14.7091 38.471 10.6384 41.5306 7.18203L41.5283 7.17966ZM51.1318 37.5631C51.1176 37.0578 51.0512 36.8585 50.4677 36.8585C48.2738 36.8585 48.3046 36.8324 48.2572 39.0315C48.2406 39.8452 48.4422 40.4904 48.9569 41.1238C49.9412 42.3384 50.833 43.6289 51.7983 44.8624C52.0996 45.2491 52.1351 45.5077 51.8126 45.9157C50.7879 47.2133 49.8748 48.6034 48.8027 49.8583C48.1504 50.6222 48.2904 51.443 48.2809 52.2756C48.2643 53.9172 48.2761 53.9172 49.9198 53.9172C51.1152 53.9172 51.1556 53.9172 51.1034 52.7169C51.0678 51.9079 51.2504 51.2484 51.7936 50.6222C52.4696 49.8441 53.053 48.983 53.6602 48.148C53.8666 47.8657 54.0089 47.8111 54.2437 48.129C55.0264 49.2012 55.8542 50.245 56.6203 51.3291C57.0235 51.9008 56.7697 52.5935 56.7792 53.2269C56.7887 53.7298 56.8504 53.9338 57.4386 53.9338C59.6349 53.9338 59.6041 53.9623 59.6515 51.7632C59.6681 50.9519 59.4712 50.3067 58.9542 49.6685C57.9509 48.4302 57.0377 47.1184 56.0629 45.8564C55.8091 45.529 55.7759 45.3013 56.0463 44.9526C57.0259 43.6953 57.9793 42.4143 58.9186 41.1262C59.1605 40.7941 59.3123 40.7134 59.6586 41.0289C61.179 42.4143 62.8985 43.4913 64.8363 44.1935C65.2561 44.3453 65.3202 44.5967 65.3178 44.9858C65.3083 49.6282 65.2917 54.273 65.3321 58.9155C65.3392 59.6604 64.9834 59.6034 64.4829 59.6034C55.7593 59.5939 47.038 59.5963 38.3144 59.5963C29.5908 59.5963 20.9288 59.5844 12.236 59.6177C11.4723 59.62 11.3419 59.4065 11.3442 58.6949C11.3703 49.8227 11.3727 40.9506 11.3442 32.0785C11.3419 31.3289 11.534 31.1771 12.2598 31.1794C25.95 31.2032 39.6403 31.2032 53.3305 31.1794C54.0255 31.1794 54.2627 31.3479 54.3979 32.0477C54.7608 33.9122 55.496 35.6511 56.4898 37.2761C56.9761 38.0731 56.9286 39.0647 56.376 39.8096C55.6858 40.7324 54.9813 41.6433 54.3101 42.5803C54.0516 42.9409 53.8974 42.986 53.6175 42.597C52.8751 41.565 52.0948 40.564 51.3406 39.5415C50.8923 38.9319 51.1556 38.2249 51.139 37.5655L51.1318 37.5631ZM61.0675 80.0306C62.7539 80.3414 64.4118 80.7803 65.8942 81.6936C66.9259 82.3293 67.7442 83.1383 68.0692 84.3718C68.2304 84.9886 68.1166 85.1712 67.443 85.1689C60.6998 85.1451 53.9543 85.1546 47.2112 85.1546H38.248C28.6349 85.1546 19.0219 85.1546 9.40881 85.1546C8.39841 85.1546 8.37469 85.1214 8.6854 84.118C9.0388 82.9698 9.8642 82.2273 10.8533 81.6485C12.6962 80.5691 14.7454 80.1374 16.8256 79.8385C20.2956 79.3403 23.7893 79.5016 27.2783 79.466C27.6506 79.4613 27.8522 79.5989 28.061 79.8907C29.254 81.5417 30.8858 82.3246 32.9209 82.3175C36.5284 82.3056 40.1384 82.3056 43.7459 82.3175C45.781 82.3246 47.4104 81.5417 48.613 79.8954C48.7932 79.6487 48.9403 79.4613 49.3032 79.4637C53.2333 79.4921 57.1729 79.3119 61.0675 80.0283V80.0306ZM46.8483 76.6977C46.7938 78.2349 45.6078 79.4542 44.0685 79.466C40.257 79.4945 36.4454 79.4921 32.6339 79.466C31.0495 79.4566 29.8398 78.2277 29.828 76.6407C29.8209 75.7084 29.4295 74.4939 29.9988 73.9269C30.4494 73.4786 31.6756 73.7988 32.558 73.7964C34.5076 73.7893 36.4573 73.7964 38.4069 73.7964C40.978 73.7964 43.5491 73.8107 46.1178 73.7846C46.6514 73.7798 46.9218 73.851 46.8673 74.482C46.8032 75.215 46.872 75.9599 46.8459 76.6977H46.8483ZM73.8138 66.8458C73.8019 69.071 71.9495 70.8596 69.7271 70.9521C69.4614 70.964 69.1958 70.9569 68.9278 70.9569C48.5228 70.9569 28.1155 70.9569 7.71057 70.9569C4.50384 70.9569 2.84119 69.3011 2.84119 66.1081C2.84119 53.2127 2.84119 40.3149 2.84119 27.4195C2.84119 24.3973 4.54891 22.6774 7.54929 22.6774C23.0161 22.6774 38.4828 22.6774 53.952 22.6774H54.9102C54.3741 24.466 53.9615 26.2144 53.9567 28.0291C53.9567 28.3209 53.8097 28.3707 53.5701 28.3589C53.3637 28.3494 53.155 28.3589 52.9487 28.3589C38.4876 28.3589 24.0241 28.3707 9.56298 28.3328C8.6261 28.3304 8.49565 28.6056 8.49802 29.4453C8.52649 40.1227 8.52411 50.8001 8.50277 61.4799C8.50277 62.1939 8.58341 62.4643 9.42304 62.4643C28.7061 62.4335 47.9868 62.4359 67.2698 62.4596C68.0265 62.4596 68.1711 62.2579 68.1664 61.5415C68.1332 56.3369 68.1593 51.1298 68.1332 45.9252C68.1308 45.2894 68.285 45.1186 68.9064 45.2349C70.3438 45.5006 71.7929 45.4531 73.2327 45.2254C73.662 45.1566 73.8422 45.2183 73.8398 45.733C73.8209 52.7738 73.847 59.8122 73.8114 66.8529L73.8138 66.8458ZM70.9082 42.5542C63.131 42.5282 56.7863 36.1398 56.7911 28.3399C56.7958 20.5068 63.1784 14.1445 71.0221 14.154C78.8468 14.1635 85.2033 20.5637 85.1843 28.4087C85.1654 36.2252 78.7519 42.5803 70.9059 42.5519L70.9082 42.5542Z" fill="#414141"/>
<path d="M55.2757 65.2754C54.3934 65.2754 53.9522 65.7214 53.9522 66.6133C53.9522 67.6144 54.4574 68.1149 55.4678 68.1149C56.3501 68.1149 56.7913 67.669 56.7913 66.777C56.7913 65.7759 56.2861 65.2754 55.2757 65.2754Z" fill="#414141"/>
<path d="M61.0536 65.2754C60.1049 65.2754 59.6305 65.7475 59.6305 66.6916C59.6305 67.6358 60.1025 68.1102 61.0465 68.1149C61.9905 68.1197 62.4648 67.6476 62.4696 66.6987C62.4743 65.7498 62.0023 65.2754 61.0536 65.2754Z" fill="#414141"/>
<path d="M66.7009 65.2754C65.7743 65.2754 65.311 65.7293 65.311 66.637C65.311 67.6223 65.7941 68.1149 66.7602 68.1149C67.6868 68.1149 68.1501 67.6611 68.1501 66.7533C68.1501 65.768 67.6671 65.2754 66.7009 65.2754Z" fill="#414141"/>
<path d="M43.9051 49.3046C42.9967 45.3691 41.9744 41.4597 41.0304 37.5313C40.9118 37.0402 40.7553 36.8457 40.2264 36.8623C38.9575 36.9026 37.6838 36.8931 36.4125 36.8647C35.9476 36.8552 35.7602 36.9857 35.6464 37.4672C34.9562 40.3637 34.2233 43.2507 33.4998 46.1401C33.0634 47.8813 32.442 49.594 32.6531 51.4396C32.6531 52.1204 32.6602 52.7989 32.6507 53.4797C32.646 53.7478 32.6768 53.9305 33.0207 53.9186C33.8129 53.8878 34.7379 54.1226 35.3546 53.7834C35.7863 53.5485 35.4424 52.5261 35.4922 51.8595C35.4993 51.7717 35.5041 51.6792 35.4922 51.5938C35.4187 51.1478 35.6345 51.0601 36.0401 51.0648C37.5177 51.0862 38.9978 51.1051 40.4731 51.0577C41.0802 51.0387 41.1917 51.2427 41.1894 51.7978C41.1846 52.4905 40.8478 53.4441 41.3364 53.8142C41.7918 54.1582 42.6955 53.9044 43.4023 53.9138C43.49 53.9138 43.5802 53.9115 43.6679 53.9138C43.8672 53.921 44.0166 53.8735 44.0071 53.6316C43.9597 52.1869 44.2253 50.7113 43.9004 49.2999L43.9051 49.3046ZM35.8978 48.211C36.5832 45.4877 37.2592 42.8095 37.9281 40.1265C37.9897 39.875 38.0443 39.6971 38.3669 39.7113C38.6562 39.7232 38.6799 39.8916 38.7345 40.1028C39.4057 42.7857 40.0817 45.4664 40.7743 48.2134H35.9001L35.8978 48.211Z" fill="#414141"/>
<path d="M30.4046 36.8636C26.6784 36.8873 22.9523 36.8754 19.2285 36.8754C16.9705 36.8754 16.9918 36.8754 17.0227 39.1243C17.0298 39.6746 17.2338 39.734 17.6915 39.7245C19.0814 39.6984 20.4713 39.7506 21.8612 39.7007C22.5277 39.677 22.7459 39.8288 22.7388 40.5476C22.6985 44.3029 22.7198 48.0605 22.7198 51.8157C22.7198 53.9293 22.7198 53.9032 24.7905 53.9317C25.3929 53.9388 25.5898 53.8178 25.5755 53.1726C25.5305 51.0732 25.5589 48.9738 25.5589 46.8743C25.5589 44.7749 25.5755 42.5569 25.5471 40.3982C25.54 39.8787 25.6301 39.6675 26.2112 39.7007C27.1836 39.7553 28.1608 39.715 29.138 39.715C31.2514 39.715 31.2087 39.715 31.2608 37.644C31.2798 36.9063 31.0023 36.8588 30.407 36.8636H30.4046Z" fill="#414141"/>
<path d="M71.0413 16.9981C64.7654 16.9815 59.6351 22.0865 59.6328 28.3492C59.6304 34.581 64.7227 39.7003 70.9393 39.7169C77.2176 39.7335 82.3431 34.6332 82.3479 28.3634C82.355 22.134 77.2626 17.0147 71.0413 16.9981ZM70.9725 36.8773C66.2929 36.8678 62.4647 33.0225 62.4718 28.3397C62.4813 23.6593 66.3237 19.8305 71.0057 19.8376C75.6877 19.8471 79.5135 23.6878 79.5064 28.3729C79.4993 33.0557 75.6545 36.8844 70.9725 36.8749V36.8773Z" fill="#278F76"/>
<path d="M74.7414 23.5848C74.3263 23.1649 74.1128 23.191 73.712 23.599C71.3947 25.957 69.0466 28.2842 66.7079 30.6232C65.7141 31.6171 65.7189 31.6124 66.7222 32.6324C67.0329 32.9479 67.3056 33.2967 67.6235 33.6596C67.8915 33.4224 68.0717 33.2801 68.233 33.1211C70.4056 30.9529 72.5759 28.78 74.7485 26.6094C76.2664 25.0911 76.2498 25.1077 74.7437 23.5848H74.7414Z" fill="#278F76"/>
<path d="M68.1453 25.4949C68.1335 24.7334 67.4907 24.1 66.7293 24.0977C65.9324 24.0977 65.2754 24.7856 65.3133 25.5803C65.3489 26.3418 66.013 26.9586 66.772 26.9325C67.5334 26.9087 68.1572 26.254 68.1453 25.4925V25.4949Z" fill="#278F76"/>
<path d="M75.2562 29.7793C74.4593 29.7746 73.7999 30.4601 73.8331 31.2548C73.8663 32.0163 74.5257 32.6355 75.2871 32.6141C76.0484 32.5928 76.6746 31.9428 76.6675 31.1813C76.658 30.4198 76.0199 29.7841 75.2586 29.7793H75.2562Z" fill="#278F76"/>
</g>
<defs>
<clipPath id="clip0_4180_23609">
<rect width="88" height="88" fill="white"/>
</clipPath>
</defs>
</svg>
