<svg width="80" height="80" viewBox="0 0 80 80" fill="none" xmlns="http://www.w3.org/2000/svg">
<rect width="80" height="80" rx="5" fill="#2D2D43"/>
<path d="M70.8935 22.3892C70.5023 21.6757 70.091 20.9723 69.6898 20.2638C67.7659 16.8659 65.847 13.4663 63.918 10.0717C63.223 8.84953 62.0008 8.41975 60.8374 9.01573C59.9459 9.47237 59.0729 9.9693 58.2218 10.4964C57.1893 11.1361 56.872 12.3734 57.4126 13.4629C57.562 13.7617 57.7316 14.0488 57.8961 14.3409C57.9666 14.4668 58.0942 14.6095 57.9028 14.7103C57.4092 14.9722 57.0063 15.3667 56.313 15.1703C52.9788 14.2301 49.6229 13.3655 46.282 12.4489C44.2255 11.8831 42.2764 12.0309 40.433 13.1658C35.2589 16.3555 30.0814 19.5386 24.904 22.725C24.1586 23.1849 23.6784 23.8481 23.43 24.6825C22.8793 26.5292 23.5676 28.1039 25.3925 29.1901C24.9896 29.8482 24.5296 30.4794 24.2005 31.1728C23.9504 31.6982 23.7187 31.7637 23.1714 31.5958C19.9951 30.6137 17.1008 31.2282 14.6649 33.4677C12.1869 35.7442 11.319 38.6317 12.1047 41.9122C13.2916 46.8731 18.4288 49.6884 23.2654 48.0751C23.754 47.9122 23.9521 48.0079 24.1552 48.4511C24.3886 48.9615 24.7126 49.4299 25.0181 49.952C23.9554 50.2844 22.9549 50.7411 21.9979 51.3001C20.2318 52.3326 18.4573 53.3516 16.6845 54.3757C16.1898 54.6611 15.802 54.5648 15.5211 54.0869C14.7656 52.801 13.5132 52.4534 12.2004 53.177C11.4684 53.5799 10.7398 53.9879 10.0196 54.4093C8.77557 55.1362 8.39952 56.3852 9.09791 57.6276C11.4382 61.7961 13.7936 65.9579 16.1573 70.1129C16.8406 71.315 18.1148 71.6423 19.3454 70.9842C19.8423 70.719 20.3309 70.4353 20.8228 70.1599C23.1026 68.884 23.3343 68.1202 22.1557 65.795C22.097 65.6792 21.9056 65.5113 22.0735 65.424C22.5284 65.189 22.8676 64.7004 23.5189 64.8801C26.9202 65.8135 30.3349 66.6982 33.7346 67.635C35.9388 68.2427 37.9685 67.9624 39.9092 66.7251C42.4275 65.1201 44.991 63.5874 47.5344 62.021C50.0426 60.4765 52.5558 58.9438 55.0522 57.3808C57.3622 55.9353 57.3203 52.3796 54.9682 51.1205C54.525 50.8838 54.5217 50.778 54.797 50.3868C57.5704 46.4315 58.6549 42.0565 57.9935 37.2602C57.656 34.804 56.8233 32.5242 55.529 30.4173C55.3409 30.1117 55.3544 29.9892 55.7036 29.8784C56.3616 29.6719 56.9795 29.3647 57.5771 29.0205C59.4943 27.9159 61.4132 26.8095 63.3304 25.7049C63.8229 25.4206 64.2101 25.5185 64.4922 25.9986C65.2325 27.2578 66.495 27.6271 67.7625 26.9388C68.5146 26.5308 69.2583 26.1061 69.9953 25.673C71.2544 24.9326 71.5936 23.6869 70.8868 22.3942L70.8935 22.3892ZM20.529 46.5255C16.8423 46.5239 13.8473 43.5003 13.8674 39.8002C13.8876 36.137 16.9128 33.137 20.5592 33.1689C24.2526 33.1991 27.2258 36.2277 27.1972 39.9261C27.1687 43.5456 24.1535 46.5306 20.529 46.5272V46.5255ZM20.5038 68.0127C19.8692 68.3737 19.2128 68.6994 18.6034 69.0989C18.1534 69.3927 17.9705 69.2383 17.7438 68.832C16.0919 65.884 14.4214 62.9461 12.7577 60.0048C12.1617 58.9521 11.5826 57.8895 10.9664 56.8486C10.7465 56.4759 10.7717 56.2711 11.1729 56.0663C11.8226 55.7339 12.4539 55.3645 13.0784 54.9868C13.4141 54.7836 13.624 54.7988 13.8322 55.1681C16.1137 59.2224 18.4069 63.2701 20.6952 67.3194C20.7455 67.41 20.7875 67.504 20.816 67.5611C20.858 67.8499 20.665 67.9221 20.5055 68.0127H20.5038ZM54.6879 53.7797C54.8876 54.5637 54.6257 55.2789 53.966 55.6852C48.8288 58.8514 43.6899 62.0126 38.5511 65.1755C37.752 65.6674 36.8941 65.9612 35.9405 65.9394C34.5051 65.8773 33.1705 65.3535 31.7989 65.0043C29.2723 64.3613 26.7456 63.7082 24.2459 62.9662C23.2638 62.6758 22.4176 62.6539 21.6168 63.3188C21.1333 63.72 20.8832 63.6125 20.581 63.0535C19.4898 61.0339 18.3499 59.0394 17.1932 57.0584C16.9447 56.632 17.0454 56.4809 17.4282 56.2644C19.3723 55.1647 21.2979 54.0349 23.2335 52.9202C23.9387 52.5139 24.6589 52.1412 25.4597 51.9414C26.2319 51.7483 26.9891 51.7651 27.7412 52.027C30.5968 53.0192 33.4223 54.1037 36.3988 54.7165C37.2634 54.8944 37.7201 55.6768 37.5253 56.4507C37.3239 57.2515 36.5718 57.6762 35.6467 57.4412C33.9075 57.0014 32.1766 56.5263 30.4457 56.0562C30.1553 55.9773 29.8649 55.9152 29.5862 56.026C29.1866 56.1855 28.9499 56.491 28.9449 56.9409C28.9398 57.4462 29.1917 57.7887 29.6634 57.9214C32.1346 58.6097 34.5756 59.4373 37.1409 59.721C38.5746 59.8789 39.9176 59.5347 41.165 58.8061C43.9585 57.1743 46.7555 55.5475 49.5524 53.9207C50.3481 53.4591 51.159 53.036 52.0605 52.806C52.4299 52.712 52.8026 52.6717 53.1786 52.6868C53.9693 52.717 54.5183 53.1233 54.6862 53.778L54.6879 53.7797ZM39.7733 42.5232C44.8433 42.3973 49.2552 45.6626 50.6268 50.5329C50.746 50.9576 50.6671 51.1305 50.2575 51.3219C47.7174 52.5038 45.3889 54.0668 42.9513 55.4367C41.7895 56.0898 40.6412 56.768 39.3703 57.5017C40.1778 54.6611 38.3446 52.8648 36.3031 52.5995C35.6853 52.5189 35.0742 52.3527 34.4783 52.1647C32.9875 51.6929 31.5101 51.1792 30.021 50.7008C29.655 50.5832 29.5593 50.4573 29.6869 50.0443C31.0249 45.7449 35.1733 42.6357 39.7733 42.5216V42.5232ZM35.0642 35.4856C35.0457 32.7106 37.2769 30.4525 40.0536 30.4358C42.8203 30.419 45.0867 32.6568 45.1152 35.4286C45.1421 38.1684 42.8774 40.46 40.1124 40.4902C37.3658 40.5204 35.0843 38.2574 35.0659 35.4856H35.0642ZM52.5793 49.9453C51.2278 45.6727 48.4695 42.7448 44.2876 41.1651C48.2278 37.9216 47.6838 32.9892 44.9742 30.3938C42.1303 27.6691 37.626 27.7916 34.9534 30.6339C32.373 33.3754 32.1716 38.1701 35.9019 41.1516C31.7384 42.7281 28.9717 45.6173 27.5934 49.9369C26.7792 49.0219 26.1899 48.0549 25.7014 47.0292C25.5671 46.7471 25.918 46.6666 26.0741 46.5339C29.88 43.3106 30.2947 37.7571 26.9958 34.0553C26.7456 33.7749 26.4938 33.4761 26.1849 33.2746C25.6813 32.9456 25.5889 32.6182 25.9532 32.1213C26.2487 31.7184 26.4804 31.2701 26.7423 30.842C27.308 29.9136 27.9846 29.185 29.1547 28.9702C30.0563 28.8056 30.8436 28.2684 31.6377 27.8067C34.3087 26.2538 36.9763 24.6959 39.6473 23.143C39.9479 22.9684 40.2349 22.7552 40.6345 22.6796C40.4834 23.331 40.3373 23.9505 40.4901 24.6052C40.8175 25.997 41.6619 26.9975 43.0184 27.2829C45.9547 27.9007 48.7398 28.955 51.5586 29.9254C51.7164 29.9791 51.8758 30.0748 52.0353 30.0748C52.9453 30.0681 53.3532 30.6809 53.7712 31.3591C57.3488 37.1661 56.877 44.9441 52.5809 49.9419L52.5793 49.9453ZM62.6354 23.786C60.6544 24.9041 58.6952 26.0608 56.7226 27.194C56.1619 27.5163 55.586 27.8067 54.9682 28.0132C54.0231 28.3305 53.098 28.3305 52.1478 27.9998C49.3526 27.0261 46.5842 25.9617 43.6681 25.3691C42.7884 25.1895 42.3116 24.4373 42.4829 23.6684C42.6642 22.8542 43.4146 22.3925 44.3262 22.6192C46.0671 23.0523 47.7963 23.5341 49.5305 23.9941C49.6716 24.0311 49.8126 24.0781 49.9553 24.0915C50.5126 24.1436 50.8904 23.8901 51.0499 23.3629C51.2043 22.8525 50.9491 22.3338 50.4018 22.1726C47.9004 21.4373 45.4107 20.6432 42.8052 20.3377C42.6189 20.3158 42.4291 20.3343 42.2411 20.3343C40.9753 20.3192 39.8203 20.6969 38.7357 21.3332C35.9808 22.9482 33.2208 24.5565 30.4575 26.1565C29.3881 26.7743 28.3002 27.3652 27.0176 27.3853C25.7971 27.4055 25.1508 26.6668 25.317 25.4631C25.3774 25.0283 25.5755 24.6825 25.9633 24.4441C31.2113 21.2207 36.4542 17.989 41.7072 14.7707C42.921 14.027 44.2305 13.9884 45.5786 14.351C48.9832 15.266 52.4047 16.1238 55.7908 17.1043C56.8149 17.4014 57.6577 17.3695 58.4736 16.7131C58.9269 16.3471 59.1451 16.4848 59.4137 16.9767C60.5234 19.0097 61.6751 21.021 62.8352 23.0255C63.0484 23.3931 63.0316 23.561 62.6387 23.7826L62.6354 23.786ZM68.8772 23.9824C68.2594 24.3299 67.6299 24.6606 67.0339 25.0434C66.5856 25.3305 66.3657 25.223 66.1156 24.7748C64.1279 21.2258 62.1166 17.6902 60.1138 14.1496C59.8569 13.6963 59.6169 13.2312 59.3399 12.7897C59.1233 12.4456 59.1753 12.2323 59.5363 12.041C60.1625 11.7102 60.7954 11.3829 61.3863 10.9934C61.848 10.6895 62.0461 10.8272 62.2912 11.2637C64.4133 15.0477 66.5554 18.8217 68.6909 22.599C68.8755 22.9247 69.0619 23.2504 69.2281 23.5442C69.2164 23.8179 69.0418 23.8917 68.8772 23.9841V23.9824Z" fill="white"/>
<path d="M21.6657 39.0592C21.1284 38.893 20.5677 38.8041 20.0271 38.653C19.6746 38.5539 19.3287 38.3743 19.3355 37.9479C19.3422 37.4812 19.6863 37.2629 20.096 37.1504C20.8632 36.9389 21.3819 37.179 21.9108 37.9865C22.2499 38.5019 22.7653 38.6614 23.2555 38.4011C23.7424 38.1426 23.922 37.6054 23.6819 37.0581C23.3411 36.2791 22.7905 35.6949 21.9947 35.3776C21.7009 35.2601 21.5515 35.1291 21.4961 34.7783C21.4172 34.278 21.0529 33.9875 20.5123 33.9943C20.0036 33.9993 19.6225 34.2746 19.5722 34.7464C19.5268 35.1728 19.2985 35.2702 18.9896 35.4179C17.9404 35.9182 17.3175 36.7442 17.3091 37.926C17.2991 39.123 17.942 39.9222 19.0081 40.4057C19.4278 40.597 19.8693 40.7162 20.3226 40.8052C20.7708 40.8942 21.2342 40.958 21.622 41.23C22.0417 41.5254 22.0854 41.9888 21.7311 42.2826C20.9169 42.9558 19.4496 42.6099 19.0316 41.6329C18.8402 41.1846 18.538 40.9211 18.162 40.9143C17.383 40.9328 16.9348 41.5187 17.0993 42.1735C17.3696 43.2496 18.0629 43.9564 19.082 44.3509C19.3472 44.4533 19.5185 44.5439 19.5554 44.8915C19.6057 45.3733 19.9449 45.6671 20.4502 45.7006C20.9824 45.7359 21.3887 45.4824 21.4726 44.9754C21.5414 44.5607 21.7647 44.455 22.0854 44.3341C23.3613 43.8506 24.0529 42.9037 23.9959 41.7588C23.9321 40.4661 23.1246 39.5142 21.6623 39.0609L21.6657 39.0592Z" fill="#52D0B2"/>
<path d="M13.0549 56.2031C12.4908 56.2082 12.0644 56.643 12.0711 57.2037C12.0778 57.756 12.5278 58.1992 13.0767 58.1942C13.6274 58.1875 14.0656 57.7376 14.0605 57.1819C14.0555 56.6211 13.6207 56.1981 13.0549 56.2048V56.2031Z" fill="#CECEF0"/>
<path d="M66.97 21.8848C66.4177 21.8781 65.9711 22.3146 65.9611 22.8703C65.9527 23.4327 66.374 23.8642 66.9415 23.8726C67.5089 23.881 67.9421 23.4613 67.9505 22.8988C67.9588 22.3448 67.5224 21.8932 66.97 21.8848Z" fill="#CECEF0"/>
</svg>
