<svg width="167" height="38" viewBox="0 0 167 38" fill="none" xmlns="http://www.w3.org/2000/svg">
<g clip-path="url(#clip0_4197_2098)">
<path d="M34.7103 12.7595C34.7271 10.2232 33.6256 8.40527 31.3668 7.21173C29.6782 6.31657 29.6894 6.28894 29.6894 8.17319C29.6894 10.6376 29.6894 13.0966 29.6894 15.561C29.6894 18.2465 29.6894 20.9375 29.6894 23.623C29.6894 25.253 28.9737 26.4742 27.5647 27.2809C24.2099 29.2094 20.8384 31.1158 17.4781 33.0332C15.9628 33.8952 14.4476 34.7682 12.9156 35.6136C12.4124 35.8955 12.4012 36.0668 12.9212 36.3375C13.6201 36.6967 14.2575 37.1774 14.9732 37.4868C16.6785 38.2107 18.4062 38.2052 20.0389 37.2879C23.9248 35.1108 27.7883 32.895 31.6519 30.6903C33.6368 29.5575 34.6936 27.8611 34.6936 25.5735C34.6936 21.3022 34.6768 17.0308 34.7047 12.7595H34.7103Z" fill="white"/>
<path d="M26.6757 23.0428C26.782 22.424 26.7932 21.794 26.7876 21.1641C26.782 18.9262 26.7876 16.6938 26.7876 14.4559H26.7932C26.7932 12.1186 26.782 9.78123 26.7932 7.4494C26.8043 5.48779 25.988 4.02901 24.2435 3.06755C22.8904 2.32158 21.5709 1.51484 20.2122 0.779921C18.3336 -0.236801 16.4214 -0.281006 14.5427 0.774396C10.6008 2.99571 6.64781 5.21151 2.74511 7.51018C1.00063 8.53243 0.0277519 10.1404 0.0165693 12.1849C-0.011387 16.6607 -0.000204464 21.1309 0.0109781 25.6067C0.0109781 27.8391 1.06773 29.4858 2.99112 30.5964C4.43926 31.4308 5.8874 32.2652 7.3579 33.0443C8.75013 33.7847 10.1927 33.7958 11.5737 33.0111C16.1306 30.4251 20.6651 27.8115 25.2164 25.2144C26.0775 24.7226 26.508 23.9767 26.6757 23.0428ZM20.6483 22.1753C17.4054 23.9822 14.1457 25.7725 10.9643 27.6899C9.79011 28.3972 8.90669 28.4083 7.73811 27.6623C7.43618 27.4744 7.18458 27.3252 6.91619 27.1484C5.6973 26.3417 4.97602 25.2476 4.97602 23.7722C4.96484 20.6613 4.97602 17.5448 4.96484 14.4338C4.96484 12.8038 5.68612 11.5881 7.08952 10.7759C9.84602 9.18446 12.6081 7.59859 15.3981 6.05141C16.6841 5.3386 18.0205 5.37175 19.3232 6.07903C19.8768 6.38295 20.4023 6.74764 20.9726 7.00735C21.5318 7.26705 21.7275 7.62622 21.7163 8.23957C21.6771 10.2454 21.6995 12.2567 21.6995 14.2625H21.7331C21.7331 16.2684 21.7163 18.2797 21.7386 20.2855C21.7498 21.1531 21.4199 21.7388 20.6428 22.1753H20.6483Z" fill="white"/>
<path d="M18.7418 8.29041C18.753 7.69916 18.602 7.56654 18.0485 7.89256C15.2249 9.52816 12.3845 11.1417 9.54974 12.7662C8.49299 13.3685 7.95064 14.2692 7.95064 15.4848C7.95064 18.7505 7.95623 22.0162 7.93945 25.2818C7.93945 25.8952 8.11278 25.9062 8.58245 25.6244C9.84608 24.8785 11.1153 24.1435 12.4069 23.4418C12.7983 23.2263 12.9325 22.961 12.9213 22.5411C12.8989 21.7122 12.9157 20.8834 12.9157 20.0545C12.9157 19.3252 12.9548 18.5958 12.9045 17.8719C12.8374 16.916 13.2847 16.3137 14.0843 15.8661C15.4318 15.1146 16.7569 14.3189 18.11 13.584C18.574 13.3353 18.7586 13.0425 18.7474 12.5175C18.7138 11.114 18.725 9.70498 18.7474 8.29593L18.7418 8.29041Z" fill="white"/>
<path d="M54.274 2.16504H50.0526V8.06645H46.6699V11.3376H50.0526V21.0683C50.0526 22.9471 50.349 24.439 50.9472 25.5386C51.5399 26.6437 52.4233 27.4173 53.5919 27.8704C54.7549 28.3235 56.1918 28.5446 57.886 28.5446H60.9668V24.7098H57.5449C56.505 24.7098 55.6998 24.4279 55.1295 23.8643C54.5592 23.3007 54.274 22.494 54.274 21.4386V11.3376H60.9668V8.06645H54.274V2.16504Z" fill="white"/>
<path d="M76.7791 8.59095C75.4093 8.06601 73.6872 7.80078 71.6072 7.80078C70.9474 7.80078 70.2597 7.81183 69.5329 7.83946C68.8116 7.86709 68.1127 7.89472 67.4417 7.9334C66.7708 7.97208 66.1557 8.01628 65.5966 8.06601V11.8621C66.2284 11.8124 66.9609 11.7682 67.7828 11.7295C68.6047 11.6908 69.449 11.6632 70.31 11.6356C71.1711 11.6135 71.9595 11.5969 72.6696 11.5969C73.9611 11.5969 74.9396 11.9229 75.5994 12.575C76.2592 13.227 76.589 14.1774 76.589 15.4317V15.8075H71.9147C70.1143 15.8075 68.5712 16.0451 67.274 16.5203C65.9824 16.9955 64.9872 17.7083 64.2882 18.6642C63.5893 19.6147 63.2427 20.8193 63.2427 22.2725C63.2427 23.7258 63.5446 24.8364 64.1541 25.8255C64.7635 26.8146 65.6246 27.5661 66.7372 28.08C67.8499 28.5939 69.1582 28.848 70.6511 28.848C72.144 28.848 73.3181 28.5883 74.319 28.08C75.3198 27.5661 76.1082 26.8257 76.6785 25.8642C76.9357 25.4332 77.137 24.9469 77.3047 24.4165V28.3231H80.8384V15.6528C80.8384 13.7519 80.5029 12.2268 79.832 11.0886C79.161 9.95027 78.1378 9.11589 76.7735 8.59095H76.7791ZM74.0394 25.1072C73.3293 25.3945 72.5801 25.5382 71.7973 25.5382C70.4554 25.5382 69.4266 25.2343 68.7165 24.6154C68.0064 24.002 67.6542 23.1842 67.6542 22.1565C67.6542 21.1287 68.0064 20.2943 68.7165 19.6589C69.4266 19.0179 70.4498 18.7029 71.7973 18.7029H76.589V20.8082C76.5387 22.0349 76.2759 22.9853 75.8118 23.665C75.3422 24.3391 74.7551 24.8254 74.045 25.1127L74.0394 25.1072Z" fill="white"/>
<path d="M101.453 8.06543H96.8906L92.6357 15.4311H92.0654L87.5364 8.06543H82.672L89.0349 18.1166L82.3701 28.317H86.9326L91.9871 20.3877H92.5183L97.8412 28.317H102.711L95.5375 17.7851L101.453 8.06543Z" fill="white"/>
<path d="M115.901 8.59095C114.531 8.06601 112.809 7.80078 110.729 7.80078C110.07 7.80078 109.382 7.81183 108.655 7.83946C107.934 7.86709 107.235 7.89472 106.564 7.9334C105.893 7.97208 105.278 8.01628 104.719 8.06601V11.8621C105.35 11.8124 106.083 11.7682 106.905 11.7295C107.727 11.6908 108.571 11.6632 109.432 11.6356C110.293 11.6135 111.082 11.5969 111.792 11.5969C113.083 11.5969 114.062 11.9229 114.721 12.575C115.381 13.227 115.711 14.1774 115.711 15.4317V15.8075H111.037C109.236 15.8075 107.693 16.0451 106.396 16.5203C105.104 16.9955 104.109 17.7083 103.41 18.6642C102.711 19.6147 102.365 20.8193 102.365 22.2725C102.365 23.7258 102.667 24.8364 103.276 25.8255C103.886 26.8146 104.747 27.5661 105.859 28.08C106.972 28.5939 108.28 28.848 109.773 28.848C111.266 28.848 112.44 28.5883 113.441 28.08C114.442 27.5661 115.23 26.8257 115.801 25.8642C116.058 25.4332 116.259 24.9469 116.427 24.4165V28.3231H119.96V15.6528C119.96 13.7519 119.625 12.2268 118.954 11.0886C118.283 9.95027 117.26 9.11589 115.896 8.59095H115.901ZM113.161 25.1072C112.451 25.3945 111.702 25.5382 110.919 25.5382C109.577 25.5382 108.549 25.2343 107.839 24.6154C107.129 24.002 106.776 23.1842 106.776 22.1565C106.776 21.1287 107.129 20.2943 107.839 19.6589C108.549 19.0179 109.572 18.7029 110.919 18.7029H115.711V20.8082C115.661 22.0349 115.398 22.9853 114.934 23.665C114.464 24.3391 113.877 24.8254 113.167 25.1127L113.161 25.1072Z" fill="white"/>
<path d="M141.034 10.4704C140.172 9.52001 139.144 8.77404 137.953 8.23253C136.762 7.69654 135.431 7.42578 133.961 7.42578C132.412 7.42578 130.997 7.76285 129.7 8.4425C128.408 9.11663 127.368 10.1444 126.58 11.5258C126.312 11.9955 126.088 12.5094 125.898 13.0675V8.06676H122.364V35.8332H126.815V25.456C127.609 26.6219 128.582 27.4895 129.745 28.0531C131.036 28.6775 132.429 28.9925 133.927 28.9925C135.425 28.9925 136.728 28.7162 137.919 28.1636C139.11 27.611 140.139 26.8595 141 25.9091C141.861 24.9587 142.521 23.8481 142.979 22.5827C143.438 21.3173 143.661 19.969 143.661 18.5434V17.8306C143.661 16.3774 143.438 15.0236 142.996 13.7748C142.554 12.5204 141.9 11.4208 141.039 10.4704H141.034ZM138.428 21.8367C137.908 22.9032 137.181 23.7265 136.242 24.3177C135.302 24.909 134.212 25.2018 132.971 25.2018C131.881 25.2018 130.852 24.9642 129.89 24.489C128.928 24.0138 128.146 23.3176 127.553 22.4059C126.955 21.4941 126.658 20.3945 126.658 19.1181V17.5046C126.658 16.1784 126.949 15.0457 127.531 14.1063C128.112 13.1669 128.884 12.4486 129.851 11.9458C130.813 11.4429 131.853 11.1943 132.971 11.1943C134.24 11.1943 135.336 11.4871 136.259 12.0784C137.181 12.6696 137.908 13.4874 138.428 14.5373C138.948 15.5872 139.205 16.8028 139.205 18.1843C139.205 19.5657 138.948 20.7813 138.428 21.8478V21.8367Z" fill="white"/>
<path d="M166.334 13.7748C165.892 12.5204 165.238 11.4208 164.377 10.4704C163.516 9.52001 162.487 8.77404 161.296 8.23253C160.106 7.69654 158.775 7.42578 157.304 7.42578C155.756 7.42578 154.341 7.76285 153.044 8.4425C151.752 9.11663 150.712 10.1444 149.924 11.5258C149.655 11.9955 149.432 12.5094 149.242 13.0675V8.06676H145.708V35.8332H150.159V25.4616C150.953 26.6275 151.925 27.495 153.088 28.0586C154.38 28.683 155.772 28.998 157.271 28.998C158.769 28.998 160.072 28.7217 161.263 28.1691C162.454 27.6166 163.483 26.8651 164.344 25.9147C165.205 24.9642 165.865 23.8536 166.323 22.5882C166.776 21.3228 167.005 19.9746 167.005 18.5489V17.8361C167.005 16.3829 166.781 15.0291 166.34 13.7803L166.334 13.7748ZM161.772 21.8367C161.252 22.9032 160.525 23.7265 159.586 24.3177C158.646 24.909 157.556 25.2018 156.315 25.2018C155.224 25.2018 154.196 24.9642 153.234 24.489C152.272 24.0138 151.489 23.3176 150.897 22.4059C150.298 21.4941 150.002 20.3945 150.002 19.1181V17.5046C150.002 16.1784 150.293 15.0457 150.874 14.1063C151.456 13.1669 152.233 12.4486 153.195 11.9458C154.156 11.4429 155.196 11.1943 156.315 11.1943C157.584 11.1943 158.68 11.4871 159.602 12.0784C160.525 12.6696 161.252 13.4874 161.772 14.5373C162.292 15.5872 162.549 16.8028 162.549 18.1843C162.549 19.5657 162.292 20.7813 161.772 21.8478V21.8367Z" fill="white"/>
</g>
<defs>
<clipPath id="clip0_4197_2098">
<rect width="167" height="38" fill="white"/>
</clipPath>
</defs>
</svg>
