<svg width="32" height="32" viewBox="0 0 32 32" fill="none" xmlns="http://www.w3.org/2000/svg">
<rect width="32" height="32" rx="16" fill="#2EAB8D"/>
<path d="M22.916 23.8441C20.9521 20.866 18.9885 17.8877 17.0219 14.9115C16.9564 14.8123 16.9434 14.7539 17.0286 14.6519C17.8516 13.6661 18.6681 12.6746 19.4854 11.6837C20.4979 10.4563 21.5096 9.22813 22.5216 8.00017H21.202C21.1249 8.04088 21.0661 8.10263 21.0104 8.17065C20.6115 8.65634 20.2141 9.14341 19.812 9.62614C19.2822 10.262 18.7572 10.9021 18.2291 11.5393C17.6293 12.2633 17.0296 12.9873 16.4351 13.7159C16.3578 13.8105 16.3273 13.7962 16.2677 13.7045C15.7136 12.8518 15.1484 12.0069 14.5902 11.157C13.9561 10.1912 13.3176 9.22831 12.6834 8.2625C12.6223 8.16943 12.572 8.06384 12.4754 8H8.00718C8.0157 8.06019 8.05911 8.09933 8.0895 8.14543C9.98197 11.0168 11.8744 13.8884 13.7714 16.7566C13.8462 16.8697 13.833 16.9288 13.7527 17.0257C11.8729 19.296 9.99666 21.5693 8.12005 23.842C8.08315 23.8867 8.04842 23.9335 8 23.9956C8.41259 23.9956 8.8013 23.9922 9.19001 23.9982C9.28469 23.9998 9.3438 23.9685 9.40458 23.8947C10.5884 22.4565 11.7746 21.0205 12.9606 19.5843C13.4522 18.989 13.9442 18.3941 14.4428 17.791C14.4784 17.8398 14.5098 17.8795 14.5375 17.9218C15.8461 19.9056 17.155 21.889 18.4608 23.8747C18.5169 23.9601 18.5707 23.9989 18.6746 23.9986C20.074 23.9944 21.4735 23.996 22.8729 23.9946C22.9135 23.9946 22.9604 24.0162 23 23.9732C22.9713 23.929 22.9439 23.8864 22.916 23.8441ZM20.5761 23.0018C20.1513 23.0018 19.7265 22.9983 19.3017 23.0044C19.2004 23.0058 19.1413 22.9721 19.0833 22.8854C16.7554 19.4114 14.4249 15.939 12.0948 12.4665C11.3572 11.3673 10.6193 10.2682 9.88228 9.16846C9.85791 9.13211 9.81967 9.10132 9.8205 9.03713C10.345 9.03713 10.8691 9.06235 11.3897 9.02791C11.719 9.00616 11.8998 9.12567 12.0857 9.40365C15.0842 13.8926 18.095 18.3727 21.102 22.8555C21.1287 22.8955 21.1733 22.9284 21.1716 23.0018H20.5761Z" fill="white"/>
</svg>
