<svg width="88" height="96" viewBox="0 0 88 96" fill="none" xmlns="http://www.w3.org/2000/svg">
<g clip-path="url(#clip0_4180_23625)">
<path d="M87.7579 64.5885C86.432 56.1173 80.1006 49.527 71.6667 47.8417C70.6772 47.6443 70.1819 47.0298 70.1806 45.9981C70.1806 37.9944 70.1806 29.9888 70.1806 21.9851C70.1806 21.6443 70.175 21.3035 70.1993 20.9609C70.2272 20.5568 70.432 20.3408 70.8436 20.3184C71.1546 20.3017 71.4637 20.3017 71.7747 20.3017C75.5587 20.298 79.3445 20.3278 83.1285 20.2868C85.0782 20.2663 85.9814 19.3389 85.9963 17.4134C86.0168 14.838 86.0447 12.2626 85.9926 9.68902C85.8901 4.71323 81.6164 -0.00558164 76.4637 4.95553e-06C54.2235 0.0260757 31.9814 4.95595e-06 9.7393 0.0204891C5.74116 0.0242135 2.9609 2.0596 1.13781 5.52514C0.199262 7.30913 0.00373131 9.24582 0.00373131 11.216C6.91452e-06 38.1136 6.91452e-06 65.0112 0.00186911 91.9088C0.00186911 92.3129 -0.00930407 92.7151 0.0204911 93.1192C0.106152 94.2644 0.512111 95.1657 1.77282 95.4134H68.4078C69.6667 95.1676 70.095 94.2682 70.1564 93.1229C70.2216 91.9143 70.1732 90.7039 70.1788 89.4935C70.1881 87.5605 70.0782 87.7989 71.8808 87.4339C82.3911 85.2998 89.4171 75.1955 87.7561 64.5885H87.7579ZM69.8585 10.0652C69.9143 6.70205 72.4004 4.15829 75.6853 4.06891C78.8603 3.98138 81.5289 6.43762 81.7263 9.75978C81.838 11.6425 81.7393 13.5382 81.7747 15.4283C81.7859 16.0168 81.4488 15.9758 81.0615 15.9739C79.2961 15.9683 77.5289 15.9721 75.7635 15.9721C73.9981 15.9721 72.2309 15.9553 70.4656 15.9832C69.9814 15.9907 69.8305 15.8585 69.838 15.3631C69.8678 13.5978 69.8268 11.8305 69.8566 10.0652H69.8585ZM65.8641 88.2886C65.7989 89.121 65.8175 89.9646 65.8603 90.7989C65.8883 91.3482 65.6778 91.527 65.1657 91.46C65.013 91.4395 64.8566 91.4562 64.7002 91.4562C44.9441 91.4562 25.1862 91.4507 5.43017 91.4767C4.54749 91.4767 4.30913 91.2886 4.30913 90.3762C4.33706 63.7616 4.33148 37.1471 4.33334 10.5326C4.33334 7.35568 5.88269 5.12105 8.61639 4.31658C9.27561 4.12291 9.95159 4.05587 10.6369 4.05587C29.432 4.05587 48.2272 4.05587 67.0224 4.06146C67.2253 4.06146 67.4507 3.97766 67.7169 4.20298C65.6015 6.71509 65.8436 9.79516 65.8324 12.7616C65.7859 24.0838 65.825 35.406 65.8659 46.7281C65.8697 47.6015 65.7114 47.892 64.7486 47.9944C56.4451 48.8697 49.216 55.6834 47.7616 63.9069C45.8324 74.8138 52.5345 84.7989 63.3482 87.1192C63.892 87.2365 64.4488 87.3836 64.9963 87.3762C65.6872 87.3669 65.9181 87.5922 65.8641 88.2886ZM68.0019 83.4972C59.1769 83.5307 52.0149 76.4842 51.9888 67.7412C51.9609 58.838 59.0224 51.7412 67.9311 51.7169C76.5903 51.6927 83.676 58.838 83.7114 67.6294C83.7449 76.3054 76.6592 83.4637 68.0037 83.4972H68.0019Z" fill="#414141"/>
<path d="M20.1992 30.1745C21.4376 26.871 22.5829 23.8189 23.73 20.7648C23.9032 20.303 24.0689 19.8356 24.2588 19.3812C24.7523 18.1969 25.7896 17.6922 26.851 18.1094C27.9311 18.5321 28.4134 19.5935 27.9758 20.7835C26.8045 23.9716 25.594 27.1447 24.4004 30.3254C23.6741 32.2621 22.9516 34.2006 22.2235 36.1373C21.784 37.3067 21.1061 37.8915 20.175 37.8468C19.1061 37.7965 18.5382 37.1317 18.1843 36.1801C16.2905 31.087 14.3762 26.0013 12.4786 20.9082C12.067 19.8021 12.3035 18.9008 13.1005 18.3421C13.8212 17.8356 14.73 17.8524 15.4395 18.3756C15.9181 18.7276 16.1061 19.249 16.3017 19.7723C17.5661 23.154 18.8343 26.5321 20.2011 30.1783L20.1992 30.1745Z" fill="#2EAB8D"/>
<path d="M26.2495 69.582C30.6238 69.582 34.9963 69.582 39.3706 69.582C39.8045 69.582 40.2421 69.5616 40.6592 69.7105C41.5028 70.0141 41.9776 70.6044 42.0112 71.5131C42.0447 72.4089 41.5382 73.1835 40.7002 73.4349C40.3221 73.5485 39.9069 73.5783 39.5084 73.5802C30.6071 73.5876 21.7039 73.5858 12.8026 73.5858C12.6164 73.5858 12.4302 73.5932 12.2439 73.5765C11.0708 73.4647 10.3091 72.6919 10.2998 71.6062C10.2886 70.4815 11.0708 69.6472 12.2924 69.5988C13.6238 69.5467 14.959 69.582 16.2924 69.582C19.6108 69.582 22.9311 69.582 26.2495 69.582Z" fill="#414141"/>
<path d="M51.9814 29.2078C51.9814 31.3475 51.9851 33.4872 51.9795 35.6268C51.9777 36.5356 51.6313 37.273 50.7672 37.6529C50.0633 37.962 49.3725 37.8689 48.7561 37.3885C48.1043 36.8801 47.9758 36.1687 47.9758 35.394C47.9814 31.2078 47.9609 27.0216 47.9963 22.8354C48.0019 22.1091 47.8231 21.8633 47.0782 21.9136C46.0913 21.9806 45.095 21.949 44.1024 21.9229C42.8995 21.8912 42.0503 21.0756 42.0354 19.9844C42.0186 18.8577 42.9032 17.9862 44.1434 17.9806C48.0503 17.9657 51.9572 17.9639 55.8641 17.9806C57.0484 17.9862 57.9125 18.8447 57.9274 19.9378C57.9423 21.0253 57.0875 21.8857 55.9032 21.9192C54.8194 21.9508 53.7319 21.9583 52.6481 21.9192C52.1043 21.8987 51.9665 22.0849 51.9721 22.6063C51.9963 24.8074 51.9832 27.0104 51.9832 29.2115L51.9814 29.2078Z" fill="#2EAB8D"/>
<path d="M26.1006 63.6265C21.7579 63.6265 17.4172 63.6265 13.0745 63.6265C12.7654 63.6265 12.4525 63.634 12.1453 63.6098C11.0484 63.5241 10.3054 62.7364 10.2998 61.6694C10.2942 60.6154 11.0466 59.7867 12.1173 59.6843C12.3948 59.6582 12.676 59.6712 12.9535 59.6712C21.7617 59.6712 30.5699 59.6712 39.378 59.6712C39.5959 59.6712 39.8119 59.6638 40.0298 59.675C41.2253 59.7364 42.0261 60.5502 42.0131 61.6861C42 62.7885 41.2309 63.5837 40.0578 63.6116C38.4767 63.6489 36.8939 63.6265 35.3129 63.6265C32.2421 63.6265 29.1713 63.6265 26.1006 63.6265Z" fill="#414141"/>
<path d="M26.2495 79.5437C30.7467 79.5437 35.2439 79.5512 39.7411 79.5381C40.6499 79.5363 41.391 79.7821 41.8193 80.6424C42.4134 81.8342 41.6722 83.257 40.3426 83.473C40.1303 83.5084 39.9087 83.499 39.6927 83.499C30.6666 83.499 21.6424 83.5009 12.6164 83.499C11.3017 83.499 10.4525 82.8678 10.3166 81.8156C10.1583 80.5884 10.9423 79.6015 12.1992 79.5642C13.7802 79.5177 15.3631 79.5456 16.9441 79.5437C20.0447 79.5437 23.1471 79.5437 26.2477 79.5437H26.2495Z" fill="#414141"/>
<path d="M20.2272 53.7127C17.5922 53.7127 14.9553 53.7238 12.3203 53.7052C11.3184 53.6978 10.5289 53.0609 10.3389 52.195C10.1415 51.2918 10.54 50.4184 11.3259 49.9827C11.7262 49.7611 12.1583 49.7592 12.5903 49.7592C17.676 49.7574 22.7616 49.7518 27.8473 49.7611C29.2886 49.763 30.1229 50.5283 30.1005 51.7704C30.0782 52.9566 29.2272 53.7052 27.8566 53.7108C25.3147 53.7201 22.7709 53.7127 20.2272 53.7108V53.7127Z" fill="#414141"/>
<path d="M73.8194 57.7618C74.9535 57.7637 75.5717 58.1231 75.9293 58.8587C76.3203 59.6669 76.1546 60.421 75.6071 61.1101C73.9479 63.1939 72.3017 65.2888 70.6294 67.3615C68.1602 70.4248 65.7952 73.57 63.216 76.5439C62.6462 77.2013 62.0391 77.7395 61.0652 77.4955C59.5792 77.125 59.0522 75.4676 60.0652 74.1864C62.2738 71.3912 64.5121 68.6203 66.7375 65.8382C68.6145 63.4918 70.4935 61.1473 72.3632 58.7953C72.8231 58.2162 73.3334 57.7488 73.8194 57.76V57.7618Z" fill="#414141"/>
<path d="M57.946 61.5888C57.9721 59.4063 59.7728 57.6409 61.9367 57.6763C64.1602 57.7117 65.8846 59.518 65.8399 61.7676C65.797 63.9407 63.9888 65.6707 61.8026 65.626C59.6294 65.5832 57.9181 63.7918 57.946 61.5888Z" fill="#414141"/>
<path d="M69.8585 73.5083C69.8827 71.3258 71.6778 69.5604 73.8436 69.5902C76.067 69.62 77.7952 71.4263 77.7542 73.6759C77.7151 75.8491 75.9087 77.5809 73.7225 77.5418C71.5475 77.5008 69.8343 75.7131 69.8585 73.5101V73.5083Z" fill="#414141"/>
<path d="M43.892 35.1741C43.6536 34.4404 43.3668 33.7216 43.0968 32.999C41.419 28.5186 39.743 24.0363 38.0577 19.5577C37.6145 18.3789 36.8771 17.8519 35.8473 17.9823C34.9553 18.0959 34.445 18.6508 34.1378 19.4758C32.229 24.5949 30.3035 29.7085 28.3892 34.8259C28.2719 35.1406 28.2048 35.4739 28.1638 35.6229C28.1508 36.7793 28.7337 37.526 29.6834 37.7644C30.5866 37.9897 31.4953 37.5819 31.905 36.6843C32.2383 35.9562 32.5233 35.2002 32.7579 34.4348C32.905 33.9544 33.1583 33.8221 33.6294 33.8352C34.7132 33.865 35.797 33.8445 36.8827 33.8445C38.396 33.8445 39.4252 34.5695 39.9702 36.0195C40.0465 36.2206 40.121 36.4255 40.2141 36.6192C40.702 37.6396 41.7598 38.0828 42.7653 37.6936C43.7467 37.3119 44.2402 36.2486 43.892 35.176V35.1741ZM34.4916 29.8557C35.013 28.4739 35.5158 27.1368 36.0856 25.6285C36.6536 27.1387 37.1545 28.4683 37.676 29.8557H34.4916Z" fill="#2EAB8D"/>
</g>
<defs>
<clipPath id="clip0_4180_23625">
<rect width="88" height="95.4115" fill="white"/>
</clipPath>
</defs>
</svg>
