<svg width="80" height="80" viewBox="0 0 80 80" fill="none" xmlns="http://www.w3.org/2000/svg">
<rect width="80" height="80" rx="5" fill="#2D2D43"/>
<path d="M23.8948 49.7128C29.4296 49.7128 34.9644 49.7128 40.4992 49.7128C46.0494 49.7128 51.6009 49.7128 57.1512 49.7141C57.6335 49.7141 58.1093 49.6808 58.5737 49.5525C60.6632 48.974 61.9959 47.1962 61.9972 44.9617C62.001 37.939 61.9985 30.9175 61.9972 23.8948C61.9985 20.951 60.0475 19 57.105 19C46.0353 19 34.9657 19 23.896 19C20.9561 19 19 20.9548 19 23.8935C19 30.8675 19 37.8415 19 44.8168C19 47.7567 20.9561 49.7128 23.8948 49.7128ZM22.0721 23.8742C22.0721 22.6634 22.657 22.0721 23.855 22.0721C34.9529 22.0721 46.0494 22.0721 57.1473 22.0721C58.3441 22.0721 58.929 22.6647 58.929 23.8768C58.929 30.8482 58.929 37.821 58.929 44.7924C58.929 46.0713 58.3633 46.6433 57.0986 46.6433C51.5663 46.6433 46.0328 46.6433 40.5005 46.6433C34.9683 46.6433 29.4668 46.6433 23.9499 46.6433C22.6352 46.6433 22.0733 46.0892 22.0733 44.7911C22.0733 37.8197 22.0733 30.847 22.0733 23.8755L22.0721 23.8742Z" fill="white"/>
<path d="M60.2526 55.8574C58.2862 55.8574 56.3186 55.8574 54.3522 55.8574C46.724 55.8574 39.0959 55.8574 31.4677 55.86C31.1868 55.86 31.0021 55.8421 30.8481 55.515C30.0221 53.7718 28.6252 52.8021 26.6871 52.8008C24.7271 52.7995 23.3328 53.7885 22.4901 55.5432C22.3747 55.783 22.2669 55.8767 22.0014 55.8639C21.5063 55.8408 21.0099 55.8459 20.5148 55.86C19.6553 55.8844 18.9986 56.5604 19.0025 57.3992C19.0063 58.233 19.6695 58.9038 20.5301 58.9256C20.9932 58.9385 21.4588 58.9487 21.9206 58.9205C22.2361 58.9013 22.3798 59.0039 22.5222 59.2976C23.3559 61.0164 24.7412 61.9746 26.6563 61.9836C28.5932 61.9926 29.9951 61.0357 30.8379 59.2976C30.9803 59.0039 31.1252 58.9192 31.4382 58.9205C36.2521 58.9308 41.0648 58.9282 45.8787 58.9282C50.676 58.9282 55.4733 58.9282 60.2719 58.9282C61.2929 58.9282 61.992 58.31 61.9996 57.4082C62.0086 56.4872 61.3031 55.8587 60.2539 55.8587L60.2526 55.8574ZM26.6537 58.9282C25.829 58.9154 25.1427 58.2163 25.144 57.3903C25.144 56.5411 25.8546 55.8446 26.705 55.8574C27.5311 55.8703 28.216 56.5668 28.2148 57.3941C28.2148 58.2394 27.5003 58.941 26.6537 58.9282Z" fill="#CECEF0"/>
<path d="M34.3573 34.3386C34.3573 35.8573 34.3598 37.3773 34.3573 38.896C34.3547 40.153 34.8678 41.133 35.9709 41.7397C37.0407 42.3272 38.1181 42.24 39.152 41.6012C41.6083 40.0825 44.0711 38.574 46.5159 37.0386C48.6285 35.7123 48.6259 33.0058 46.5108 31.677C44.066 30.1416 41.6032 28.6331 39.1456 27.117C38.095 26.4692 37.0009 26.3884 35.9221 27.0041C34.8473 27.6185 34.3521 28.5921 34.356 29.8286C34.3611 31.3319 34.3573 32.8352 34.3573 34.3386ZM37.4486 29.6773C39.9755 31.2409 42.4626 32.7788 45.0139 34.3578C42.469 35.933 39.9819 37.4709 37.4486 39.0384V29.676V29.6773Z" fill="#52D0B2"/>
</svg>
